<svg width="5593" height="4306" xmlns="http://www.w3.org/2000/svg" xmlns:xlink="http://www.w3.org/1999/xlink" xml:space="preserve" overflow="hidden"><g transform="translate(-1115 -683)"><path d="M1805.5 1013.69C1805.5 976.032 1836.03 945.5 1873.69 945.5L5948.31 945.5C5985.97 945.5 6016.5 976.032 6016.5 1013.69L6016.5 4487.31C6016.5 4524.97 5985.97 4555.5 5948.31 4555.5L1873.69 4555.5C1836.03 4555.5 1805.5 4524.97 1805.5 4487.31Z" stroke="#F2F2F2" stroke-width="4.58333" stroke-miterlimit="8" fill="none" fill-rule="evenodd"/><g><text fill="#FFFFFF" font-family="BIZ UDGothic,BIZ UDGothic_MSFontService,sans-serif" font-weight="400" font-size="50" transform="matrix(1 0 0 1 1844.14 1024)">space_balloon.py</text></g><path d="M2331 1056.92C2331 1042.61 2342.61 1031 2356.92 1031L5904.08 1031C5918.39 1031 5930 1042.61 5930 1056.92L5930 4443.08C5930 4457.39 5918.39 4469 5904.08 4469L2356.92 4469C2342.61 4469 2331 4457.39 2331 4443.08Z" stroke="#000000" stroke-width="10.3125" stroke-miterlimit="8" fill="#2F5597" fill-rule="evenodd"/><g><text fill="#FFFFFF" font-family="BIZ UDGothic,BIZ UDGothic_MSFontService,sans-serif" font-weight="400" font-size="50" transform="matrix(1 0 0 1 2357.7 1097)">SensorWrapper</text></g><g><text fill="#FFFFFF" font-family="BIZ UDGothic,BIZ UDGothic_MSFontService,sans-serif" font-weight="400" font-size="50" transform="matrix(1 0 0 1 2685.41 1097)">クラス</text></g><path d="M2405.5 1131.67C2405.5 1123.84 2411.84 1117.5 2419.67 1117.5L2994.33 1117.5C3002.16 1117.5 3008.5 1123.84 3008.5 1131.67L3008.5 1188.33C3008.5 1196.16 3002.16 1202.5 2994.33 1202.5L2419.67 1202.5C2411.84 1202.5 2405.5 1196.16 2405.5 1188.33Z" stroke="#ED7D31" stroke-width="4.58333" stroke-miterlimit="8" stroke-dasharray="18.3333 13.75" fill="#ED7D31" fill-rule="evenodd"/><g><text fill="#FFFFFF" font-family="BIZ UDGothic,BIZ UDGothic_MSFontService,sans-serif" font-weight="400" font-size="50" transform="matrix(1 0 0 1 2428.85 1180)">パラメータ群</text></g><path d="M2401.5 1292.24C2401.5 1279.13 2412.13 1268.5 2425.24 1268.5L5820.76 1268.5C5833.87 1268.5 5844.5 1279.13 5844.5 1292.24L5844.5 4359.76C5844.5 4372.87 5833.87 4383.5 5820.76 4383.5L2425.24 4383.5C2412.13 4383.5 2401.5 4372.87 2401.5 4359.76Z" stroke="#5B9BD5" stroke-width="4.58333" stroke-miterlimit="8" stroke-dasharray="18.3333 13.75" fill="#203864" fill-rule="evenodd"/><g><text fill="#C198E0" font-family="BIZ UDGothic,BIZ UDGothic_MSFontService,sans-serif" font-weight="400" font-size="50" transform="matrix(1 0 0 1 2427.64 1333)">doSensorWrapper</text></g><g><text fill="#C198E0" font-family="BIZ UDGothic,BIZ UDGothic_MSFontService,sans-serif" font-weight="400" font-size="50" transform="matrix(1 0 0 1 2805.76 1333)">関数</text></g><path d="M1891.5 1300.56C1891.5 1295.56 1895.56 1291.5 1900.56 1291.5L2225.44 1291.5C2230.44 1291.5 2234.5 1295.56 2234.5 1300.56L2234.5 1452.44C2234.5 1457.44 2230.44 1461.5 2225.44 1461.5L1900.56 1461.5C1895.56 1461.5 1891.5 1457.44 1891.5 1452.44Z" stroke="#5B9BD5" stroke-width="4.58333" stroke-miterlimit="8" stroke-dasharray="18.3333 13.75" fill="#203864" fill-rule="evenodd"/><g><text fill="#C198E0" font-family="BIZ UDGothic,BIZ UDGothic_MSFontService,sans-serif" font-weight="400" font-size="50" transform="matrix(1 0 0 1 1912.76 1399)">main</text></g><text fill="#C198E0" font-family="BIZ UDGothic,BIZ UDGothic_MSFontService,sans-serif" font-weight="400" font-size="50" transform="matrix(1 0 0 1 2013.59 1399)">関数</text><path d="M2234 1373.85 2382.96 1373.85 2382.96 1376.15 2234 1376.15ZM2378.38 1361.25 2405.88 1375 2378.38 1388.75Z" fill="#FFFFFF"/><rect x="5328" y="4641" width="516" height="343" stroke="#FF0000" stroke-width="10.3125" stroke-miterlimit="8" fill="#ED7D31"/><g><text fill="#FFFFFF" font-family="BIZ UDGothic,BIZ UDGothic_MSFontService,sans-serif" font-weight="400" font-size="50" transform="matrix(1 0 0 1 5347.61 4699)">センサー群</text></g><g><text fill="#FFFFFF" font-family="BIZ UDGothic,BIZ UDGothic_MSFontService,sans-serif" font-weight="400" font-size="50" transform="matrix(1 0 0 1 5347.61 4764)">・</text></g><text fill="#FFFFFF" font-family="BIZ UDGothic,BIZ UDGothic_MSFontService,sans-serif" font-weight="400" font-size="50" transform="matrix(1 0 0 1 5398.03 4764)">Camera Module</text><g><text fill="#FFFFFF" font-family="BIZ UDGothic,BIZ UDGothic_MSFontService,sans-serif" font-weight="400" font-size="50" transform="matrix(1 0 0 1 5347.61 4830)">・</text></g><text fill="#FFFFFF" font-family="BIZ UDGothic,BIZ UDGothic_MSFontService,sans-serif" font-weight="400" font-size="50" transform="matrix(1 0 0 1 5398.03 4830)">BME280</text><g><text fill="#FFFFFF" font-family="BIZ UDGothic,BIZ UDGothic_MSFontService,sans-serif" font-weight="400" font-size="50" transform="matrix(1 0 0 1 5347.61 4896)">・</text></g><text fill="#FFFFFF" font-family="BIZ UDGothic,BIZ UDGothic_MSFontService,sans-serif" font-weight="400" font-size="50" transform="matrix(1 0 0 1 5398.03 4896)">MPU6050</text><path d="M6102 2664 6444 2664 6444 2951 6387 3008 6102 3008Z" fill="#A9D18E" fill-rule="evenodd"/><path d="M6387 3008 6398.4 2962.4 6444 2951Z" fill="#88A872" fill-rule="evenodd"/><path d="M6387 3008 6398.4 2962.4 6444 2951 6387 3008 6102 3008 6102 2664 6444 2664 6444 2951" stroke="#385723" stroke-width="10.3125" stroke-miterlimit="8" fill="none" fill-rule="evenodd"/><text fill="#FFFFFF" font-family="Calibri,Calibri_MSFontService,sans-serif" font-weight="400" font-size="50" transform="matrix(1 0 0 1 6247.53 2825)">csv</text><path d="M6102 1977 6442 1977 6442 2263.33 6385.33 2320 6102 2320Z" fill="#A9D18E" fill-rule="evenodd"/><path d="M6385.33 2320 6396.67 2274.67 6442 2263.33Z" fill="#88A872" fill-rule="evenodd"/><path d="M6385.33 2320 6396.67 2274.67 6442 2263.33 6385.33 2320 6102 2320 6102 1977 6442 1977 6442 2263.33" stroke="#385723" stroke-width="10.3125" stroke-miterlimit="8" fill="none" fill-rule="evenodd"/><text fill="#FFFFFF" font-family="Calibri,Calibri_MSFontService,sans-serif" font-weight="400" font-size="50" transform="matrix(1 0 0 1 6246.26 2137)">csv</text><path d="M6102 4039 6431 4039 6431 4254 6388 4297 6102 4297Z" fill="#0000FF" fill-rule="evenodd"/><path d="M6388 4297 6396.6 4262.6 6431 4254Z" fill="#0000CD" fill-rule="evenodd"/><path d="M6388 4297 6396.6 4262.6 6431 4254 6388 4297 6102 4297 6102 4039 6431 4039 6431 4254" stroke="#00B050" stroke-width="10.3125" stroke-miterlimit="8" fill="none" fill-rule="evenodd"/><g><text fill="#FFFFFF" font-family="Calibri,Calibri_MSFontService,sans-serif" font-weight="400" font-size="50" transform="matrix(1 0 0 1 6143.37 4102)">H.264 movie</text></g><text fill="#FFFFFF" font-family="Calibri,Calibri_MSFontService,sans-serif" font-weight="400" font-size="50" transform="matrix(1 0 0 1 6250.53 4164)">or</text><g><text fill="#FFFFFF" font-family="Calibri,Calibri_MSFontService,sans-serif" font-weight="400" font-size="50" transform="matrix(1 0 0 1 6176.56 4225)">MP4 ovie</text></g><path d="M6102.5 1461.5 6445.5 1461.5 6445.5 1748.33 6388.33 1805.5 6102.5 1805.5Z" fill="#0000FF" fill-rule="evenodd"/><path d="M6388.33 1805.5 6399.77 1759.77 6445.5 1748.33Z" fill="#0000CD" fill-rule="evenodd"/><path d="M6388.33 1805.5 6399.77 1759.77 6445.5 1748.33 6388.33 1805.5 6102.5 1805.5 6102.5 1461.5 6445.5 1461.5 6445.5 1748.33" stroke="#0000FF" stroke-width="4.58333" stroke-miterlimit="8" fill="none" fill-rule="evenodd"/><text fill="#FFFFFF" font-family="Calibri,Calibri_MSFontService,sans-serif" font-weight="400" font-size="50" transform="matrix(1 0 0 1 6150.69 1621)">H.264 movie</text><path d="M1727 1885.84 2466.57 1885.84 2466.57 1896.16 1727 1896.16ZM2461.41 1875.53 2492.35 1891 2461.41 1906.47Z" fill="#00B0F0"/><path d="M1117.5 1289.5 1461.5 1289.5 1461.5 1445.33 1430.33 1476.5 1117.5 1476.5Z" fill="#ED7D31" fill-rule="evenodd"/><path d="M1430.33 1476.5 1436.57 1451.57 1461.5 1445.33Z" fill="#BF6427" fill-rule="evenodd"/><path d="M1430.33 1476.5 1436.57 1451.57 1461.5 1445.33 1430.33 1476.5 1117.5 1476.5 1117.5 1289.5 1461.5 1289.5 1461.5 1445.33" stroke="#FFFFFF" stroke-width="4.58333" stroke-miterlimit="8" fill="none" fill-rule="evenodd"/><g><text fill="#FFFFFF" font-family="Yu Gothic,Yu Gothic_MSFontService,sans-serif" font-weight="400" font-size="50" transform="matrix(1 0 0 1 1130.18 1348)">オプション</text></g><path d="M2491.5 1475.67C2491.5 1467.84 2497.84 1461.5 2505.67 1461.5L3082.33 1461.5C3090.16 1461.5 3096.5 1467.84 3096.5 1475.67L3096.5 1532.33C3096.5 1540.16 3090.16 1546.5 3082.33 1546.5L2505.67 1546.5C2497.84 1546.5 2491.5 1540.16 2491.5 1532.33Z" stroke="#5B9BD5" stroke-width="4.58333" stroke-miterlimit="8" stroke-dasharray="18.3333 13.75" fill="#203864" fill-rule="evenodd"/><g><text fill="#C198E0" font-family="BIZ UDGothic,BIZ UDGothic_MSFontService,sans-serif" font-weight="400" font-size="50" transform="matrix(1 0 0 1 2514.79 1526)">__read_args</text></g><g><text fill="#C198E0" font-family="BIZ UDGothic,BIZ UDGothic_MSFontService,sans-serif" font-weight="400" font-size="50" transform="matrix(1 0 0 1 2792.08 1526)">関数</text></g><path d="M4211.5 1399.72C4211.5 1385.79 4222.79 1374.5 4236.71 1374.5L5733.28 1374.5C5747.21 1374.5 5758.5 1385.79 5758.5 1399.72L5758.5 3498.29C5758.5 3512.21 5747.21 3523.5 5733.28 3523.5L4236.71 3523.5C4222.79 3523.5 4211.5 3512.21 4211.5 3498.29Z" stroke="#5B9BD5" stroke-width="4.58333" stroke-miterlimit="8" stroke-dasharray="18.3333 13.75" fill="#203864" fill-rule="evenodd"/><g><text fill="#C198E0" font-family="BIZ UDGothic,BIZ UDGothic_MSFontService,sans-serif" font-weight="400" font-size="50" transform="matrix(1 0 0 1 4237.81 1440)">__setup_sensors</text></g><g><text fill="#C198E0" font-family="BIZ UDGothic,BIZ UDGothic_MSFontService,sans-serif" font-weight="400" font-size="50" transform="matrix(1 0 0 1 4615.94 1440)">関数</text></g><path d="M3438.5 1482.17C3438.5 1474.62 3444.62 1468.5 3452.17 1468.5L4029.83 1468.5C4037.38 1468.5 4043.5 1474.62 4043.5 1482.17L4043.5 1536.83C4043.5 1544.38 4037.38 1550.5 4029.83 1550.5L3452.17 1550.5C3444.62 1550.5 3438.5 1544.38 3438.5 1536.83Z" stroke="#5B9BD5" stroke-width="4.58333" stroke-miterlimit="8" stroke-dasharray="18.3333 13.75" fill="#203864" fill-rule="evenodd"/><g><text fill="#C198E0" font-family="BIZ UDGothic,BIZ UDGothic_MSFontService,sans-serif" font-weight="400" font-size="50" transform="matrix(1 0 0 1 3461.01 1532)">その他関数</text></g><path d="M4297 1476.2C4297 1467.81 4303.81 1461 4312.21 1461L5398.8 1461C5407.19 1461 5414 1467.81 5414 1476.2L5414 1875.8C5414 1884.19 5407.19 1891 5398.8 1891L4312.21 1891C4303.81 1891 4297 1884.19 4297 1875.8Z" stroke="#000000" stroke-width="10.3125" stroke-miterlimit="8" fill="#2E75B6" fill-rule="evenodd"/><g><text fill="#FFFFFF" font-family="BIZ UDGothic,BIZ UDGothic_MSFontService,sans-serif" font-weight="400" font-size="50" transform="matrix(1 0 0 1 4320.82 1524)">CameraModuleImpl</text></g><g><text fill="#FFFFFF" font-family="BIZ UDGothic,BIZ UDGothic_MSFontService,sans-serif" font-weight="400" font-size="50" transform="matrix(1 0 0 1 4724.15 1524)">クラス</text></g><path d="M4383.5 1568.26C4383.5 1556.79 4392.79 1547.5 4404.26 1547.5L5307.74 1547.5C5319.21 1547.5 5328.5 1556.79 5328.5 1568.26L5328.5 1784.74C5328.5 1796.21 5319.21 1805.5 5307.74 1805.5L4404.26 1805.5C4392.79 1805.5 4383.5 1796.21 4383.5 1784.74Z" stroke="#5B9BD5" stroke-width="4.58333" stroke-miterlimit="8" stroke-dasharray="18.3333 13.75" fill="#203864" fill-rule="evenodd"/><g><text fill="#C198E0" font-family="BIZ UDGothic,BIZ UDGothic_MSFontService,sans-serif" font-weight="400" font-size="50" transform="matrix(1 0 0 1 4408.39 1612)">doCameraModuleImpl</text></g><g><text fill="#C198E0" font-family="BIZ UDGothic,BIZ UDGothic_MSFontService,sans-serif" font-weight="400" font-size="50" transform="matrix(1 0 0 1 4862.14 1612)">関数</text></g><path d="M4471.5 1647.17C4471.5 1639.62 4477.62 1633.5 4485.17 1633.5L5228.83 1633.5C5236.38 1633.5 5242.5 1639.62 5242.5 1647.17L5242.5 1701.83C5242.5 1709.38 5236.38 1715.5 5228.83 1715.5L4485.17 1715.5C4477.62 1715.5 4471.5 1709.38 4471.5 1701.83Z" stroke="#5B9BD5" stroke-width="4.58333" stroke-miterlimit="8" stroke-dasharray="18.3333 13.75" fill="#203864" fill-rule="evenodd"/><g><text fill="#C198E0" font-family="BIZ UDGothic,BIZ UDGothic_MSFontService,sans-serif" font-weight="400" font-size="50" transform="matrix(1 0 0 1 4494.96 1697)">__start_camera_module</text></g><g><text fill="#C198E0" font-family="BIZ UDGothic,BIZ UDGothic_MSFontService,sans-serif" font-weight="400" font-size="50" transform="matrix(1 0 0 1 5024.34 1697)">関数</text></g><path d="M4297 2011.8C4297 1993.13 4312.13 1978 4330.8 1978L5380.2 1978C5398.87 1978 5414 1993.13 5414 2011.8L5414 2544.2C5414 2562.87 5398.87 2578 5380.2 2578L4330.8 2578C4312.13 2578 4297 2562.87 4297 2544.2Z" stroke="#000000" stroke-width="10.3125" stroke-miterlimit="8" fill="#2E75B6" fill-rule="evenodd"/><g><text fill="#FFFFFF" font-family="BIZ UDGothic,BIZ UDGothic_MSFontService,sans-serif" font-weight="400" font-size="50" transform="matrix(1 0 0 1 4326.27 2046)">BME280Impl</text></g><g><text fill="#FFFFFF" font-family="BIZ UDGothic,BIZ UDGothic_MSFontService,sans-serif" font-weight="400" font-size="50" transform="matrix(1 0 0 1 4578.35 2046)">クラス</text></g><path d="M4383.5 2068.39C4383.5 2065.69 4385.69 2063.5 4388.39 2063.5L5323.61 2063.5C5326.31 2063.5 5328.5 2065.69 5328.5 2068.39L5328.5 2479.61C5328.5 2482.31 5326.31 2484.5 5323.61 2484.5L4388.39 2484.5C4385.69 2484.5 4383.5 2482.31 4383.5 2479.61Z" stroke="#5B9BD5" stroke-width="4.58333" stroke-miterlimit="8" stroke-dasharray="18.3333 13.75" fill="#203864" fill-rule="evenodd"/><g><text fill="#C198E0" font-family="BIZ UDGothic,BIZ UDGothic_MSFontService,sans-serif" font-weight="400" font-size="50" transform="matrix(1 0 0 1 4403.73 2122)">doBME280Impl</text></g><g><text fill="#C198E0" font-family="BIZ UDGothic,BIZ UDGothic_MSFontService,sans-serif" font-weight="400" font-size="50" transform="matrix(1 0 0 1 4706.23 2122)">関数</text></g><path d="M4469.5 2163.17C4469.5 2155.07 4476.07 2148.5 4484.17 2148.5L5227.83 2148.5C5235.93 2148.5 5242.5 2155.07 5242.5 2163.17L5242.5 2221.83C5242.5 2229.93 5235.93 2236.5 5227.83 2236.5L4484.17 2236.5C4476.07 2236.5 4469.5 2229.93 4469.5 2221.83Z" stroke="#5B9BD5" stroke-width="4.58333" stroke-miterlimit="8" stroke-dasharray="18.3333 13.75" fill="#203864" fill-rule="evenodd"/><g><text fill="#C198E0" font-family="BIZ UDGothic,BIZ UDGothic_MSFontService,sans-serif" font-weight="400" font-size="50" transform="matrix(1 0 0 1 4492.5 2215)">__read_sensor</text></g><g><text fill="#C198E0" font-family="BIZ UDGothic,BIZ UDGothic_MSFontService,sans-serif" font-weight="400" font-size="50" transform="matrix(1 0 0 1 4820.2 2215)">関数</text></g><path d="M4469.5 2335.17C4469.5 2327.07 4476.07 2320.5 4484.17 2320.5L5227.83 2320.5C5235.93 2320.5 5242.5 2327.07 5242.5 2335.17L5242.5 2393.83C5242.5 2401.93 5235.93 2408.5 5227.83 2408.5L4484.17 2408.5C4476.07 2408.5 4469.5 2401.93 4469.5 2393.83Z" stroke="#5B9BD5" stroke-width="4.58333" stroke-miterlimit="8" stroke-dasharray="18.3333 13.75" fill="#203864" fill-rule="evenodd"/><g><text fill="#C198E0" font-family="BIZ UDGothic,BIZ UDGothic_MSFontService,sans-serif" font-weight="400" font-size="50" transform="matrix(1 0 0 1 4492.5 2386)">__output_csv</text></g><g><text fill="#C198E0" font-family="BIZ UDGothic,BIZ UDGothic_MSFontService,sans-serif" font-weight="400" font-size="50" transform="matrix(1 0 0 1 4795 2386)">関数</text></g><path d="M4297 2698.11C4297 2679.27 4312.27 2664 4331.11 2664L5379.89 2664C5398.73 2664 5414 2679.27 5414 2698.11L5414 3403.89C5414 3422.73 5398.73 3438 5379.89 3438L4331.11 3438C4312.27 3438 4297 3422.73 4297 3403.89Z" stroke="#000000" stroke-width="10.3125" stroke-miterlimit="8" fill="#2E75B6" fill-rule="evenodd"/><g><text fill="#FFFFFF" font-family="BIZ UDGothic,BIZ UDGothic_MSFontService,sans-serif" font-weight="400" font-size="50" transform="matrix(1 0 0 1 4326.35 2733)">MPU6050Impl</text></g><g><text fill="#FFFFFF" font-family="BIZ UDGothic,BIZ UDGothic_MSFontService,sans-serif" font-weight="400" font-size="50" transform="matrix(1 0 0 1 4603.64 2733)">クラス</text></g><path d="M4382.5 2761.25C4382.5 2755.31 4387.31 2750.5 4393.25 2750.5L5317.75 2750.5C5323.69 2750.5 5328.5 2755.31 5328.5 2761.25L5328.5 3366.75C5328.5 3372.69 5323.69 3377.5 5317.75 3377.5L4393.25 3377.5C4387.31 3377.5 4382.5 3372.69 4382.5 3366.75Z" stroke="#5B9BD5" stroke-width="4.58333" stroke-miterlimit="8" stroke-dasharray="18.3333 13.75" fill="#203864" fill-rule="evenodd"/><g><text fill="#C198E0" font-family="BIZ UDGothic,BIZ UDGothic_MSFontService,sans-serif" font-weight="400" font-size="50" transform="matrix(1 0 0 1 4404.41 2812)">doMPU6050Impl</text></g><g><text fill="#C198E0" font-family="BIZ UDGothic,BIZ UDGothic_MSFontService,sans-serif" font-weight="400" font-size="50" transform="matrix(1 0 0 1 4732.12 2812)">関数</text></g><path d="M4469.5 3195C4469.5 3186.99 4475.99 3180.5 4484 3180.5L5228 3180.5C5236.01 3180.5 5242.5 3186.99 5242.5 3195L5242.5 3253C5242.5 3261.01 5236.01 3267.5 5228 3267.5L4484 3267.5C4475.99 3267.5 4469.5 3261.01 4469.5 3253Z" stroke="#5B9BD5" stroke-width="4.58333" stroke-miterlimit="8" stroke-dasharray="18.3333 13.75" fill="#203864" fill-rule="evenodd"/><g><text fill="#C198E0" font-family="BIZ UDGothic,BIZ UDGothic_MSFontService,sans-serif" font-weight="400" font-size="50" transform="matrix(1 0 0 1 4492.5 3246)">__output_csv</text></g><g><text fill="#C198E0" font-family="BIZ UDGothic,BIZ UDGothic_MSFontService,sans-serif" font-weight="400" font-size="50" transform="matrix(1 0 0 1 4795 3246)">関数</text></g><path d="M4469.5 2859.65C4469.5 2847.42 4479.42 2837.5 4491.65 2837.5L5220.35 2837.5C5232.58 2837.5 5242.5 2847.42 5242.5 2859.65L5242.5 3073.35C5242.5 3085.58 5232.58 3095.5 5220.35 3095.5L4491.65 3095.5C4479.42 3095.5 4469.5 3085.58 4469.5 3073.35Z" stroke="#5B9BD5" stroke-width="4.58333" stroke-miterlimit="8" stroke-dasharray="18.3333 13.75" fill="#203864" fill-rule="evenodd"/><g><text fill="#C198E0" font-family="BIZ UDGothic,BIZ UDGothic_MSFontService,sans-serif" font-weight="400" font-size="50" transform="matrix(1 0 0 1 4494.72 2902)">__read_sensor</text></g><g><text fill="#C198E0" font-family="BIZ UDGothic,BIZ UDGothic_MSFontService,sans-serif" font-weight="400" font-size="50" transform="matrix(1 0 0 1 4822.43 2902)">関数</text></g><path d="M4555.5 2937C4555.5 2928.99 4561.99 2922.5 4570 2922.5L5056 2922.5C5064.01 2922.5 5070.5 2928.99 5070.5 2937L5070.5 2995C5070.5 3003.01 5064.01 3009.5 5056 3009.5L4570 3009.5C4561.99 3009.5 4555.5 3003.01 4555.5 2995Z" stroke="#5B9BD5" stroke-width="4.58333" stroke-miterlimit="8" stroke-dasharray="18.3333 13.75" fill="#203864" fill-rule="evenodd"/><g><text fill="#C198E0" font-family="BIZ UDGothic,BIZ UDGothic_MSFontService,sans-serif" font-weight="400" font-size="50" transform="matrix(1 0 0 1 4578.43 2988)">__read_word</text></g><g><text fill="#C198E0" font-family="BIZ UDGothic,BIZ UDGothic_MSFontService,sans-serif" font-weight="400" font-size="50" transform="matrix(1 0 0 1 4855.73 2988)">関数</text></g><path d="M2492 1673.92C2492 1651.32 2510.32 1633 2532.92 1633L4083.85 1633C4106.45 1633 4124.77 1651.32 4124.77 1673.92L4124.77 4256.08C4124.77 4278.68 4106.45 4297 4083.85 4297L2532.92 4297C2510.32 4297 2492 4278.68 2492 4256.08Z" stroke="#000000" stroke-width="10.3125" stroke-miterlimit="8" fill="#1F4E79" fill-rule="evenodd"/><g><text fill="#FFFFFF" font-family="BIZ UDGothic,BIZ UDGothic_MSFontService,sans-serif" font-weight="400" font-size="50" transform="matrix(1 0 0 1 2523.66 1703)">SensorAnalyzerImpl</text></g><g><text fill="#FFFFFF" font-family="BIZ UDGothic,BIZ UDGothic_MSFontService,sans-serif" font-weight="400" font-size="50" transform="matrix(1 0 0 1 2977.41 1703)">クラス</text></g><path d="M2578.5 1846.45C2578.5 1823.83 2596.84 1805.5 2619.45 1805.5L3998.55 1805.5C4021.17 1805.5 4039.5 1823.83 4039.5 1846.45L4039.5 4170.55C4039.5 4193.17 4021.17 4211.5 3998.55 4211.5L2619.45 4211.5C2596.84 4211.5 2578.5 4193.17 2578.5 4170.55Z" stroke="#5B9BD5" stroke-width="4.58333" stroke-miterlimit="8" stroke-dasharray="18.3333 13.75" fill="#203864" fill-rule="evenodd"/><g><text fill="#C198E0" font-family="BIZ UDGothic,BIZ UDGothic_MSFontService,sans-serif" font-weight="400" font-size="50" transform="matrix(1 0 0 1 2609.61 1875)">doSensorAnalyzerImplImpl</text></g><g><text fill="#C198E0" font-family="BIZ UDGothic,BIZ UDGothic_MSFontService,sans-serif" font-weight="400" font-size="50" transform="matrix(1 0 0 1 3214.61 1875)">関数</text></g><path d="M2659.5 3710.17C2659.5 3702.07 2666.07 3695.5 2674.17 3695.5L3853.83 3695.5C3861.93 3695.5 3868.5 3702.07 3868.5 3710.17L3868.5 3768.83C3868.5 3776.93 3861.93 3783.5 3853.83 3783.5L2674.17 3783.5C2666.07 3783.5 2659.5 3776.93 2659.5 3768.83Z" stroke="#5B9BD5" stroke-width="4.58333" stroke-miterlimit="8" stroke-dasharray="18.3333 13.75" fill="#203864" fill-rule="evenodd"/><g><text fill="#C198E0" font-family="BIZ UDGothic,BIZ UDGothic_MSFontService,sans-serif" font-weight="400" font-size="50" transform="matrix(1 0 0 1 2682.83 3761)">__output_to_excel</text></g><g><text fill="#C198E0" font-family="BIZ UDGothic,BIZ UDGothic_MSFontService,sans-serif" font-weight="400" font-size="50" transform="matrix(1 0 0 1 3111.38 3761)">関数</text></g><path d="M2664.5 1982.27C2664.5 1979.64 2666.64 1977.5 2669.27 1977.5L3863.73 1977.5C3866.36 1977.5 3868.5 1979.64 3868.5 1982.27L3868.5 2573.73C3868.5 2576.36 3866.36 2578.5 3863.73 2578.5L2669.27 2578.5C2666.64 2578.5 2664.5 2576.36 2664.5 2573.73Z" stroke="#5B9BD5" stroke-width="4.58333" stroke-miterlimit="8" stroke-dasharray="18.3333 13.75" fill="#203864" fill-rule="evenodd"/><g><text fill="#C198E0" font-family="BIZ UDGothic,BIZ UDGothic_MSFontService,sans-serif" font-weight="400" font-size="50" transform="matrix(1 0 0 1 2684.95 2036)">__generate_alititude_csv</text></g><g><text fill="#C198E0" font-family="BIZ UDGothic,BIZ UDGothic_MSFontService,sans-serif" font-weight="400" font-size="50" transform="matrix(1 0 0 1 3289.95 2036)">関数</text></g><path d="M2750.5 2166.75C2750.5 2156.67 2758.67 2148.5 2768.75 2148.5L3764.25 2148.5C3774.33 2148.5 3782.5 2156.67 3782.5 2166.75L3782.5 2474.25C3782.5 2484.33 3774.33 2492.5 3764.25 2492.5L2768.75 2492.5C2758.67 2492.5 2750.5 2484.33 2750.5 2474.25Z" stroke="#5B9BD5" stroke-width="4.58333" stroke-miterlimit="8" stroke-dasharray="18.3333 13.75" fill="#203864" fill-rule="evenodd"/><g><text fill="#C198E0" font-family="BIZ UDGothic,BIZ UDGothic_MSFontService,sans-serif" font-weight="400" font-size="50" transform="matrix(1 0 0 1 2774.83 2212)">__calculate_altitude</text></g><g><text fill="#C198E0" font-family="BIZ UDGothic,BIZ UDGothic_MSFontService,sans-serif" font-weight="400" font-size="50" transform="matrix(1 0 0 1 3278.99 2212)">関数</text></g><path d="M2839.5 2334C2839.5 2325.99 2845.99 2319.5 2854 2319.5L3682 2319.5C3690.01 2319.5 3696.5 2325.99 3696.5 2334L3696.5 2392C3696.5 2400.01 3690.01 2406.5 3682 2406.5L2854 2406.5C2845.99 2406.5 2839.5 2400.01 2839.5 2392Z" stroke="#5B9BD5" stroke-width="4.58333" stroke-miterlimit="8" stroke-dasharray="18.3333 13.75" fill="#203864" fill-rule="evenodd"/><g><text fill="#C198E0" font-family="BIZ UDGothic,BIZ UDGothic_MSFontService,sans-serif" font-weight="400" font-size="50" transform="matrix(1 0 0 1 2863.02 2385)">__virtual_temperature</text></g><g><text fill="#C198E0" font-family="BIZ UDGothic,BIZ UDGothic_MSFontService,sans-serif" font-weight="400" font-size="50" transform="matrix(1 0 0 1 3392.4 2385)">関数</text></g><path d="M2659.5 3882C2659.5 3873.99 2665.99 3867.5 2674 3867.5L3853 3867.5C3861.01 3867.5 3867.5 3873.99 3867.5 3882L3867.5 3940C3867.5 3948.01 3861.01 3954.5 3853 3954.5L2674 3954.5C2665.99 3954.5 2659.5 3948.01 2659.5 3940Z" stroke="#5B9BD5" stroke-width="4.58333" stroke-miterlimit="8" stroke-dasharray="18.3333 13.75" fill="#203864" fill-rule="evenodd"/><g><text fill="#C198E0" font-family="BIZ UDGothic,BIZ UDGothic_MSFontService,sans-serif" font-weight="400" font-size="50" transform="matrix(1 0 0 1 2682.83 3933)">__conver_h264_to_mp4</text></g><g><text fill="#C198E0" font-family="BIZ UDGothic,BIZ UDGothic_MSFontService,sans-serif" font-weight="400" font-size="50" transform="matrix(1 0 0 1 3187 3933)">関数</text></g><path d="M2664.5 2679.72C2664.5 2671.31 2671.31 2664.5 2679.72 2664.5L3852.28 2664.5C3860.69 2664.5 3867.5 2671.31 3867.5 2679.72L3867.5 3594.28C3867.5 3602.69 3860.69 3609.5 3852.28 3609.5L2679.72 3609.5C2671.31 3609.5 2664.5 3602.69 2664.5 3594.28Z" stroke="#5B9BD5" stroke-width="4.58333" stroke-miterlimit="8" stroke-dasharray="18.3333 13.75" fill="#203864" fill-rule="evenodd"/><g><text fill="#C198E0" font-family="BIZ UDGothic,BIZ UDGothic_MSFontService,sans-serif" font-weight="400" font-size="50" transform="matrix(1 0 0 1 2688.01 2727)">__analyse_frame_sync</text></g><g><text fill="#C198E0" font-family="BIZ UDGothic,BIZ UDGothic_MSFontService,sans-serif" font-weight="400" font-size="50" transform="matrix(1 0 0 1 3192.18 2727)">関数</text></g><path d="M2747.5 2856.4C2747.5 2845.41 2756.41 2836.5 2767.4 2836.5L3761.6 2836.5C3772.59 2836.5 3781.5 2845.41 3781.5 2856.4L3781.5 3503.6C3781.5 3514.59 3772.59 3523.5 3761.6 3523.5L2767.4 3523.5C2756.41 3523.5 2747.5 3514.59 2747.5 3503.6Z" stroke="#5B9BD5" stroke-width="4.58333" stroke-miterlimit="8" stroke-dasharray="18.3333 13.75" fill="#203864" fill-rule="evenodd"/><g><text fill="#C198E0" font-family="BIZ UDGothic,BIZ UDGothic_MSFontService,sans-serif" font-weight="400" font-size="50" transform="matrix(1 0 0 1 2771.98 2900)">__movie_gen</text></g><g><text fill="#C198E0" font-family="BIZ UDGothic,BIZ UDGothic_MSFontService,sans-serif" font-weight="400" font-size="50" transform="matrix(1 0 0 1 3049.27 2900)">関数</text></g><path d="M2836.5 3023C2836.5 3014.99 2842.99 3008.5 2851 3008.5L3684 3008.5C3692.01 3008.5 3698.5 3014.99 3698.5 3023L3698.5 3081C3698.5 3089.01 3692.01 3095.5 3684 3095.5L2851 3095.5C2842.99 3095.5 2836.5 3089.01 2836.5 3081Z" stroke="#5B9BD5" stroke-width="4.58333" stroke-miterlimit="8" stroke-dasharray="18.3333 13.75" fill="#203864" fill-rule="evenodd"/><g><text fill="#C198E0" font-family="BIZ UDGothic,BIZ UDGothic_MSFontService,sans-serif" font-weight="400" font-size="50" transform="matrix(1 0 0 1 2859.67 3074)">__separation_h264_to_jpeg</text></g><g><text fill="#C198E0" font-family="BIZ UDGothic,BIZ UDGothic_MSFontService,sans-serif" font-weight="400" font-size="50" transform="matrix(1 0 0 1 3489.88 3074)">関数</text></g><path d="M2836.5 3193C2836.5 3184.99 2842.99 3178.5 2851 3178.5L3684 3178.5C3692.01 3178.5 3698.5 3184.99 3698.5 3193L3698.5 3251C3698.5 3259.01 3692.01 3265.5 3684 3265.5L2851 3265.5C2842.99 3265.5 2836.5 3259.01 2836.5 3251Z" stroke="#5B9BD5" stroke-width="4.58333" stroke-miterlimit="8" stroke-dasharray="18.3333 13.75" fill="#203864" fill-rule="evenodd"/><g><text fill="#C198E0" font-family="BIZ UDGothic,BIZ UDGothic_MSFontService,sans-serif" font-weight="400" font-size="50" transform="matrix(1 0 0 1 2859.67 3244)">__add_sensor_frame</text></g><g><text fill="#C198E0" font-family="BIZ UDGothic,BIZ UDGothic_MSFontService,sans-serif" font-weight="400" font-size="50" transform="matrix(1 0 0 1 3313.42 3244)">関数</text></g><path d="M2836.5 3365.83C2836.5 3357.92 2842.92 3351.5 2850.83 3351.5L3684.17 3351.5C3692.08 3351.5 3698.5 3357.92 3698.5 3365.83L3698.5 3423.17C3698.5 3431.08 3692.08 3437.5 3684.17 3437.5L2850.83 3437.5C2842.92 3437.5 2836.5 3431.08 2836.5 3423.17Z" stroke="#5B9BD5" stroke-width="4.58333" stroke-miterlimit="8" stroke-dasharray="18.3333 13.75" fill="#203864" fill-rule="evenodd"/><g><text fill="#C198E0" font-family="BIZ UDGothic,BIZ UDGothic_MSFontService,sans-serif" font-weight="400" font-size="50" transform="matrix(1 0 0 1 2859.67 3416)">__merge_jpeg_to_h264</text></g><g><text fill="#C198E0" font-family="BIZ UDGothic,BIZ UDGothic_MSFontService,sans-serif" font-weight="400" font-size="50" transform="matrix(1 0 0 1 3363.84 3416)">関数</text></g><path d="M2664.5 4052.33C2664.5 4044.14 2671.14 4037.5 2679.33 4037.5L3852.67 4037.5C3860.86 4037.5 3867.5 4044.14 3867.5 4052.33L3867.5 4111.67C3867.5 4119.86 3860.86 4126.5 3852.67 4126.5L2679.33 4126.5C2671.14 4126.5 2664.5 4119.86 2664.5 4111.67Z" stroke="#5B9BD5" stroke-width="4.58333" stroke-miterlimit="8" stroke-dasharray="18.3333 13.75" fill="#203864" fill-rule="evenodd"/><g><text fill="#C198E0" font-family="BIZ UDGothic,BIZ UDGothic_MSFontService,sans-serif" font-weight="400" font-size="50" transform="matrix(1 0 0 1 2687.92 4104)">その他関数</text></g><path d="M4150.78 3603.84 6075.78 3603.84 6075.78 3614.16 4150.78 3614.16ZM4155.94 3624.47 4125 3609 4155.94 3593.53ZM6070.62 3593.53 6101.56 3609 6070.62 3624.47Z" fill="#00B0F0"/><path d="M5414 1627.84 6075.72 1627.84 6075.72 1638.16 5414 1638.16ZM6070.56 1617.53 6101.5 1633 6070.56 1648.47Z" fill="#00B0F0"/><path d="M5414 2142.84 6075.72 2142.84 6075.72 2153.16 5414 2153.16ZM6070.56 2132.53 6101.5 2148 6070.56 2163.47Z" fill="#00B0F0"/><path d="M5414 2830.84 6075.72 2830.84 6075.72 2841.16 5414 2841.16ZM6070.56 2820.53 6101.5 2836 6070.56 2851.47Z" fill="#00B0F0"/><path d="M4150.78 3861.84 6075.78 3861.84 6075.78 3872.16 4150.78 3872.16ZM4155.94 3882.47 4125 3867 4155.94 3851.53ZM6070.62 3851.53 6101.56 3867 6070.62 3882.47Z" fill="#00B0F0"/><path d="M5439.78 1799.84 5671.81 1799.84 5671.81 1810.16 5439.78 1810.16ZM5444.94 1820.47 5414 1805 5444.94 1789.53Z" fill="#00B0F0"/><path d="M4125 4119.84 6075.78 4119.84 6075.78 4130.16 4125 4130.16ZM6070.62 4109.53 6101.56 4125 6070.62 4140.47Z" fill="#00B0F0"/><path d="M5439.78 2486.84 5585.88 2486.84 5585.88 2497.16 5439.78 2497.16ZM5444.94 2507.47 5414 2492 5444.94 2476.53Z" fill="#00B0F0"/><path d="M5439.78 3346.84 5499.94 3346.84 5499.94 3357.16 5439.78 3357.16ZM5444.94 3367.47 5414 3352 5444.94 3336.53Z" fill="#00B0F0"/><path d="M5505.16 3352 5505.16 4615.28 5494.84 4615.28 5494.84 3352ZM5515.47 4610.12 5500 4641.06 5484.53 4610.12Z" fill="#00B0F0"/><path d="M5677.16 1805 5677.16 4615.16 5666.84 4615.16 5666.84 1805ZM5687.47 4610 5672 4640.94 5656.53 4610Z" fill="#00B0F0"/><path d="M5591.16 2492 5591.16 4614.66 5580.84 4614.66 5580.84 2492ZM5601.47 4609.5 5586 4640.44 5570.53 4609.5Z" fill="#00B0F0"/><path d="M1624 1971.84 2466.69 1971.84 2466.69 1982.16 1624 1982.16ZM2461.54 1961.53 2492.47 1977 2461.54 1992.47Z" fill="#00B0F0"/><path d="M1547 2057.84 2466.53 2057.84 2466.53 2068.16 1547 2068.16ZM2461.38 2047.53 2492.31 2063 2461.38 2078.47Z" fill="#00B0F0"/><path d="M0 0 4812.5 0.000360892" stroke="#00B0F0" stroke-width="10.3125" stroke-miterlimit="8" fill="none" fill-rule="evenodd" transform="matrix(-1 0 0 1 6531.5 859)"/><path d="M6102.5 3510.5 6326.5 3510.5 6326.5 3623.83 6303.83 3646.5 6102.5 3646.5Z" fill="#6D6DFF" fill-rule="evenodd"/><path d="M6303.83 3646.5 6308.37 3628.37 6326.5 3623.83Z" fill="#5858CD" fill-rule="evenodd"/><path d="M6303.83 3646.5 6308.37 3628.37 6326.5 3623.83 6303.83 3646.5 6102.5 3646.5 6102.5 3510.5 6326.5 3510.5 6326.5 3623.83" stroke="#00B050" stroke-width="6.875" stroke-miterlimit="8" fill="none" fill-rule="evenodd"/><g><text fill="#FFFFFF" font-family="Calibri,Calibri_MSFontService,sans-serif" font-weight="400" font-size="50" transform="matrix(1 0 0 1 6176.75 3584)">jpeg</text></g><path d="M6129.5 3536.5 6354.5 3536.5 6354.5 3649.83 6331.83 3672.5 6129.5 3672.5Z" fill="#6D6DFF" fill-rule="evenodd"/><path d="M6331.83 3672.5 6336.37 3654.37 6354.5 3649.83Z" fill="#5858CD" fill-rule="evenodd"/><path d="M6331.83 3672.5 6336.37 3654.37 6354.5 3649.83 6331.83 3672.5 6129.5 3672.5 6129.5 3536.5 6354.5 3536.5 6354.5 3649.83" stroke="#00B050" stroke-width="6.875" stroke-miterlimit="8" fill="none" fill-rule="evenodd"/><g><text fill="#FFFFFF" font-family="Calibri,Calibri_MSFontService,sans-serif" font-weight="400" font-size="50" transform="matrix(1 0 0 1 6204.51 3610)">jpeg</text></g><path d="M6157.5 3565.5 6382.5 3565.5 6382.5 3679.67 6359.67 3702.5 6157.5 3702.5Z" fill="#6D6DFF" fill-rule="evenodd"/><path d="M6359.67 3702.5 6364.23 3684.23 6382.5 3679.67Z" fill="#5858CD" fill-rule="evenodd"/><path d="M6359.67 3702.5 6364.23 3684.23 6382.5 3679.67 6359.67 3702.5 6157.5 3702.5 6157.5 3565.5 6382.5 3565.5 6382.5 3679.67" stroke="#00B050" stroke-width="6.875" stroke-miterlimit="8" fill="none" fill-rule="evenodd"/><g><text fill="#FFFFFF" font-family="Calibri,Calibri_MSFontService,sans-serif" font-weight="400" font-size="50" transform="matrix(1 0 0 1 6232.28 3639)">jpeg</text></g><path d="M6185.5 3593.5 6410.5 3593.5 6410.5 3707.67 6387.67 3730.5 6185.5 3730.5Z" fill="#6D6DFF" fill-rule="evenodd"/><path d="M6387.67 3730.5 6392.23 3712.23 6410.5 3707.67Z" fill="#5858CD" fill-rule="evenodd"/><path d="M6387.67 3730.5 6392.23 3712.23 6410.5 3707.67 6387.67 3730.5 6185.5 3730.5 6185.5 3593.5 6410.5 3593.5 6410.5 3707.67" stroke="#00B050" stroke-width="6.875" stroke-miterlimit="8" fill="none" fill-rule="evenodd"/><g><text fill="#FFFFFF" font-family="Calibri,Calibri_MSFontService,sans-serif" font-weight="400" font-size="50" transform="matrix(1 0 0 1 6260.04 3667)">jpeg</text></g><path d="M6102.5 3781.5 6326.5 3781.5 6326.5 3894 6304 3916.5 6102.5 3916.5Z" fill="#3737FF" fill-rule="evenodd"/><path d="M6304 3916.5 6308.5 3898.5 6326.5 3894Z" fill="#2C2CCD" fill-rule="evenodd"/><path d="M6304 3916.5 6308.5 3898.5 6326.5 3894 6304 3916.5 6102.5 3916.5 6102.5 3781.5 6326.5 3781.5 6326.5 3894" stroke="#00B050" stroke-width="6.875" stroke-miterlimit="8" fill="none" fill-rule="evenodd"/><g><text fill="#FFFFFF" font-family="Calibri,Calibri_MSFontService,sans-serif" font-weight="400" font-size="50" transform="matrix(1 0 0 1 6176.75 3855)">jpeg</text></g><path d="M6129.5 3809.5 6354.5 3809.5 6354.5 3922 6332 3944.5 6129.5 3944.5Z" fill="#3737FF" fill-rule="evenodd"/><path d="M6332 3944.5 6336.5 3926.5 6354.5 3922Z" fill="#2C2CCD" fill-rule="evenodd"/><path d="M6332 3944.5 6336.5 3926.5 6354.5 3922 6332 3944.5 6129.5 3944.5 6129.5 3809.5 6354.5 3809.5 6354.5 3922" stroke="#00B050" stroke-width="6.875" stroke-miterlimit="8" fill="none" fill-rule="evenodd"/><g><text fill="#FFFFFF" font-family="Calibri,Calibri_MSFontService,sans-serif" font-weight="400" font-size="50" transform="matrix(1 0 0 1 6204.51 3882)">jpeg</text></g><path d="M6157.5 3837.5 6382.5 3837.5 6382.5 3950 6360 3972.5 6157.5 3972.5Z" fill="#3737FF" fill-rule="evenodd"/><path d="M6360 3972.5 6364.5 3954.5 6382.5 3950Z" fill="#2C2CCD" fill-rule="evenodd"/><path d="M6360 3972.5 6364.5 3954.5 6382.5 3950 6360 3972.5 6157.5 3972.5 6157.5 3837.5 6382.5 3837.5 6382.5 3950" stroke="#00B050" stroke-width="6.875" stroke-miterlimit="8" fill="none" fill-rule="evenodd"/><g><text fill="#FFFFFF" font-family="Calibri,Calibri_MSFontService,sans-serif" font-weight="400" font-size="50" transform="matrix(1 0 0 1 6232.28 3910)">jpeg</text></g><path d="M6185.5 3865.5 6410.5 3865.5 6410.5 3977.17 6388.17 3999.5 6185.5 3999.5Z" fill="#3737FF" fill-rule="evenodd"/><path d="M6388.17 3999.5 6392.63 3981.63 6410.5 3977.17Z" fill="#2C2CCD" fill-rule="evenodd"/><path d="M6388.17 3999.5 6392.63 3981.63 6410.5 3977.17 6388.17 3999.5 6185.5 3999.5 6185.5 3865.5 6410.5 3865.5 6410.5 3977.17" stroke="#00B050" stroke-width="6.875" stroke-miterlimit="8" fill="none" fill-rule="evenodd"/><g><text fill="#FFFFFF" font-family="Calibri,Calibri_MSFontService,sans-serif" font-weight="400" font-size="50" transform="matrix(1 0 0 1 6260.04 3938)">jpeg</text></g><path d="M0 0 4984.38 0.000360892" stroke="#00B0F0" stroke-width="10.3125" stroke-miterlimit="8" fill="none" fill-rule="evenodd" transform="matrix(-1 0 0 1 6617.38 773)"/><path d="M0 0 5156.25 0.000360892" stroke="#00B0F0" stroke-width="10.3125" stroke-miterlimit="8" fill="none" fill-rule="evenodd" transform="matrix(-1 0 0 1 6703.25 688)"/><path d="M1719 859 1719 1890.25" stroke="#00B0F0" stroke-width="10.3125" stroke-miterlimit="8" fill="none" fill-rule="evenodd"/><path d="M1633 773 1633 1976.13" stroke="#00B0F0" stroke-width="10.3125" stroke-miterlimit="8" fill="none" fill-rule="evenodd"/><path d="M1547 688 1547 2063" stroke="#00B0F0" stroke-width="10.3125" stroke-miterlimit="8" fill="none" fill-rule="evenodd"/><path d="M1461 1373.85 1866.76 1373.85 1866.76 1376.15 1461 1376.15ZM1862.18 1361.25 1889.68 1375 1862.18 1388.75Z" fill="#FFFFFF"/><path d="M6445 1633 6530.94 1633" stroke="#00B0F0" stroke-width="10.3125" stroke-miterlimit="8" fill="none" fill-rule="evenodd"/><path d="M6445 2148 6616.88 2148" stroke="#00B0F0" stroke-width="10.3125" stroke-miterlimit="8" fill="none" fill-rule="evenodd"/><path d="M6445 2836 6702.81 2836" stroke="#00B0F0" stroke-width="10.3125" stroke-miterlimit="8" fill="none" fill-rule="evenodd"/><path d="M6531 859 6531 1632.44" stroke="#00B0F0" stroke-width="10.3125" stroke-miterlimit="8" fill="none" fill-rule="evenodd"/><path d="M6617 773 6617 2148.75" stroke="#00B0F0" stroke-width="10.3125" stroke-miterlimit="8" fill="none" fill-rule="evenodd"/><path d="M6703 688 6703 2836.44" stroke="#00B0F0" stroke-width="10.3125" stroke-miterlimit="8" fill="none" fill-rule="evenodd"/></g></svg>