<svg width="5608" height="4345" xmlns="http://www.w3.org/2000/svg" xmlns:xlink="http://www.w3.org/1999/xlink" xml:space="preserve" overflow="hidden"><g transform="translate(-1135 -783)"><path d="M1837.5 1032.92C1837.5 994.581 1868.58 963.5 1906.92 963.5L6056.08 963.5C6094.42 963.5 6125.5 994.581 6125.5 1032.92L6125.5 4569.08C6125.5 4607.42 6094.42 4638.5 6056.08 4638.5L1906.92 4638.5C1868.58 4638.5 1837.5 4607.42 1837.5 4569.08Z" stroke="#F2F2F2" stroke-width="4.58333" stroke-miterlimit="8" fill="none" fill-rule="evenodd"/><g><text fill="#FFFFFF" font-family="BIZ UDGothic,BIZ UDGothic_MSFontService,sans-serif" font-weight="400" font-size="50" transform="matrix(1 0 0 1 1877.32 1041)">space_balloon.py</text></g><path d="M2373 1074.41C2373 1059.82 2384.82 1048 2399.41 1048L6011.59 1048C6026.18 1048 6038 1059.82 6038 1074.41L6038 4523.59C6038 4538.18 6026.18 4550 6011.59 4550L2399.41 4550C2384.82 4550 2373 4538.18 2373 4523.59Z" stroke="#000000" stroke-width="10.3125" stroke-miterlimit="8" fill="#2F5597" fill-rule="evenodd"/><g><text fill="#FFFFFF" font-family="BIZ UDGothic,BIZ UDGothic_MSFontService,sans-serif" font-weight="400" font-size="50" transform="matrix(1 0 0 1 2400.03 1115)">SensorWrapper</text></g><g><text fill="#FFFFFF" font-family="BIZ UDGothic,BIZ UDGothic_MSFontService,sans-serif" font-weight="400" font-size="50" transform="matrix(1 0 0 1 2727.74 1115)">クラス</text></g><path d="M2447.5 1151.67C2447.5 1143.84 2453.84 1137.5 2461.67 1137.5L3048.33 1137.5C3056.16 1137.5 3062.5 1143.84 3062.5 1151.67L3062.5 1208.33C3062.5 1216.16 3056.16 1222.5 3048.33 1222.5L2461.67 1222.5C2453.84 1222.5 2447.5 1216.16 2447.5 1208.33Z" stroke="#ED7D31" stroke-width="4.58333" stroke-miterlimit="8" stroke-dasharray="18.3333 13.75" fill="#ED7D31" fill-rule="evenodd"/><g><text fill="#FFFFFF" font-family="BIZ UDGothic,BIZ UDGothic_MSFontService,sans-serif" font-weight="400" font-size="50" transform="matrix(1 0 0 1 2471.04 1200)">パラメータ群</text></g><path d="M2443.5 1314.68C2443.5 1301.32 2454.32 1290.5 2467.68 1290.5L5926.32 1290.5C5939.68 1290.5 5950.5 1301.32 5950.5 1314.68L5950.5 4439.32C5950.5 4452.68 5939.68 4463.5 5926.32 4463.5L2467.68 4463.5C2454.32 4463.5 2443.5 4452.68 2443.5 4439.32Z" stroke="#5B9BD5" stroke-width="4.58333" stroke-miterlimit="8" stroke-dasharray="18.3333 13.75" fill="#203864" fill-rule="evenodd"/><g><text fill="#C198E0" font-family="BIZ UDGothic,BIZ UDGothic_MSFontService,sans-serif" font-weight="400" font-size="50" transform="matrix(1 0 0 1 2469.95 1355)">doSensorWrapper</text></g><g><text fill="#C198E0" font-family="BIZ UDGothic,BIZ UDGothic_MSFontService,sans-serif" font-weight="400" font-size="50" transform="matrix(1 0 0 1 2848.08 1355)">関数</text></g><path d="M1925.5 1324.66C1925.5 1319.6 1929.6 1315.5 1934.66 1315.5L2266.34 1315.5C2271.4 1315.5 2275.5 1319.6 2275.5 1324.66L2275.5 1478.34C2275.5 1483.4 2271.4 1487.5 2266.34 1487.5L1934.66 1487.5C1929.6 1487.5 1925.5 1483.4 1925.5 1478.34Z" stroke="#5B9BD5" stroke-width="4.58333" stroke-miterlimit="8" stroke-dasharray="18.3333 13.75" fill="#203864" fill-rule="evenodd"/><g><text fill="#C198E0" font-family="BIZ UDGothic,BIZ UDGothic_MSFontService,sans-serif" font-weight="400" font-size="50" transform="matrix(1 0 0 1 1947.18 1424)">main</text></g><text fill="#C198E0" font-family="BIZ UDGothic,BIZ UDGothic_MSFontService,sans-serif" font-weight="400" font-size="50" transform="matrix(1 0 0 1 2048.01 1424)">関数</text><path d="M2275 1398.85 2427.08 1398.85 2427.08 1401.15 2275 1401.15ZM2422.5 1386.25 2450 1400 2422.5 1413.75Z" fill="#FFFFFF"/><rect x="5425" y="4725" width="525" height="398" stroke="#FF0000" stroke-width="10.3125" stroke-miterlimit="8" fill="#ED7D31"/><g><text fill="#FFFFFF" font-family="BIZ UDGothic,BIZ UDGothic_MSFontService,sans-serif" font-weight="400" font-size="50" transform="matrix(1 0 0 1 5444.49 4783)">センサー群</text></g><g><text fill="#FFFFFF" font-family="BIZ UDGothic,BIZ UDGothic_MSFontService,sans-serif" font-weight="400" font-size="50" transform="matrix(1 0 0 1 5444.49 4848)">・</text></g><text fill="#FFFFFF" font-family="BIZ UDGothic,BIZ UDGothic_MSFontService,sans-serif" font-weight="400" font-size="50" transform="matrix(1 0 0 1 5494.9 4848)">Camera Module</text><g><text fill="#FFFFFF" font-family="BIZ UDGothic,BIZ UDGothic_MSFontService,sans-serif" font-weight="400" font-size="50" transform="matrix(1 0 0 1 5444.49 4914)">・</text></g><text fill="#FFFFFF" font-family="BIZ UDGothic,BIZ UDGothic_MSFontService,sans-serif" font-weight="400" font-size="50" transform="matrix(1 0 0 1 5494.9 4914)">BME280</text><g><text fill="#FFFFFF" font-family="BIZ UDGothic,BIZ UDGothic_MSFontService,sans-serif" font-weight="400" font-size="50" transform="matrix(1 0 0 1 5444.49 4980)">・</text></g><text fill="#FFFFFF" font-family="BIZ UDGothic,BIZ UDGothic_MSFontService,sans-serif" font-weight="400" font-size="50" transform="matrix(1 0 0 1 5494.9 4980)">MPU6050</text><g><text fill="#FFFFFF" font-family="BIZ UDGothic,BIZ UDGothic_MSFontService,sans-serif" font-weight="400" font-size="50" transform="matrix(1 0 0 1 5444.49 5045)">・</text></g><text fill="#FFFFFF" font-family="BIZ UDGothic,BIZ UDGothic_MSFontService,sans-serif" font-weight="400" font-size="50" transform="matrix(1 0 0 1 5494.9 5045)">ICM</text><text fill="#FFFFFF" font-family="BIZ UDGothic,BIZ UDGothic_MSFontService,sans-serif" font-weight="400" font-size="50" transform="matrix(1 0 0 1 5570.53 5045)">-</text><text fill="#FFFFFF" font-family="BIZ UDGothic,BIZ UDGothic_MSFontService,sans-serif" font-weight="400" font-size="50" transform="matrix(1 0 0 1 5595.74 5045)">29048</text><path d="M6213 2013 6557 2013 6557 2305.67 6499.67 2363 6213 2363Z" fill="#A9D18E" fill-rule="evenodd"/><path d="M6499.67 2363 6511.13 2317.13 6557 2305.67Z" fill="#88A872" fill-rule="evenodd"/><path d="M6499.67 2363 6511.13 2317.13 6557 2305.67 6499.67 2363 6213 2363 6213 2013 6557 2013 6557 2305.67" stroke="#385723" stroke-width="10.3125" stroke-miterlimit="8" fill="none" fill-rule="evenodd"/><text fill="#FFFFFF" font-family="Calibri,Calibri_MSFontService,sans-serif" font-weight="400" font-size="50" transform="matrix(1 0 0 1 6359.54 2176)">csv</text><path d="M6213 4113 6546 4113 6546 4331.33 6502.33 4375 6213 4375Z" fill="#0000FF" fill-rule="evenodd"/><path d="M6502.33 4375 6511.07 4340.07 6546 4331.33Z" fill="#0000CD" fill-rule="evenodd"/><path d="M6502.33 4375 6511.07 4340.07 6546 4331.33 6502.33 4375 6213 4375 6213 4113 6546 4113 6546 4331.33" stroke="#00B050" stroke-width="10.3125" stroke-miterlimit="8" fill="none" fill-rule="evenodd"/><text fill="#FFFFFF" font-family="Calibri,Calibri_MSFontService,sans-serif" font-weight="400" font-size="50" transform="matrix(1 0 0 1 6256.65 4178)">H.264 movie</text><text fill="#FFFFFF" font-family="Calibri,Calibri_MSFontService,sans-serif" font-weight="400" font-size="50" transform="matrix(1 0 0 1 6363.81 4240)">or</text><g><text fill="#FFFFFF" font-family="Calibri,Calibri_MSFontService,sans-serif" font-weight="400" font-size="50" transform="matrix(1 0 0 1 6289.81 4301)">MP4 ovie</text></g><path d="M6213.5 1487.5 6563.5 1487.5 6563.5 1779.17 6505.17 1837.5 6213.5 1837.5Z" fill="#0000FF" fill-rule="evenodd"/><path d="M6505.17 1837.5 6516.83 1790.83 6563.5 1779.17Z" fill="#0000CD" fill-rule="evenodd"/><path d="M6505.17 1837.5 6516.83 1790.83 6563.5 1779.17 6505.17 1837.5 6213.5 1837.5 6213.5 1487.5 6563.5 1487.5 6563.5 1779.17" stroke="#0000FF" stroke-width="4.58333" stroke-miterlimit="8" fill="none" fill-rule="evenodd"/><text fill="#FFFFFF" font-family="Calibri,Calibri_MSFontService,sans-serif" font-weight="400" font-size="50" transform="matrix(1 0 0 1 6264.76 1651)">H.264 movie</text><path d="M1758 1919.84 2511.63 1919.84 2511.63 1930.16 1758 1930.16ZM2506.47 1909.53 2537.41 1925 2506.47 1940.47Z" fill="#00B0F0"/><path d="M1137.5 1312.5 1487.5 1312.5 1487.5 1470.83 1455.83 1502.5 1137.5 1502.5Z" fill="#ED7D31" fill-rule="evenodd"/><path d="M1455.83 1502.5 1462.17 1477.17 1487.5 1470.83Z" fill="#BF6427" fill-rule="evenodd"/><path d="M1455.83 1502.5 1462.17 1477.17 1487.5 1470.83 1455.83 1502.5 1137.5 1502.5 1137.5 1312.5 1487.5 1312.5 1487.5 1470.83" stroke="#FFFFFF" stroke-width="4.58333" stroke-miterlimit="8" fill="none" fill-rule="evenodd"/><g><text fill="#FFFFFF" font-family="Yu Gothic,Yu Gothic_MSFontService,sans-serif" font-weight="400" font-size="50" transform="matrix(1 0 0 1 1150.49 1372)">オプション</text></g><path d="M2535.5 1501.67C2535.5 1493.84 2541.84 1487.5 2549.67 1487.5L3138.33 1487.5C3146.16 1487.5 3152.5 1493.84 3152.5 1501.67L3152.5 1558.33C3152.5 1566.16 3146.16 1572.5 3138.33 1572.5L2549.67 1572.5C2541.84 1572.5 2535.5 1566.16 2535.5 1558.33Z" stroke="#5B9BD5" stroke-width="4.58333" stroke-miterlimit="8" stroke-dasharray="18.3333 13.75" fill="#203864" fill-rule="evenodd"/><g><text fill="#C198E0" font-family="BIZ UDGothic,BIZ UDGothic_MSFontService,sans-serif" font-weight="400" font-size="50" transform="matrix(1 0 0 1 2558.54 1552)">__read_args</text></g><g><text fill="#C198E0" font-family="BIZ UDGothic,BIZ UDGothic_MSFontService,sans-serif" font-weight="400" font-size="50" transform="matrix(1 0 0 1 2835.83 1552)">関数</text></g><path d="M4289.5 1424.71C4289.5 1411.34 4300.34 1400.5 4313.71 1400.5L5839.29 1400.5C5852.66 1400.5 5863.5 1411.34 5863.5 1424.71L5863.5 2861.29C5863.5 2874.66 5852.66 2885.5 5839.29 2885.5L4313.71 2885.5C4300.34 2885.5 4289.5 2874.66 4289.5 2861.29Z" stroke="#5B9BD5" stroke-width="4.58333" stroke-miterlimit="8" stroke-dasharray="18.3333 13.75" fill="#203864" fill-rule="evenodd"/><g><text fill="#C198E0" font-family="BIZ UDGothic,BIZ UDGothic_MSFontService,sans-serif" font-weight="400" font-size="50" transform="matrix(1 0 0 1 4315.09 1466)">__setup_sensors</text></g><g><text fill="#C198E0" font-family="BIZ UDGothic,BIZ UDGothic_MSFontService,sans-serif" font-weight="400" font-size="50" transform="matrix(1 0 0 1 4693.21 1466)">関数</text></g><path d="M3500.5 1508.5C3500.5 1500.77 3506.77 1494.5 3514.5 1494.5L4102.5 1494.5C4110.23 1494.5 4116.5 1500.77 4116.5 1508.5L4116.5 1564.5C4116.5 1572.23 4110.23 1578.5 4102.5 1578.5L3514.5 1578.5C3506.77 1578.5 3500.5 1572.23 3500.5 1564.5Z" stroke="#5B9BD5" stroke-width="4.58333" stroke-miterlimit="8" stroke-dasharray="18.3333 13.75" fill="#203864" fill-rule="evenodd"/><g><text fill="#C198E0" font-family="BIZ UDGothic,BIZ UDGothic_MSFontService,sans-serif" font-weight="400" font-size="50" transform="matrix(1 0 0 1 3523.59 1559)">その他関数</text></g><path d="M4375 1502.52C4375 1493.95 4381.95 1487 4390.52 1487L5497.48 1487C5506.05 1487 5513 1493.95 5513 1502.52L5513 1910.48C5513 1919.05 5506.05 1926 5497.48 1926L4390.52 1926C4381.95 1926 4375 1919.05 4375 1910.48Z" stroke="#000000" stroke-width="10.3125" stroke-miterlimit="8" fill="#2E75B6" fill-rule="evenodd"/><g><text fill="#FFFFFF" font-family="BIZ UDGothic,BIZ UDGothic_MSFontService,sans-serif" font-weight="400" font-size="50" transform="matrix(1 0 0 1 4399.03 1551)">CameraModuleImpl</text></g><g><text fill="#FFFFFF" font-family="BIZ UDGothic,BIZ UDGothic_MSFontService,sans-serif" font-weight="400" font-size="50" transform="matrix(1 0 0 1 4802.36 1551)">クラス</text></g><path d="M4462.5 1596.66C4462.5 1584.97 4471.97 1575.5 4483.66 1575.5L5404.34 1575.5C5416.03 1575.5 5425.5 1584.97 5425.5 1596.66L5425.5 1817.34C5425.5 1829.03 5416.03 1838.5 5404.34 1838.5L4483.66 1838.5C4471.97 1838.5 4462.5 1829.03 4462.5 1817.34Z" stroke="#5B9BD5" stroke-width="4.58333" stroke-miterlimit="8" stroke-dasharray="18.3333 13.75" fill="#203864" fill-rule="evenodd"/><g><text fill="#C198E0" font-family="BIZ UDGothic,BIZ UDGothic_MSFontService,sans-serif" font-weight="400" font-size="50" transform="matrix(1 0 0 1 4488.18 1640)">doCameraModuleImpl</text></g><g><text fill="#C198E0" font-family="BIZ UDGothic,BIZ UDGothic_MSFontService,sans-serif" font-weight="400" font-size="50" transform="matrix(1 0 0 1 4941.93 1640)">関数</text></g><path d="M4553.5 1677.5C4553.5 1669.77 4559.77 1663.5 4567.5 1663.5L5323.5 1663.5C5331.23 1663.5 5337.5 1669.77 5337.5 1677.5L5337.5 1733.5C5337.5 1741.23 5331.23 1747.5 5323.5 1747.5L4567.5 1747.5C4559.77 1747.5 4553.5 1741.23 4553.5 1733.5Z" stroke="#5B9BD5" stroke-width="4.58333" stroke-miterlimit="8" stroke-dasharray="18.3333 13.75" fill="#203864" fill-rule="evenodd"/><g><text fill="#C198E0" font-family="BIZ UDGothic,BIZ UDGothic_MSFontService,sans-serif" font-weight="400" font-size="50" transform="matrix(1 0 0 1 4576.33 1727)">__start_camera_module</text></g><g><text fill="#C198E0" font-family="BIZ UDGothic,BIZ UDGothic_MSFontService,sans-serif" font-weight="400" font-size="50" transform="matrix(1 0 0 1 5105.71 1727)">関数</text></g><path d="M4375 2048.42C4375 2029.41 4390.41 2014 4409.42 2014L5478.58 2014C5497.59 2014 5513 2029.41 5513 2048.42L5513 2590.58C5513 2609.59 5497.59 2625 5478.58 2625L4409.42 2625C4390.41 2625 4375 2609.59 4375 2590.58Z" stroke="#000000" stroke-width="10.3125" stroke-miterlimit="8" fill="#2E75B6" fill-rule="evenodd"/><g><text fill="#FFFFFF" font-family="BIZ UDGothic,BIZ UDGothic_MSFontService,sans-serif" font-weight="400" font-size="50" transform="matrix(1 0 0 1 4404.57 2082)">ICM29048Impl</text></g><g><text fill="#FFFFFF" font-family="BIZ UDGothic,BIZ UDGothic_MSFontService,sans-serif" font-weight="400" font-size="50" transform="matrix(1 0 0 1 4707.07 2082)">クラス</text></g><path d="M4463.5 2105.48C4463.5 2102.73 4465.73 2100.5 4468.48 2100.5L5420.52 2100.5C5423.27 2100.5 5425.5 2102.73 5425.5 2105.48L5425.5 2524.52C5425.5 2527.27 5423.27 2529.5 5420.52 2529.5L4468.48 2529.5C4465.73 2529.5 4463.5 2527.27 4463.5 2524.52Z" stroke="#5B9BD5" stroke-width="4.58333" stroke-miterlimit="8" stroke-dasharray="18.3333 13.75" fill="#203864" fill-rule="evenodd"/><g><text fill="#C198E0" font-family="BIZ UDGothic,BIZ UDGothic_MSFontService,sans-serif" font-weight="400" font-size="50" transform="matrix(1 0 0 1 4483.45 2160)">doGPIO</text></g><g><text fill="#C198E0" font-family="BIZ UDGothic,BIZ UDGothic_MSFontService,sans-serif" font-weight="400" font-size="50" transform="matrix(1 0 0 1 4634.7 2160)">センサ名</text></g><g><text fill="#C198E0" font-family="BIZ UDGothic,BIZ UDGothic_MSFontService,sans-serif" font-weight="400" font-size="50" transform="matrix(1 0 0 1 4836.36 2160)">Impl</text></g><g><text fill="#C198E0" font-family="BIZ UDGothic,BIZ UDGothic_MSFontService,sans-serif" font-weight="400" font-size="50" transform="matrix(1 0 0 1 4937.2 2160)">関数</text></g><path d="M4550.5 2202.33C4550.5 2194.14 4557.14 2187.5 4565.33 2187.5L5323.67 2187.5C5331.86 2187.5 5338.5 2194.14 5338.5 2202.33L5338.5 2261.67C5338.5 2269.86 5331.86 2276.5 5323.67 2276.5L4565.33 2276.5C4557.14 2276.5 4550.5 2269.86 4550.5 2261.67Z" stroke="#5B9BD5" stroke-width="4.58333" stroke-miterlimit="8" stroke-dasharray="18.3333 13.75" fill="#203864" fill-rule="evenodd"/><g><text fill="#C198E0" font-family="BIZ UDGothic,BIZ UDGothic_MSFontService,sans-serif" font-weight="400" font-size="50" transform="matrix(1 0 0 1 4573.82 2254)">__read_sensor</text></g><g><text fill="#C198E0" font-family="BIZ UDGothic,BIZ UDGothic_MSFontService,sans-serif" font-weight="400" font-size="50" transform="matrix(1 0 0 1 4901.53 2254)">関数</text></g><path d="M4550.5 2377.33C4550.5 2369.14 4557.14 2362.5 4565.33 2362.5L5323.67 2362.5C5331.86 2362.5 5338.5 2369.14 5338.5 2377.33L5338.5 2436.67C5338.5 2444.86 5331.86 2451.5 5323.67 2451.5L4565.33 2451.5C4557.14 2451.5 4550.5 2444.86 4550.5 2436.67Z" stroke="#5B9BD5" stroke-width="4.58333" stroke-miterlimit="8" stroke-dasharray="18.3333 13.75" fill="#203864" fill-rule="evenodd"/><g><text fill="#C198E0" font-family="BIZ UDGothic,BIZ UDGothic_MSFontService,sans-serif" font-weight="400" font-size="50" transform="matrix(1 0 0 1 4573.82 2429)">__output_csv</text></g><g><text fill="#C198E0" font-family="BIZ UDGothic,BIZ UDGothic_MSFontService,sans-serif" font-weight="400" font-size="50" transform="matrix(1 0 0 1 4876.32 2429)">関数</text></g><path d="M2538 1703.65C2538 1680.65 2556.65 1662 2579.65 1662L4158.35 1662C4181.35 1662 4200 1680.65 4200 1703.65L4200 4333.35C4200 4356.35 4181.35 4375 4158.35 4375L2579.65 4375C2556.65 4375 2538 4356.35 2538 4333.35Z" stroke="#000000" stroke-width="10.3125" stroke-miterlimit="8" fill="#1F4E79" fill-rule="evenodd"/><g><text fill="#FFFFFF" font-family="BIZ UDGothic,BIZ UDGothic_MSFontService,sans-serif" font-weight="400" font-size="50" transform="matrix(1 0 0 1 2569.19 1733)">SensorAnalyzerImpl</text></g><g><text fill="#FFFFFF" font-family="BIZ UDGothic,BIZ UDGothic_MSFontService,sans-serif" font-weight="400" font-size="50" transform="matrix(1 0 0 1 3022.94 1733)">クラス</text></g><path d="M2625.5 1880.18C2625.5 1857.16 2644.16 1838.5 2667.18 1838.5L4070.82 1838.5C4093.84 1838.5 4112.5 1857.16 4112.5 1880.18L4112.5 4246.82C4112.5 4269.84 4093.84 4288.5 4070.82 4288.5L2667.18 4288.5C2644.16 4288.5 2625.5 4269.84 2625.5 4246.82Z" stroke="#5B9BD5" stroke-width="4.58333" stroke-miterlimit="8" stroke-dasharray="18.3333 13.75" fill="#203864" fill-rule="evenodd"/><g><text fill="#C198E0" font-family="BIZ UDGothic,BIZ UDGothic_MSFontService,sans-serif" font-weight="400" font-size="50" transform="matrix(1 0 0 1 2656.7 1908)">doSensorAnalyzerImplImpl</text></g><g><text fill="#C198E0" font-family="BIZ UDGothic,BIZ UDGothic_MSFontService,sans-serif" font-weight="400" font-size="50" transform="matrix(1 0 0 1 3261.7 1908)">関数</text></g><path d="M2707.5 3777.33C2707.5 3769.14 2714.14 3762.5 2722.33 3762.5L3924.67 3762.5C3932.86 3762.5 3939.5 3769.14 3939.5 3777.33L3939.5 3836.67C3939.5 3844.86 3932.86 3851.5 3924.67 3851.5L2722.33 3851.5C2714.14 3851.5 2707.5 3844.86 2707.5 3836.67Z" stroke="#5B9BD5" stroke-width="4.58333" stroke-miterlimit="8" stroke-dasharray="18.3333 13.75" fill="#203864" fill-rule="evenodd"/><g><text fill="#C198E0" font-family="BIZ UDGothic,BIZ UDGothic_MSFontService,sans-serif" font-weight="400" font-size="50" transform="matrix(1 0 0 1 2731.26 3829)">__output_to_excel</text></g><g><text fill="#C198E0" font-family="BIZ UDGothic,BIZ UDGothic_MSFontService,sans-serif" font-weight="400" font-size="50" transform="matrix(1 0 0 1 3159.8 3829)">関数</text></g><path d="M2713.5 2017.37C2713.5 2014.68 2715.68 2012.5 2718.37 2012.5L3933.63 2012.5C3936.32 2012.5 3938.5 2014.68 3938.5 2017.37L3938.5 2620.63C3938.5 2623.32 3936.32 2625.5 3933.63 2625.5L2718.37 2625.5C2715.68 2625.5 2713.5 2623.32 2713.5 2620.63Z" stroke="#5B9BD5" stroke-width="4.58333" stroke-miterlimit="8" stroke-dasharray="18.3333 13.75" fill="#203864" fill-rule="evenodd"/><g><text fill="#C198E0" font-family="BIZ UDGothic,BIZ UDGothic_MSFontService,sans-serif" font-weight="400" font-size="50" transform="matrix(1 0 0 1 2733.41 2072)">__generate_alititude_csv</text></g><g><text fill="#C198E0" font-family="BIZ UDGothic,BIZ UDGothic_MSFontService,sans-serif" font-weight="400" font-size="50" transform="matrix(1 0 0 1 3338.41 2072)">関数</text></g><path d="M2800.5 2206.06C2800.5 2195.81 2808.81 2187.5 2819.06 2187.5L3831.94 2187.5C3842.19 2187.5 3850.5 2195.81 3850.5 2206.06L3850.5 2518.94C3850.5 2529.19 3842.19 2537.5 3831.94 2537.5L2819.06 2537.5C2808.81 2537.5 2800.5 2529.19 2800.5 2518.94Z" stroke="#5B9BD5" stroke-width="4.58333" stroke-miterlimit="8" stroke-dasharray="18.3333 13.75" fill="#203864" fill-rule="evenodd"/><g><text fill="#C198E0" font-family="BIZ UDGothic,BIZ UDGothic_MSFontService,sans-serif" font-weight="400" font-size="50" transform="matrix(1 0 0 1 2824.92 2251)">__calculate_altitude</text></g><g><text fill="#C198E0" font-family="BIZ UDGothic,BIZ UDGothic_MSFontService,sans-serif" font-weight="400" font-size="50" transform="matrix(1 0 0 1 3329.09 2251)">関数</text></g><path d="M2891.5 2376.33C2891.5 2368.14 2898.14 2361.5 2906.33 2361.5L3748.67 2361.5C3756.86 2361.5 3763.5 2368.14 3763.5 2376.33L3763.5 2435.67C3763.5 2443.86 3756.86 2450.5 3748.67 2450.5L2906.33 2450.5C2898.14 2450.5 2891.5 2443.86 2891.5 2435.67Z" stroke="#5B9BD5" stroke-width="4.58333" stroke-miterlimit="8" stroke-dasharray="18.3333 13.75" fill="#203864" fill-rule="evenodd"/><g><text fill="#C198E0" font-family="BIZ UDGothic,BIZ UDGothic_MSFontService,sans-serif" font-weight="400" font-size="50" transform="matrix(1 0 0 1 2914.72 2428)">__virtual_temperature</text></g><g><text fill="#C198E0" font-family="BIZ UDGothic,BIZ UDGothic_MSFontService,sans-serif" font-weight="400" font-size="50" transform="matrix(1 0 0 1 3444.1 2428)">関数</text></g><path d="M2707.5 3953.17C2707.5 3945.07 2714.07 3938.5 2722.17 3938.5L3922.83 3938.5C3930.93 3938.5 3937.5 3945.07 3937.5 3953.17L3937.5 4011.83C3937.5 4019.93 3930.93 4026.5 3922.83 4026.5L2722.17 4026.5C2714.07 4026.5 2707.5 4019.93 2707.5 4011.83Z" stroke="#5B9BD5" stroke-width="4.58333" stroke-miterlimit="8" stroke-dasharray="18.3333 13.75" fill="#203864" fill-rule="evenodd"/><g><text fill="#C198E0" font-family="BIZ UDGothic,BIZ UDGothic_MSFontService,sans-serif" font-weight="400" font-size="50" transform="matrix(1 0 0 1 2731.26 4004)">__conver_h264_to_mp4</text></g><g><text fill="#C198E0" font-family="BIZ UDGothic,BIZ UDGothic_MSFontService,sans-serif" font-weight="400" font-size="50" transform="matrix(1 0 0 1 3235.43 4004)">関数</text></g><path d="M2713.5 2728C2713.5 2719.44 2720.44 2712.5 2729 2712.5L3923 2712.5C3931.56 2712.5 3938.5 2719.44 3938.5 2728L3938.5 3660C3938.5 3668.56 3931.56 3675.5 3923 3675.5L2729 3675.5C2720.44 3675.5 2713.5 3668.56 2713.5 3660Z" stroke="#5B9BD5" stroke-width="4.58333" stroke-miterlimit="8" stroke-dasharray="18.3333 13.75" fill="#203864" fill-rule="evenodd"/><g><text fill="#C198E0" font-family="BIZ UDGothic,BIZ UDGothic_MSFontService,sans-serif" font-weight="400" font-size="50" transform="matrix(1 0 0 1 2736.53 2776)">__analyse_frame_sync</text></g><g><text fill="#C198E0" font-family="BIZ UDGothic,BIZ UDGothic_MSFontService,sans-serif" font-weight="400" font-size="50" transform="matrix(1 0 0 1 3240.69 2776)">関数</text></g><path d="M2797.5 2908.78C2797.5 2897.58 2806.58 2888.5 2817.78 2888.5L3830.22 2888.5C3841.42 2888.5 3850.5 2897.58 3850.5 2908.78L3850.5 3568.22C3850.5 3579.42 3841.42 3588.5 3830.22 3588.5L2817.78 3588.5C2806.58 3588.5 2797.5 3579.42 2797.5 3568.22Z" stroke="#5B9BD5" stroke-width="4.58333" stroke-miterlimit="8" stroke-dasharray="18.3333 13.75" fill="#203864" fill-rule="evenodd"/><g><text fill="#C198E0" font-family="BIZ UDGothic,BIZ UDGothic_MSFontService,sans-serif" font-weight="400" font-size="50" transform="matrix(1 0 0 1 2822.02 2952)">__movie_gen</text></g><g><text fill="#C198E0" font-family="BIZ UDGothic,BIZ UDGothic_MSFontService,sans-serif" font-weight="400" font-size="50" transform="matrix(1 0 0 1 3099.32 2952)">関数</text></g><path d="M2888.5 3078.17C2888.5 3070.07 2895.07 3063.5 2903.17 3063.5L3750.83 3063.5C3758.93 3063.5 3765.5 3070.07 3765.5 3078.17L3765.5 3136.83C3765.5 3144.93 3758.93 3151.5 3750.83 3151.5L2903.17 3151.5C2895.07 3151.5 2888.5 3144.93 2888.5 3136.83Z" stroke="#5B9BD5" stroke-width="4.58333" stroke-miterlimit="8" stroke-dasharray="18.3333 13.75" fill="#203864" fill-rule="evenodd"/><g><text fill="#C198E0" font-family="BIZ UDGothic,BIZ UDGothic_MSFontService,sans-serif" font-weight="400" font-size="50" transform="matrix(1 0 0 1 2911.31 3129)">__separation_h264_to_jpeg</text></g><g><text fill="#C198E0" font-family="BIZ UDGothic,BIZ UDGothic_MSFontService,sans-serif" font-weight="400" font-size="50" transform="matrix(1 0 0 1 3541.52 3129)">関数</text></g><path d="M2888.5 3251.17C2888.5 3243.07 2895.07 3236.5 2903.17 3236.5L3750.83 3236.5C3758.93 3236.5 3765.5 3243.07 3765.5 3251.17L3765.5 3309.83C3765.5 3317.93 3758.93 3324.5 3750.83 3324.5L2903.17 3324.5C2895.07 3324.5 2888.5 3317.93 2888.5 3309.83Z" stroke="#5B9BD5" stroke-width="4.58333" stroke-miterlimit="8" stroke-dasharray="18.3333 13.75" fill="#203864" fill-rule="evenodd"/><g><text fill="#C198E0" font-family="BIZ UDGothic,BIZ UDGothic_MSFontService,sans-serif" font-weight="400" font-size="50" transform="matrix(1 0 0 1 2911.31 3302)">__add_sensor_frame</text></g><g><text fill="#C198E0" font-family="BIZ UDGothic,BIZ UDGothic_MSFontService,sans-serif" font-weight="400" font-size="50" transform="matrix(1 0 0 1 3365.06 3302)">関数</text></g><path d="M2888.5 3426.33C2888.5 3418.14 2895.14 3411.5 2903.33 3411.5L3750.67 3411.5C3758.86 3411.5 3765.5 3418.14 3765.5 3426.33L3765.5 3485.67C3765.5 3493.86 3758.86 3500.5 3750.67 3500.5L2903.33 3500.5C2895.14 3500.5 2888.5 3493.86 2888.5 3485.67Z" stroke="#5B9BD5" stroke-width="4.58333" stroke-miterlimit="8" stroke-dasharray="18.3333 13.75" fill="#203864" fill-rule="evenodd"/><g><text fill="#C198E0" font-family="BIZ UDGothic,BIZ UDGothic_MSFontService,sans-serif" font-weight="400" font-size="50" transform="matrix(1 0 0 1 2911.31 3478)">__merge_jpeg_to_h264</text></g><g><text fill="#C198E0" font-family="BIZ UDGothic,BIZ UDGothic_MSFontService,sans-serif" font-weight="400" font-size="50" transform="matrix(1 0 0 1 3415.47 3478)">関数</text></g><path d="M2713.5 4125.67C2713.5 4117.29 2720.29 4110.5 2728.67 4110.5L3922.33 4110.5C3930.71 4110.5 3937.5 4117.29 3937.5 4125.67L3937.5 4186.33C3937.5 4194.71 3930.71 4201.5 3922.33 4201.5L2728.67 4201.5C2720.29 4201.5 2713.5 4194.71 2713.5 4186.33Z" stroke="#5B9BD5" stroke-width="4.58333" stroke-miterlimit="8" stroke-dasharray="18.3333 13.75" fill="#203864" fill-rule="evenodd"/><g><text fill="#C198E0" font-family="BIZ UDGothic,BIZ UDGothic_MSFontService,sans-serif" font-weight="400" font-size="50" transform="matrix(1 0 0 1 2736.44 4178)">その他関数</text></g><path d="M4225.78 3669.84 6186.72 3669.84 6186.72 3680.16 4225.78 3680.16ZM4230.94 3690.47 4200 3675 4230.94 3659.53ZM6181.56 3659.53 6212.5 3675 6181.56 3690.47Z" fill="#00B0F0"/><path d="M5512 1656.84 6186.22 1656.84 6186.22 1667.16 5512 1667.16ZM6181.06 1646.53 6212 1662 6181.06 1677.47Z" fill="#00B0F0"/><path d="M5512 2269.84 6186.22 2269.84 6186.22 2280.16 5512 2280.16ZM6181.06 2259.53 6212 2275 6181.06 2290.47Z" fill="#00B0F0"/><path d="M4225.78 3932.84 6186.72 3932.84 6186.72 3943.16 4225.78 3943.16ZM4230.94 3953.47 4200 3938 4230.94 3922.53ZM6181.56 3922.53 6212.5 3938 6181.56 3953.47Z" fill="#00B0F0"/><path d="M5538.78 1831.84 5775.5 1831.84 5775.5 1842.16 5538.78 1842.16ZM5543.94 1852.47 5513 1837 5543.94 1821.53Z" fill="#00B0F0"/><path d="M4200 4194.84 6186.72 4194.84 6186.72 4205.16 4200 4205.16ZM6181.56 4184.53 6212.5 4200 6181.56 4215.47Z" fill="#00B0F0"/><path d="M5537.78 2532.84 5687 2532.84 5687 2543.16 5537.78 2543.16ZM5542.94 2553.47 5512 2538 5542.94 2522.53Z" fill="#00B0F0"/><path d="M5780.16 1837 5780.16 4698.72 5769.84 4698.72 5769.84 1837ZM5790.47 4693.56 5775 4724.5 5759.53 4693.56Z" fill="#00B0F0"/><path d="M5692.16 2538 5692.16 4699.72 5681.84 4699.72 5681.84 2538ZM5702.47 4694.56 5687 4725.5 5671.53 4694.56Z" fill="#00B0F0"/><path d="M1652 2007.84 2511.88 2007.84 2511.88 2018.16 1652 2018.16ZM2506.72 1997.53 2537.66 2013 2506.72 2028.47Z" fill="#00B0F0"/><path d="M0 0 4900 0.000360892" stroke="#00B0F0" stroke-width="10.3125" stroke-miterlimit="8" fill="none" fill-rule="evenodd" transform="matrix(-1 0 0 1 6650 875)"/><path d="M6213.5 3572.5 6441.5 3572.5 6441.5 3689.17 6418.17 3712.5 6213.5 3712.5Z" fill="#6D6DFF" fill-rule="evenodd"/><path d="M6418.17 3712.5 6422.83 3693.83 6441.5 3689.17Z" fill="#5858CD" fill-rule="evenodd"/><path d="M6418.17 3712.5 6422.83 3693.83 6441.5 3689.17 6418.17 3712.5 6213.5 3712.5 6213.5 3572.5 6441.5 3572.5 6441.5 3689.17" stroke="#00B050" stroke-width="6.875" stroke-miterlimit="8" fill="none" fill-rule="evenodd"/><g><text fill="#FFFFFF" font-family="Calibri,Calibri_MSFontService,sans-serif" font-weight="400" font-size="50" transform="matrix(1 0 0 1 6289.39 3648)">jpeg</text></g><path d="M6241.5 3599.5 6469.5 3599.5 6469.5 3715.33 6446.33 3738.5 6241.5 3738.5Z" fill="#6D6DFF" fill-rule="evenodd"/><path d="M6446.33 3738.5 6450.97 3719.97 6469.5 3715.33Z" fill="#5858CD" fill-rule="evenodd"/><path d="M6446.33 3738.5 6450.97 3719.97 6469.5 3715.33 6446.33 3738.5 6241.5 3738.5 6241.5 3599.5 6469.5 3599.5 6469.5 3715.33" stroke="#00B050" stroke-width="6.875" stroke-miterlimit="8" fill="none" fill-rule="evenodd"/><g><text fill="#FFFFFF" font-family="Calibri,Calibri_MSFontService,sans-serif" font-weight="400" font-size="50" transform="matrix(1 0 0 1 6317.58 3674)">jpeg</text></g><path d="M6269.5 3629.5 6497.5 3629.5 6497.5 3746.17 6474.17 3769.5 6269.5 3769.5Z" fill="#6D6DFF" fill-rule="evenodd"/><path d="M6474.17 3769.5 6478.83 3750.83 6497.5 3746.17Z" fill="#5858CD" fill-rule="evenodd"/><path d="M6474.17 3769.5 6478.83 3750.83 6497.5 3746.17 6474.17 3769.5 6269.5 3769.5 6269.5 3629.5 6497.5 3629.5 6497.5 3746.17" stroke="#00B050" stroke-width="6.875" stroke-miterlimit="8" fill="none" fill-rule="evenodd"/><g><text fill="#FFFFFF" font-family="Calibri,Calibri_MSFontService,sans-serif" font-weight="400" font-size="50" transform="matrix(1 0 0 1 6345.77 3704)">jpeg</text></g><path d="M6297.5 3657.5 6525.5 3657.5 6525.5 3774.17 6502.17 3797.5 6297.5 3797.5Z" fill="#6D6DFF" fill-rule="evenodd"/><path d="M6502.17 3797.5 6506.83 3778.83 6525.5 3774.17Z" fill="#5858CD" fill-rule="evenodd"/><path d="M6502.17 3797.5 6506.83 3778.83 6525.5 3774.17 6502.17 3797.5 6297.5 3797.5 6297.5 3657.5 6525.5 3657.5 6525.5 3774.17" stroke="#00B050" stroke-width="6.875" stroke-miterlimit="8" fill="none" fill-rule="evenodd"/><g><text fill="#FFFFFF" font-family="Calibri,Calibri_MSFontService,sans-serif" font-weight="400" font-size="50" transform="matrix(1 0 0 1 6373.96 3733)">jpeg</text></g><path d="M6213.5 3850.5 6441.5 3850.5 6441.5 3964.67 6418.67 3987.5 6213.5 3987.5Z" fill="#3737FF" fill-rule="evenodd"/><path d="M6418.67 3987.5 6423.23 3969.23 6441.5 3964.67Z" fill="#2C2CCD" fill-rule="evenodd"/><path d="M6418.67 3987.5 6423.23 3969.23 6441.5 3964.67 6418.67 3987.5 6213.5 3987.5 6213.5 3850.5 6441.5 3850.5 6441.5 3964.67" stroke="#00B050" stroke-width="6.875" stroke-miterlimit="8" fill="none" fill-rule="evenodd"/><g><text fill="#FFFFFF" font-family="Calibri,Calibri_MSFontService,sans-serif" font-weight="400" font-size="50" transform="matrix(1 0 0 1 6289.39 3924)">jpeg</text></g><path d="M6241.5 3878.5 6469.5 3878.5 6469.5 3992.67 6446.67 4015.5 6241.5 4015.5Z" fill="#3737FF" fill-rule="evenodd"/><path d="M6446.67 4015.5 6451.23 3997.23 6469.5 3992.67Z" fill="#2C2CCD" fill-rule="evenodd"/><path d="M6446.67 4015.5 6451.23 3997.23 6469.5 3992.67 6446.67 4015.5 6241.5 4015.5 6241.5 3878.5 6469.5 3878.5 6469.5 3992.67" stroke="#00B050" stroke-width="6.875" stroke-miterlimit="8" fill="none" fill-rule="evenodd"/><g><text fill="#FFFFFF" font-family="Calibri,Calibri_MSFontService,sans-serif" font-weight="400" font-size="50" transform="matrix(1 0 0 1 6317.58 3952)">jpeg</text></g><path d="M6269.5 3906.5 6497.5 3906.5 6497.5 4020.67 6474.67 4043.5 6269.5 4043.5Z" fill="#3737FF" fill-rule="evenodd"/><path d="M6474.67 4043.5 6479.23 4025.23 6497.5 4020.67Z" fill="#2C2CCD" fill-rule="evenodd"/><path d="M6474.67 4043.5 6479.23 4025.23 6497.5 4020.67 6474.67 4043.5 6269.5 4043.5 6269.5 3906.5 6497.5 3906.5 6497.5 4020.67" stroke="#00B050" stroke-width="6.875" stroke-miterlimit="8" fill="none" fill-rule="evenodd"/><g><text fill="#FFFFFF" font-family="Calibri,Calibri_MSFontService,sans-serif" font-weight="400" font-size="50" transform="matrix(1 0 0 1 6345.77 3981)">jpeg</text></g><path d="M6297.5 3934.5 6525.5 3934.5 6525.5 4048.67 6502.67 4071.5 6297.5 4071.5Z" fill="#3737FF" fill-rule="evenodd"/><path d="M6502.67 4071.5 6507.23 4053.23 6525.5 4048.67Z" fill="#2C2CCD" fill-rule="evenodd"/><path d="M6502.67 4071.5 6507.23 4053.23 6525.5 4048.67 6502.67 4071.5 6297.5 4071.5 6297.5 3934.5 6525.5 3934.5 6525.5 4048.67" stroke="#00B050" stroke-width="6.875" stroke-miterlimit="8" fill="none" fill-rule="evenodd"/><g><text fill="#FFFFFF" font-family="Calibri,Calibri_MSFontService,sans-serif" font-weight="400" font-size="50" transform="matrix(1 0 0 1 6373.96 4009)">jpeg</text></g><path d="M0 0 5075 0.000360892" stroke="#00B0F0" stroke-width="10.3125" stroke-miterlimit="8" fill="none" fill-rule="evenodd" transform="matrix(-1 0 0 1 6737 788)"/><path d="M1750 875 1750 1925" stroke="#00B0F0" stroke-width="10.3125" stroke-miterlimit="8" fill="none" fill-rule="evenodd"/><path d="M1662 788 1662 2013" stroke="#00B0F0" stroke-width="10.3125" stroke-miterlimit="8" fill="none" fill-rule="evenodd"/><path d="M1487 1398.85 1899.01 1398.85 1899.01 1401.15 1487 1401.15ZM1894.43 1386.25 1921.93 1400 1894.43 1413.75Z" fill="#FFFFFF"/><path d="M6563 1662 6650.5 1662" stroke="#00B0F0" stroke-width="10.3125" stroke-miterlimit="8" fill="none" fill-rule="evenodd"/><path d="M6563 2188 6738 2188" stroke="#00B0F0" stroke-width="10.3125" stroke-miterlimit="8" fill="none" fill-rule="evenodd"/><path d="M6650 875 6650 1662.5" stroke="#00B0F0" stroke-width="10.3125" stroke-miterlimit="8" fill="none" fill-rule="evenodd"/><path d="M6738 788 6738 2188.75" stroke="#00B0F0" stroke-width="10.3125" stroke-miterlimit="8" fill="none" fill-rule="evenodd"/><path d="M6254 2085 6600 2085 6600 2377.33 6542.33 2435 6254 2435Z" fill="#A9D18E" fill-rule="evenodd"/><path d="M6542.33 2435 6553.87 2388.87 6600 2377.33Z" fill="#88A872" fill-rule="evenodd"/><path d="M6542.33 2435 6553.87 2388.87 6600 2377.33 6542.33 2435 6254 2435 6254 2085 6600 2085 6600 2377.33" stroke="#385723" stroke-width="10.3125" stroke-miterlimit="8" fill="none" fill-rule="evenodd"/><text fill="#FFFFFF" font-family="Calibri,Calibri_MSFontService,sans-serif" font-weight="400" font-size="50" transform="matrix(1 0 0 1 6401.57 2248)">csv</text><path d="M6310 2155 6657 2155 6657 2447.17 6599.17 2505 6310 2505Z" fill="#A9D18E" fill-rule="evenodd"/><path d="M6599.17 2505 6610.73 2458.73 6657 2447.17Z" fill="#88A872" fill-rule="evenodd"/><path d="M6599.17 2505 6610.73 2458.73 6657 2447.17 6599.17 2505 6310 2505 6310 2155 6657 2155 6657 2447.17" stroke="#385723" stroke-width="10.3125" stroke-miterlimit="8" fill="none" fill-rule="evenodd"/><text fill="#FFFFFF" font-family="Calibri,Calibri_MSFontService,sans-serif" font-weight="400" font-size="50" transform="matrix(1 0 0 1 6458.14 2318)">csv</text><path d="M4430 2135.47C4430 2116.43 4445.43 2101 4464.47 2101L5533.53 2101C5552.57 2101 5568 2116.43 5568 2135.47L5568 2678.53C5568 2697.57 5552.57 2713 5533.53 2713L4464.47 2713C4445.43 2713 4430 2697.57 4430 2678.53Z" stroke="#000000" stroke-width="10.3125" stroke-miterlimit="8" fill="#2E75B6" fill-rule="evenodd"/><g><text fill="#FFFFFF" font-family="BIZ UDGothic,BIZ UDGothic_MSFontService,sans-serif" font-weight="400" font-size="50" transform="matrix(1 0 0 1 4459.57 2170)">MPU6050</text></g><g><text fill="#FFFFFF" font-family="BIZ UDGothic,BIZ UDGothic_MSFontService,sans-serif" font-weight="400" font-size="50" transform="matrix(1 0 0 1 4636.03 2170)">名</text></g><g><text fill="#FFFFFF" font-family="BIZ UDGothic,BIZ UDGothic_MSFontService,sans-serif" font-weight="400" font-size="50" transform="matrix(1 0 0 1 4686.45 2170)">Impl</text></g><g><text fill="#FFFFFF" font-family="BIZ UDGothic,BIZ UDGothic_MSFontService,sans-serif" font-weight="400" font-size="50" transform="matrix(1 0 0 1 4787.28 2170)">クラス</text></g><path d="M4518.5 2192.48C4518.5 2189.73 4520.73 2187.5 4523.48 2187.5L5475.52 2187.5C5478.27 2187.5 5480.5 2189.73 5480.5 2192.48L5480.5 2611.52C5480.5 2614.27 5478.27 2616.5 5475.52 2616.5L4523.48 2616.5C4520.73 2616.5 4518.5 2614.27 4518.5 2611.52Z" stroke="#5B9BD5" stroke-width="4.58333" stroke-miterlimit="8" stroke-dasharray="18.3333 13.75" fill="#203864" fill-rule="evenodd"/><g><text fill="#C198E0" font-family="BIZ UDGothic,BIZ UDGothic_MSFontService,sans-serif" font-weight="400" font-size="50" transform="matrix(1 0 0 1 4538.45 2247)">doGPIO</text></g><g><text fill="#C198E0" font-family="BIZ UDGothic,BIZ UDGothic_MSFontService,sans-serif" font-weight="400" font-size="50" transform="matrix(1 0 0 1 4689.7 2247)">センサ名</text></g><g><text fill="#C198E0" font-family="BIZ UDGothic,BIZ UDGothic_MSFontService,sans-serif" font-weight="400" font-size="50" transform="matrix(1 0 0 1 4891.36 2247)">Impl</text></g><g><text fill="#C198E0" font-family="BIZ UDGothic,BIZ UDGothic_MSFontService,sans-serif" font-weight="400" font-size="50" transform="matrix(1 0 0 1 4992.2 2247)">関数</text></g><path d="M4605.5 2290.33C4605.5 2282.14 4612.14 2275.5 4620.33 2275.5L5378.67 2275.5C5386.86 2275.5 5393.5 2282.14 5393.5 2290.33L5393.5 2349.67C5393.5 2357.86 5386.86 2364.5 5378.67 2364.5L4620.33 2364.5C4612.14 2364.5 4605.5 2357.86 4605.5 2349.67Z" stroke="#5B9BD5" stroke-width="4.58333" stroke-miterlimit="8" stroke-dasharray="18.3333 13.75" fill="#203864" fill-rule="evenodd"/><g><text fill="#C198E0" font-family="BIZ UDGothic,BIZ UDGothic_MSFontService,sans-serif" font-weight="400" font-size="50" transform="matrix(1 0 0 1 4628.82 2342)">__read_sensor</text></g><g><text fill="#C198E0" font-family="BIZ UDGothic,BIZ UDGothic_MSFontService,sans-serif" font-weight="400" font-size="50" transform="matrix(1 0 0 1 4956.53 2342)">関数</text></g><path d="M4605.5 2465.33C4605.5 2457.14 4612.14 2450.5 4620.33 2450.5L5378.67 2450.5C5386.86 2450.5 5393.5 2457.14 5393.5 2465.33L5393.5 2524.67C5393.5 2532.86 5386.86 2539.5 5378.67 2539.5L4620.33 2539.5C4612.14 2539.5 4605.5 2532.86 4605.5 2524.67Z" stroke="#5B9BD5" stroke-width="4.58333" stroke-miterlimit="8" stroke-dasharray="18.3333 13.75" fill="#203864" fill-rule="evenodd"/><g><text fill="#C198E0" font-family="BIZ UDGothic,BIZ UDGothic_MSFontService,sans-serif" font-weight="400" font-size="50" transform="matrix(1 0 0 1 4628.82 2517)">__output_csv</text></g><g><text fill="#C198E0" font-family="BIZ UDGothic,BIZ UDGothic_MSFontService,sans-serif" font-weight="400" font-size="50" transform="matrix(1 0 0 1 4931.32 2517)">関数</text></g><path d="M4485 2223.42C4485 2204.41 4500.41 2189 4519.42 2189L5588.58 2189C5607.59 2189 5623 2204.41 5623 2223.42L5623 2765.58C5623 2784.59 5607.59 2800 5588.58 2800L4519.42 2800C4500.41 2800 4485 2784.59 4485 2765.58Z" stroke="#000000" stroke-width="10.3125" stroke-miterlimit="8" fill="#2E75B6" fill-rule="evenodd"/><g><text fill="#FFFFFF" font-family="BIZ UDGothic,BIZ UDGothic_MSFontService,sans-serif" font-weight="400" font-size="50" transform="matrix(1 0 0 1 4514.57 2257)">BME280Impl</text></g><g><text fill="#FFFFFF" font-family="BIZ UDGothic,BIZ UDGothic_MSFontService,sans-serif" font-weight="400" font-size="50" transform="matrix(1 0 0 1 4766.65 2257)">クラス</text></g><path d="M4573.5 2280.48C4573.5 2277.73 4575.73 2275.5 4578.48 2275.5L5530.52 2275.5C5533.27 2275.5 5535.5 2277.73 5535.5 2280.48L5535.5 2699.52C5535.5 2702.27 5533.27 2704.5 5530.52 2704.5L4578.48 2704.5C4575.73 2704.5 4573.5 2702.27 4573.5 2699.52Z" stroke="#5B9BD5" stroke-width="4.58333" stroke-miterlimit="8" stroke-dasharray="18.3333 13.75" fill="#203864" fill-rule="evenodd"/><g><text fill="#C198E0" font-family="BIZ UDGothic,BIZ UDGothic_MSFontService,sans-serif" font-weight="400" font-size="50" transform="matrix(1 0 0 1 4593.45 2335)">doGPIO</text></g><g><text fill="#C198E0" font-family="BIZ UDGothic,BIZ UDGothic_MSFontService,sans-serif" font-weight="400" font-size="50" transform="matrix(1 0 0 1 4744.7 2335)">センサ名</text></g><g><text fill="#C198E0" font-family="BIZ UDGothic,BIZ UDGothic_MSFontService,sans-serif" font-weight="400" font-size="50" transform="matrix(1 0 0 1 4946.36 2335)">Impl</text></g><g><text fill="#C198E0" font-family="BIZ UDGothic,BIZ UDGothic_MSFontService,sans-serif" font-weight="400" font-size="50" transform="matrix(1 0 0 1 5047.2 2335)">関数</text></g><path d="M4660.5 2377.33C4660.5 2369.14 4667.14 2362.5 4675.33 2362.5L5433.67 2362.5C5441.86 2362.5 5448.5 2369.14 5448.5 2377.33L5448.5 2436.67C5448.5 2444.86 5441.86 2451.5 5433.67 2451.5L4675.33 2451.5C4667.14 2451.5 4660.5 2444.86 4660.5 2436.67Z" stroke="#5B9BD5" stroke-width="4.58333" stroke-miterlimit="8" stroke-dasharray="18.3333 13.75" fill="#203864" fill-rule="evenodd"/><g><text fill="#C198E0" font-family="BIZ UDGothic,BIZ UDGothic_MSFontService,sans-serif" font-weight="400" font-size="50" transform="matrix(1 0 0 1 4683.82 2429)">__read_sensor</text></g><g><text fill="#C198E0" font-family="BIZ UDGothic,BIZ UDGothic_MSFontService,sans-serif" font-weight="400" font-size="50" transform="matrix(1 0 0 1 5011.53 2429)">関数</text></g><path d="M4660.5 2552.33C4660.5 2544.14 4667.14 2537.5 4675.33 2537.5L5433.67 2537.5C5441.86 2537.5 5448.5 2544.14 5448.5 2552.33L5448.5 2611.67C5448.5 2619.86 5441.86 2626.5 5433.67 2626.5L4675.33 2626.5C4667.14 2626.5 4660.5 2619.86 4660.5 2611.67Z" stroke="#5B9BD5" stroke-width="4.58333" stroke-miterlimit="8" stroke-dasharray="18.3333 13.75" fill="#203864" fill-rule="evenodd"/><g><text fill="#C198E0" font-family="BIZ UDGothic,BIZ UDGothic_MSFontService,sans-serif" font-weight="400" font-size="50" transform="matrix(1 0 0 1 4683.82 2604)">__output_csv</text></g><g><text fill="#C198E0" font-family="BIZ UDGothic,BIZ UDGothic_MSFontService,sans-serif" font-weight="400" font-size="50" transform="matrix(1 0 0 1 4986.32 2604)">関数</text></g></g></svg>