<svg width="5608" height="4388" xmlns="http://www.w3.org/2000/svg" xmlns:xlink="http://www.w3.org/1999/xlink" xml:space="preserve" overflow="hidden"><g transform="translate(-1135 -783)"><path d="M1837.5 1031.9C1837.5 993.573 1868.57 962.5 1906.9 962.5L6056.1 962.5C6094.43 962.5 6125.5 993.573 6125.5 1031.9L6125.5 4567.1C6125.5 4605.43 6094.43 4636.5 6056.1 4636.5L1906.9 4636.5C1868.57 4636.5 1837.5 4605.43 1837.5 4567.1Z" stroke="#F2F2F2" stroke-width="4.58333" stroke-miterlimit="8" fill="none" fill-rule="evenodd"/><g><text fill="#FFFFFF" font-family="BIZ UDGothic,BIZ UDGothic_MSFontService,sans-serif" font-weight="400" font-size="50" transform="matrix(1 0 0 1 1877.31 1041)">space_balloon.py</text></g><path d="M2373 1077.37C2373 1062.81 2384.81 1051 2399.37 1051L6011.63 1051C6026.19 1051 6038 1062.81 6038 1077.37L6038 4522.63C6038 4537.19 6026.19 4549 6011.63 4549L2399.37 4549C2384.81 4549 2373 4537.19 2373 4522.63Z" stroke="#000000" stroke-width="10.3125" stroke-miterlimit="8" fill="#2F5597" fill-rule="evenodd"/><g><text fill="#FFFFFF" font-family="BIZ UDGothic,BIZ UDGothic_MSFontService,sans-serif" font-weight="400" font-size="50" transform="matrix(1 0 0 1 2400.34 1117)">SensorWrapper</text></g><g><text fill="#FFFFFF" font-family="BIZ UDGothic,BIZ UDGothic_MSFontService,sans-serif" font-weight="400" font-size="50" transform="matrix(1 0 0 1 2728.05 1117)">クラス</text></g><path d="M2450.5 1152.17C2450.5 1144.07 2457.07 1137.5 2465.17 1137.5L3047.83 1137.5C3055.93 1137.5 3062.5 1144.07 3062.5 1152.17L3062.5 1210.83C3062.5 1218.93 3055.93 1225.5 3047.83 1225.5L2465.17 1225.5C2457.07 1225.5 2450.5 1218.93 2450.5 1210.83Z" stroke="#ED7D31" stroke-width="4.58333" stroke-miterlimit="8" stroke-dasharray="18.3333 13.75" fill="#ED7D31" fill-rule="evenodd"/><g><text fill="#FFFFFF" font-family="BIZ UDGothic,BIZ UDGothic_MSFontService,sans-serif" font-weight="400" font-size="50" transform="matrix(1 0 0 1 2473.74 1200)">パラメータ群</text></g><path d="M2446.5 1315.66C2446.5 1302.32 2457.32 1291.5 2470.66 1291.5L5926.34 1291.5C5939.68 1291.5 5950.5 1302.32 5950.5 1315.66L5950.5 4437.34C5950.5 4450.68 5939.68 4461.5 5926.34 4461.5L2470.66 4461.5C2457.32 4461.5 2446.5 4450.68 2446.5 4437.34Z" stroke="#5B9BD5" stroke-width="4.58333" stroke-miterlimit="8" stroke-dasharray="18.3333 13.75" fill="#203864" fill-rule="evenodd"/><g><text fill="#C198E0" font-family="BIZ UDGothic,BIZ UDGothic_MSFontService,sans-serif" font-weight="400" font-size="50" transform="matrix(1 0 0 1 2472.4 1357)">doSensorWrapper</text></g><g><text fill="#C198E0" font-family="BIZ UDGothic,BIZ UDGothic_MSFontService,sans-serif" font-weight="400" font-size="50" transform="matrix(1 0 0 1 2850.52 1357)">関数</text></g><path d="M1925.5 1324.66C1925.5 1319.6 1929.6 1315.5 1934.66 1315.5L2266.34 1315.5C2271.4 1315.5 2275.5 1319.6 2275.5 1324.66L2275.5 1478.34C2275.5 1483.4 2271.4 1487.5 2266.34 1487.5L1934.66 1487.5C1929.6 1487.5 1925.5 1483.4 1925.5 1478.34Z" stroke="#5B9BD5" stroke-width="4.58333" stroke-miterlimit="8" stroke-dasharray="18.3333 13.75" fill="#203864" fill-rule="evenodd"/><g><text fill="#C198E0" font-family="BIZ UDGothic,BIZ UDGothic_MSFontService,sans-serif" font-weight="400" font-size="50" transform="matrix(1 0 0 1 1947.18 1424)">main</text></g><text fill="#C198E0" font-family="BIZ UDGothic,BIZ UDGothic_MSFontService,sans-serif" font-weight="400" font-size="50" transform="matrix(1 0 0 1 2048.01 1424)">関数</text><path d="M2275 1398.85 2427.08 1398.85 2427.08 1401.15 2275 1401.15ZM2422.5 1386.25 2450 1400 2422.5 1413.75Z" fill="#FFFFFF"/><rect x="5425" y="4724" width="525" height="399" stroke="#FF0000" stroke-width="10.3125" stroke-miterlimit="8" fill="#ED7D31"/><g><text fill="#FFFFFF" font-family="BIZ UDGothic,BIZ UDGothic_MSFontService,sans-serif" font-weight="400" font-size="50" transform="matrix(1 0 0 1 5444.49 4782)">センサー群</text></g><g><text fill="#FFFFFF" font-family="BIZ UDGothic,BIZ UDGothic_MSFontService,sans-serif" font-weight="400" font-size="50" transform="matrix(1 0 0 1 5444.49 4847)">・</text></g><text fill="#FFFFFF" font-family="BIZ UDGothic,BIZ UDGothic_MSFontService,sans-serif" font-weight="400" font-size="50" transform="matrix(1 0 0 1 5494.9 4847)">Camera Module</text><g><text fill="#FFFFFF" font-family="BIZ UDGothic,BIZ UDGothic_MSFontService,sans-serif" font-weight="400" font-size="50" transform="matrix(1 0 0 1 5444.49 4913)">・</text></g><text fill="#FFFFFF" font-family="BIZ UDGothic,BIZ UDGothic_MSFontService,sans-serif" font-weight="400" font-size="50" transform="matrix(1 0 0 1 5494.9 4913)">BME280</text><g><text fill="#FFFFFF" font-family="BIZ UDGothic,BIZ UDGothic_MSFontService,sans-serif" font-weight="400" font-size="50" transform="matrix(1 0 0 1 5444.49 4979)">・</text></g><text fill="#FFFFFF" font-family="BIZ UDGothic,BIZ UDGothic_MSFontService,sans-serif" font-weight="400" font-size="50" transform="matrix(1 0 0 1 5494.9 4979)">MPU6050</text><g><text fill="#FFFFFF" font-family="BIZ UDGothic,BIZ UDGothic_MSFontService,sans-serif" font-weight="400" font-size="50" transform="matrix(1 0 0 1 5444.49 5044)">・</text></g><text fill="#FFFFFF" font-family="BIZ UDGothic,BIZ UDGothic_MSFontService,sans-serif" font-weight="400" font-size="50" transform="matrix(1 0 0 1 5494.9 5044)">ICM</text><text fill="#FFFFFF" font-family="BIZ UDGothic,BIZ UDGothic_MSFontService,sans-serif" font-weight="400" font-size="50" transform="matrix(1 0 0 1 5570.53 5044)">-</text><text fill="#FFFFFF" font-family="BIZ UDGothic,BIZ UDGothic_MSFontService,sans-serif" font-weight="400" font-size="50" transform="matrix(1 0 0 1 5595.74 5044)">29048</text><path d="M6213 2012 6560 2012 6560 2304.17 6502.17 2362 6213 2362Z" fill="#A9D18E" fill-rule="evenodd"/><path d="M6502.17 2362 6513.73 2315.73 6560 2304.17Z" fill="#88A872" fill-rule="evenodd"/><path d="M6502.17 2362 6513.73 2315.73 6560 2304.17 6502.17 2362 6213 2362 6213 2012 6560 2012 6560 2304.17" stroke="#385723" stroke-width="10.3125" stroke-miterlimit="8" fill="none" fill-rule="evenodd"/><text fill="#FFFFFF" font-family="Calibri,Calibri_MSFontService,sans-serif" font-weight="400" font-size="50" transform="matrix(1 0 0 1 6360.79 2175)">csv</text><path d="M6213 4111 6548 4111 6548 4330.17 6504.17 4374 6213 4374Z" fill="#0000FF" fill-rule="evenodd"/><path d="M6504.17 4374 6512.93 4338.93 6548 4330.17Z" fill="#0000CD" fill-rule="evenodd"/><path d="M6504.17 4374 6512.93 4338.93 6548 4330.17 6504.17 4374 6213 4374 6213 4111 6548 4111 6548 4330.17" stroke="#00B050" stroke-width="10.3125" stroke-miterlimit="8" fill="none" fill-rule="evenodd"/><text fill="#FFFFFF" font-family="Calibri,Calibri_MSFontService,sans-serif" font-weight="400" font-size="50" transform="matrix(1 0 0 1 6257.73 4176)">H.264 movie</text><text fill="#FFFFFF" font-family="Calibri,Calibri_MSFontService,sans-serif" font-weight="400" font-size="50" transform="matrix(1 0 0 1 6364.89 4238)">or</text><g><text fill="#FFFFFF" font-family="Calibri,Calibri_MSFontService,sans-serif" font-weight="400" font-size="50" transform="matrix(1 0 0 1 6290.9 4299)">MP4 ovie</text></g><path d="M6213.5 1487.5 6563.5 1487.5 6563.5 1779.17 6505.17 1837.5 6213.5 1837.5Z" fill="#0000FF" fill-rule="evenodd"/><path d="M6505.17 1837.5 6516.83 1790.83 6563.5 1779.17Z" fill="#0000CD" fill-rule="evenodd"/><path d="M6505.17 1837.5 6516.83 1790.83 6563.5 1779.17 6505.17 1837.5 6213.5 1837.5 6213.5 1487.5 6563.5 1487.5 6563.5 1779.17" stroke="#0000FF" stroke-width="4.58333" stroke-miterlimit="8" fill="none" fill-rule="evenodd"/><text fill="#FFFFFF" font-family="Calibri,Calibri_MSFontService,sans-serif" font-weight="400" font-size="50" transform="matrix(1 0 0 1 6264.76 1650)">H.264 movie</text><path d="M1758 1919.84 2511.39 1919.84 2511.39 1930.16 1758 1930.16ZM2506.23 1909.53 2537.17 1925 2506.23 1940.47Z" fill="#00B0F0"/><path d="M1137.5 1312.5 1487.5 1312.5 1487.5 1470.83 1455.83 1502.5 1137.5 1502.5Z" fill="#ED7D31" fill-rule="evenodd"/><path d="M1455.83 1502.5 1462.17 1477.17 1487.5 1470.83Z" fill="#BF6427" fill-rule="evenodd"/><path d="M1455.83 1502.5 1462.17 1477.17 1487.5 1470.83 1455.83 1502.5 1137.5 1502.5 1137.5 1312.5 1487.5 1312.5 1487.5 1470.83" stroke="#FFFFFF" stroke-width="4.58333" stroke-miterlimit="8" fill="none" fill-rule="evenodd"/><g><text fill="#FFFFFF" font-family="Yu Gothic,Yu Gothic_MSFontService,sans-serif" font-weight="400" font-size="50" transform="matrix(1 0 0 1 1150.49 1371)">オプション</text></g><path d="M2537.5 1502.17C2537.5 1494.07 2544.07 1487.5 2552.17 1487.5L3137.83 1487.5C3145.93 1487.5 3152.5 1494.07 3152.5 1502.17L3152.5 1560.83C3152.5 1568.93 3145.93 1575.5 3137.83 1575.5L2552.17 1575.5C2544.07 1575.5 2537.5 1568.93 2537.5 1560.83Z" stroke="#5B9BD5" stroke-width="4.58333" stroke-miterlimit="8" stroke-dasharray="18.3333 13.75" fill="#203864" fill-rule="evenodd"/><g><text fill="#C198E0" font-family="BIZ UDGothic,BIZ UDGothic_MSFontService,sans-serif" font-weight="400" font-size="50" transform="matrix(1 0 0 1 2561.24 1553)">__read_args</text></g><g><text fill="#C198E0" font-family="BIZ UDGothic,BIZ UDGothic_MSFontService,sans-serif" font-weight="400" font-size="50" transform="matrix(1 0 0 1 2838.53 1553)">関数</text></g><path d="M4289.5 1424.74C4289.5 1411.35 4300.35 1400.5 4313.74 1400.5L5838.26 1400.5C5851.65 1400.5 5862.5 1411.35 5862.5 1424.74L5862.5 2863.26C5862.5 2876.65 5851.65 2887.5 5838.26 2887.5L4313.74 2887.5C4300.35 2887.5 4289.5 2876.65 4289.5 2863.26Z" stroke="#5B9BD5" stroke-width="4.58333" stroke-miterlimit="8" stroke-dasharray="18.3333 13.75" fill="#203864" fill-rule="evenodd"/><g><text fill="#C198E0" font-family="BIZ UDGothic,BIZ UDGothic_MSFontService,sans-serif" font-weight="400" font-size="50" transform="matrix(1 0 0 1 4315.13 1465)">__setup_sensors</text></g><g><text fill="#C198E0" font-family="BIZ UDGothic,BIZ UDGothic_MSFontService,sans-serif" font-weight="400" font-size="50" transform="matrix(1 0 0 1 4693.25 1465)">関数</text></g><path d="M3500.5 1508.5C3500.5 1500.77 3506.77 1494.5 3514.5 1494.5L4102.5 1494.5C4110.23 1494.5 4116.5 1500.77 4116.5 1508.5L4116.5 1564.5C4116.5 1572.23 4110.23 1578.5 4102.5 1578.5L3514.5 1578.5C3506.77 1578.5 3500.5 1572.23 3500.5 1564.5Z" stroke="#5B9BD5" stroke-width="4.58333" stroke-miterlimit="8" stroke-dasharray="18.3333 13.75" fill="#203864" fill-rule="evenodd"/><g><text fill="#C198E0" font-family="BIZ UDGothic,BIZ UDGothic_MSFontService,sans-serif" font-weight="400" font-size="50" transform="matrix(1 0 0 1 3523.58 1559)">その他関数</text></g><path d="M4375 1502.49C4375 1493.93 4381.93 1487 4390.49 1487L5497.51 1487C5506.07 1487 5513 1493.93 5513 1502.49L5513 1909.51C5513 1918.07 5506.07 1925 5497.51 1925L4390.49 1925C4381.93 1925 4375 1918.07 4375 1909.51Z" stroke="#000000" stroke-width="10.3125" stroke-miterlimit="8" fill="#2E75B6" fill-rule="evenodd"/><g><text fill="#FFFFFF" font-family="BIZ UDGothic,BIZ UDGothic_MSFontService,sans-serif" font-weight="400" font-size="50" transform="matrix(1 0 0 1 4399.03 1550)">CameraModuleImpl</text></g><g><text fill="#FFFFFF" font-family="BIZ UDGothic,BIZ UDGothic_MSFontService,sans-serif" font-weight="400" font-size="50" transform="matrix(1 0 0 1 4802.36 1550)">クラス</text></g><path d="M4462.5 1596.66C4462.5 1584.97 4471.97 1575.5 4483.66 1575.5L5404.34 1575.5C5416.03 1575.5 5425.5 1584.97 5425.5 1596.66L5425.5 1817.34C5425.5 1829.03 5416.03 1838.5 5404.34 1838.5L4483.66 1838.5C4471.97 1838.5 4462.5 1829.03 4462.5 1817.34Z" stroke="#5B9BD5" stroke-width="4.58333" stroke-miterlimit="8" stroke-dasharray="18.3333 13.75" fill="#203864" fill-rule="evenodd"/><g><text fill="#C198E0" font-family="BIZ UDGothic,BIZ UDGothic_MSFontService,sans-serif" font-weight="400" font-size="50" transform="matrix(1 0 0 1 4488.18 1640)">doCameraModuleImpl</text></g><g><text fill="#C198E0" font-family="BIZ UDGothic,BIZ UDGothic_MSFontService,sans-serif" font-weight="400" font-size="50" transform="matrix(1 0 0 1 4941.93 1640)">関数</text></g><path d="M4553.5 1677.33C4553.5 1669.69 4559.69 1663.5 4567.33 1663.5L5323.67 1663.5C5331.31 1663.5 5337.5 1669.69 5337.5 1677.33L5337.5 1732.67C5337.5 1740.31 5331.31 1746.5 5323.67 1746.5L4567.33 1746.5C4559.69 1746.5 4553.5 1740.31 4553.5 1732.67Z" stroke="#5B9BD5" stroke-width="4.58333" stroke-miterlimit="8" stroke-dasharray="18.3333 13.75" fill="#203864" fill-rule="evenodd"/><g><text fill="#C198E0" font-family="BIZ UDGothic,BIZ UDGothic_MSFontService,sans-serif" font-weight="400" font-size="50" transform="matrix(1 0 0 1 4576.33 1727)">__start_camera_module</text></g><g><text fill="#C198E0" font-family="BIZ UDGothic,BIZ UDGothic_MSFontService,sans-serif" font-weight="400" font-size="50" transform="matrix(1 0 0 1 5105.71 1727)">関数</text></g><path d="M4375 2047.42C4375 2028.41 4390.41 2013 4409.42 2013L5478.58 2013C5497.59 2013 5513 2028.41 5513 2047.42L5513 2589.58C5513 2608.59 5497.59 2624 5478.58 2624L4409.42 2624C4390.41 2624 4375 2608.59 4375 2589.58Z" stroke="#000000" stroke-width="10.3125" stroke-miterlimit="8" fill="#2E75B6" fill-rule="evenodd"/><g><text fill="#FFFFFF" font-family="BIZ UDGothic,BIZ UDGothic_MSFontService,sans-serif" font-weight="400" font-size="50" transform="matrix(1 0 0 1 4404.57 2082)">ICM29048Impl</text></g><g><text fill="#FFFFFF" font-family="BIZ UDGothic,BIZ UDGothic_MSFontService,sans-serif" font-weight="400" font-size="50" transform="matrix(1 0 0 1 4707.07 2082)">クラス</text></g><path d="M4463.5 2105.47C4463.5 2102.72 4465.72 2100.5 4468.47 2100.5L5420.53 2100.5C5423.28 2100.5 5425.5 2102.72 5425.5 2105.47L5425.5 2523.53C5425.5 2526.28 5423.28 2528.5 5420.53 2528.5L4468.47 2528.5C4465.72 2528.5 4463.5 2526.28 4463.5 2523.53Z" stroke="#5B9BD5" stroke-width="4.58333" stroke-miterlimit="8" stroke-dasharray="18.3333 13.75" fill="#203864" fill-rule="evenodd"/><g><text fill="#C198E0" font-family="BIZ UDGothic,BIZ UDGothic_MSFontService,sans-serif" font-weight="400" font-size="50" transform="matrix(1 0 0 1 4483.45 2160)">doGPIO</text></g><g><text fill="#C198E0" font-family="BIZ UDGothic,BIZ UDGothic_MSFontService,sans-serif" font-weight="400" font-size="50" transform="matrix(1 0 0 1 4634.7 2160)">センサ名</text></g><g><text fill="#C198E0" font-family="BIZ UDGothic,BIZ UDGothic_MSFontService,sans-serif" font-weight="400" font-size="50" transform="matrix(1 0 0 1 4836.36 2160)">Impl</text></g><g><text fill="#C198E0" font-family="BIZ UDGothic,BIZ UDGothic_MSFontService,sans-serif" font-weight="400" font-size="50" transform="matrix(1 0 0 1 4937.2 2160)">関数</text></g><path d="M4550.5 2202.33C4550.5 2194.14 4557.14 2187.5 4565.33 2187.5L5323.67 2187.5C5331.86 2187.5 5338.5 2194.14 5338.5 2202.33L5338.5 2261.67C5338.5 2269.86 5331.86 2276.5 5323.67 2276.5L4565.33 2276.5C4557.14 2276.5 4550.5 2269.86 4550.5 2261.67Z" stroke="#5B9BD5" stroke-width="4.58333" stroke-miterlimit="8" stroke-dasharray="18.3333 13.75" fill="#203864" fill-rule="evenodd"/><g><text fill="#C198E0" font-family="BIZ UDGothic,BIZ UDGothic_MSFontService,sans-serif" font-weight="400" font-size="50" transform="matrix(1 0 0 1 4573.82 2254)">__read_sensor</text></g><g><text fill="#C198E0" font-family="BIZ UDGothic,BIZ UDGothic_MSFontService,sans-serif" font-weight="400" font-size="50" transform="matrix(1 0 0 1 4901.53 2254)">関数</text></g><path d="M4550.5 2377.33C4550.5 2369.14 4557.14 2362.5 4565.33 2362.5L5323.67 2362.5C5331.86 2362.5 5338.5 2369.14 5338.5 2377.33L5338.5 2436.67C5338.5 2444.86 5331.86 2451.5 5323.67 2451.5L4565.33 2451.5C4557.14 2451.5 4550.5 2444.86 4550.5 2436.67Z" stroke="#5B9BD5" stroke-width="4.58333" stroke-miterlimit="8" stroke-dasharray="18.3333 13.75" fill="#203864" fill-rule="evenodd"/><g><text fill="#C198E0" font-family="BIZ UDGothic,BIZ UDGothic_MSFontService,sans-serif" font-weight="400" font-size="50" transform="matrix(1 0 0 1 4573.82 2429)">__output_csv</text></g><g><text fill="#C198E0" font-family="BIZ UDGothic,BIZ UDGothic_MSFontService,sans-serif" font-weight="400" font-size="50" transform="matrix(1 0 0 1 4876.32 2429)">関数</text></g><path d="M2537 1703.67C2537 1680.66 2555.66 1662 2578.67 1662L4158.33 1662C4181.34 1662 4200 1680.66 4200 1703.67L4200 4332.33C4200 4355.34 4181.34 4374 4158.33 4374L2578.67 4374C2555.66 4374 2537 4355.34 2537 4332.33Z" stroke="#000000" stroke-width="10.3125" stroke-miterlimit="8" fill="#1F4E79" fill-rule="evenodd"/><g><text fill="#FFFFFF" font-family="BIZ UDGothic,BIZ UDGothic_MSFontService,sans-serif" font-weight="400" font-size="50" transform="matrix(1 0 0 1 2569.19 1733)">SensorAnalyzerImpl</text></g><g><text fill="#FFFFFF" font-family="BIZ UDGothic,BIZ UDGothic_MSFontService,sans-serif" font-weight="400" font-size="50" transform="matrix(1 0 0 1 3022.94 1733)">クラス</text></g><path d="M2625.5 1879.18C2625.5 1856.16 2644.16 1837.5 2667.18 1837.5L4070.72 1837.5C4093.73 1837.5 4112.39 1856.16 4112.39 1879.18L4112.39 4244.82C4112.39 4267.84 4093.73 4286.5 4070.72 4286.5L2667.18 4286.5C2644.16 4286.5 2625.5 4267.84 2625.5 4244.82Z" stroke="#5B9BD5" stroke-width="4.58333" stroke-miterlimit="8" stroke-dasharray="18.3333 13.75" fill="#203864" fill-rule="evenodd"/><g><text fill="#C198E0" font-family="BIZ UDGothic,BIZ UDGothic_MSFontService,sans-serif" font-weight="400" font-size="50" transform="matrix(1 0 0 1 2656.7 1908)">doSensorAnalyzerImplImpl</text></g><g><text fill="#C198E0" font-family="BIZ UDGothic,BIZ UDGothic_MSFontService,sans-serif" font-weight="400" font-size="50" transform="matrix(1 0 0 1 3261.7 1908)">関数</text></g><path d="M2710.5 3776.33C2710.5 3768.14 2717.14 3761.5 2725.33 3761.5L3924.67 3761.5C3932.86 3761.5 3939.5 3768.14 3939.5 3776.33L3939.5 3835.67C3939.5 3843.86 3932.86 3850.5 3924.67 3850.5L2725.33 3850.5C2717.14 3850.5 2710.5 3843.86 2710.5 3835.67Z" stroke="#5B9BD5" stroke-width="4.58333" stroke-miterlimit="8" stroke-dasharray="18.3333 13.75" fill="#203864" fill-rule="evenodd"/><g><text fill="#C198E0" font-family="BIZ UDGothic,BIZ UDGothic_MSFontService,sans-serif" font-weight="400" font-size="50" transform="matrix(1 0 0 1 2733.76 3828)">__output_to_excel</text></g><g><text fill="#C198E0" font-family="BIZ UDGothic,BIZ UDGothic_MSFontService,sans-serif" font-weight="400" font-size="50" transform="matrix(1 0 0 1 3162.3 3828)">関数</text></g><path d="M2712.5 2017.36C2712.5 2014.68 2714.68 2012.5 2717.36 2012.5L3933.64 2012.5C3936.32 2012.5 3938.5 2014.68 3938.5 2017.36L3938.5 2619.64C3938.5 2622.32 3936.32 2624.5 3933.64 2624.5L2717.36 2624.5C2714.68 2624.5 2712.5 2622.32 2712.5 2619.64Z" stroke="#5B9BD5" stroke-width="4.58333" stroke-miterlimit="8" stroke-dasharray="18.3333 13.75" fill="#203864" fill-rule="evenodd"/><g><text fill="#C198E0" font-family="BIZ UDGothic,BIZ UDGothic_MSFontService,sans-serif" font-weight="400" font-size="50" transform="matrix(1 0 0 1 2733.41 2072)">__generate_alititude_csv</text></g><g><text fill="#C198E0" font-family="BIZ UDGothic,BIZ UDGothic_MSFontService,sans-serif" font-weight="400" font-size="50" transform="matrix(1 0 0 1 3338.41 2072)">関数</text></g><path d="M2800.5 2206.06C2800.5 2195.81 2808.81 2187.5 2819.06 2187.5L3831.94 2187.5C3842.19 2187.5 3850.5 2195.81 3850.5 2206.06L3850.5 2518.94C3850.5 2529.19 3842.19 2537.5 3831.94 2537.5L2819.06 2537.5C2808.81 2537.5 2800.5 2529.19 2800.5 2518.94Z" stroke="#5B9BD5" stroke-width="4.58333" stroke-miterlimit="8" stroke-dasharray="18.3333 13.75" fill="#203864" fill-rule="evenodd"/><g><text fill="#C198E0" font-family="BIZ UDGothic,BIZ UDGothic_MSFontService,sans-serif" font-weight="400" font-size="50" transform="matrix(1 0 0 1 2824.92 2251)">__calculate_altitude</text></g><g><text fill="#C198E0" font-family="BIZ UDGothic,BIZ UDGothic_MSFontService,sans-serif" font-weight="400" font-size="50" transform="matrix(1 0 0 1 3329.09 2251)">関数</text></g><path d="M2891.5 2376.17C2891.5 2368.07 2898.07 2361.5 2906.17 2361.5L3748.83 2361.5C3756.93 2361.5 3763.5 2368.07 3763.5 2376.17L3763.5 2434.83C3763.5 2442.93 3756.93 2449.5 3748.83 2449.5L2906.17 2449.5C2898.07 2449.5 2891.5 2442.93 2891.5 2434.83Z" stroke="#5B9BD5" stroke-width="4.58333" stroke-miterlimit="8" stroke-dasharray="18.3333 13.75" fill="#203864" fill-rule="evenodd"/><g><text fill="#C198E0" font-family="BIZ UDGothic,BIZ UDGothic_MSFontService,sans-serif" font-weight="400" font-size="50" transform="matrix(1 0 0 1 2914.73 2428)">__virtual_temperature</text></g><g><text fill="#C198E0" font-family="BIZ UDGothic,BIZ UDGothic_MSFontService,sans-serif" font-weight="400" font-size="50" transform="matrix(1 0 0 1 3444.1 2428)">関数</text></g><path d="M2710.5 3951.33C2710.5 3943.14 2717.14 3936.5 2725.33 3936.5L3922.67 3936.5C3930.86 3936.5 3937.5 3943.14 3937.5 3951.33L3937.5 4010.67C3937.5 4018.86 3930.86 4025.5 3922.67 4025.5L2725.33 4025.5C2717.14 4025.5 2710.5 4018.86 2710.5 4010.67Z" stroke="#5B9BD5" stroke-width="4.58333" stroke-miterlimit="8" stroke-dasharray="18.3333 13.75" fill="#203864" fill-rule="evenodd"/><g><text fill="#C198E0" font-family="BIZ UDGothic,BIZ UDGothic_MSFontService,sans-serif" font-weight="400" font-size="50" transform="matrix(1 0 0 1 2733.76 4003)">__conver_h264_to_mp4</text></g><g><text fill="#C198E0" font-family="BIZ UDGothic,BIZ UDGothic_MSFontService,sans-serif" font-weight="400" font-size="50" transform="matrix(1 0 0 1 3237.92 4003)">関数</text></g><path d="M2712.5 2728.02C2712.5 2719.45 2719.45 2712.5 2728.02 2712.5L3921.98 2712.5C3930.55 2712.5 3937.5 2719.45 3937.5 2728.02L3937.5 3660.98C3937.5 3669.55 3930.55 3676.5 3921.98 3676.5L2728.02 3676.5C2719.45 3676.5 2712.5 3669.55 2712.5 3660.98Z" stroke="#5B9BD5" stroke-width="4.58333" stroke-miterlimit="8" stroke-dasharray="18.3333 13.75" fill="#203864" fill-rule="evenodd"/><g><text fill="#C198E0" font-family="BIZ UDGothic,BIZ UDGothic_MSFontService,sans-serif" font-weight="400" font-size="50" transform="matrix(1 0 0 1 2736.53 2775)">__analyse_frame_sync</text></g><g><text fill="#C198E0" font-family="BIZ UDGothic,BIZ UDGothic_MSFontService,sans-serif" font-weight="400" font-size="50" transform="matrix(1 0 0 1 3240.7 2775)">関数</text></g><path d="M2797.5 2907.81C2797.5 2896.59 2806.59 2887.5 2817.81 2887.5L3830.19 2887.5C3841.41 2887.5 3850.5 2896.59 3850.5 2907.81L3850.5 3568.19C3850.5 3579.41 3841.41 3588.5 3830.19 3588.5L2817.81 3588.5C2806.59 3588.5 2797.5 3579.41 2797.5 3568.19Z" stroke="#5B9BD5" stroke-width="4.58333" stroke-miterlimit="8" stroke-dasharray="18.3333 13.75" fill="#203864" fill-rule="evenodd"/><g><text fill="#C198E0" font-family="BIZ UDGothic,BIZ UDGothic_MSFontService,sans-serif" font-weight="400" font-size="50" transform="matrix(1 0 0 1 2822.03 2952)">__movie_gen</text></g><g><text fill="#C198E0" font-family="BIZ UDGothic,BIZ UDGothic_MSFontService,sans-serif" font-weight="400" font-size="50" transform="matrix(1 0 0 1 3099.32 2952)">関数</text></g><path d="M2887.5 3077.33C2887.5 3069.14 2894.14 3062.5 2902.33 3062.5L3750.67 3062.5C3758.86 3062.5 3765.5 3069.14 3765.5 3077.33L3765.5 3136.67C3765.5 3144.86 3758.86 3151.5 3750.67 3151.5L2902.33 3151.5C2894.14 3151.5 2887.5 3144.86 2887.5 3136.67Z" stroke="#5B9BD5" stroke-width="4.58333" stroke-miterlimit="8" stroke-dasharray="18.3333 13.75" fill="#203864" fill-rule="evenodd"/><g><text fill="#C198E0" font-family="BIZ UDGothic,BIZ UDGothic_MSFontService,sans-serif" font-weight="400" font-size="50" transform="matrix(1 0 0 1 2911.31 3129)">__separation_h264_to_jpeg</text></g><g><text fill="#C198E0" font-family="BIZ UDGothic,BIZ UDGothic_MSFontService,sans-serif" font-weight="400" font-size="50" transform="matrix(1 0 0 1 3541.52 3129)">関数</text></g><path d="M2887.5 3251.17C2887.5 3243.07 2894.07 3236.5 2902.17 3236.5L3750.83 3236.5C3758.93 3236.5 3765.5 3243.07 3765.5 3251.17L3765.5 3309.83C3765.5 3317.93 3758.93 3324.5 3750.83 3324.5L2902.17 3324.5C2894.07 3324.5 2887.5 3317.93 2887.5 3309.83Z" stroke="#5B9BD5" stroke-width="4.58333" stroke-miterlimit="8" stroke-dasharray="18.3333 13.75" fill="#203864" fill-rule="evenodd"/><g><text fill="#C198E0" font-family="BIZ UDGothic,BIZ UDGothic_MSFontService,sans-serif" font-weight="400" font-size="50" transform="matrix(1 0 0 1 2911.31 3303)">__add_sensor_frame</text></g><g><text fill="#C198E0" font-family="BIZ UDGothic,BIZ UDGothic_MSFontService,sans-serif" font-weight="400" font-size="50" transform="matrix(1 0 0 1 3365.06 3303)">関数</text></g><path d="M2887.5 3427.17C2887.5 3419.07 2894.07 3412.5 2902.17 3412.5L3750.83 3412.5C3758.93 3412.5 3765.5 3419.07 3765.5 3427.17L3765.5 3485.83C3765.5 3493.93 3758.93 3500.5 3750.83 3500.5L2902.17 3500.5C2894.07 3500.5 2887.5 3493.93 2887.5 3485.83Z" stroke="#5B9BD5" stroke-width="4.58333" stroke-miterlimit="8" stroke-dasharray="18.3333 13.75" fill="#203864" fill-rule="evenodd"/><g><text fill="#C198E0" font-family="BIZ UDGothic,BIZ UDGothic_MSFontService,sans-serif" font-weight="400" font-size="50" transform="matrix(1 0 0 1 2911.31 3478)">__merge_jpeg_to_h264</text></g><g><text fill="#C198E0" font-family="BIZ UDGothic,BIZ UDGothic_MSFontService,sans-serif" font-weight="400" font-size="50" transform="matrix(1 0 0 1 3415.48 3478)">関数</text></g><path d="M2712.5 4127.17C2712.5 4119.07 2719.07 4112.5 2727.17 4112.5L3922.83 4112.5C3930.93 4112.5 3937.5 4119.07 3937.5 4127.17L3937.5 4185.83C3937.5 4193.93 3930.93 4200.5 3922.83 4200.5L2727.17 4200.5C2719.07 4200.5 2712.5 4193.93 2712.5 4185.83Z" stroke="#5B9BD5" stroke-width="4.58333" stroke-miterlimit="8" stroke-dasharray="18.3333 13.75" fill="#203864" fill-rule="evenodd"/><g><text fill="#C198E0" font-family="BIZ UDGothic,BIZ UDGothic_MSFontService,sans-serif" font-weight="400" font-size="50" transform="matrix(1 0 0 1 2736.31 4178)">その他関数</text></g><path d="M4225.78 3668.84 6186.72 3668.84 6186.72 3679.16 4225.78 3679.16ZM4230.94 3689.47 4200 3674 4230.94 3658.53ZM6181.56 3658.53 6212.5 3674 6181.56 3689.47Z" fill="#00B0F0"/><path d="M5512 1656.84 6186.22 1656.84 6186.22 1667.16 5512 1667.16ZM6181.06 1646.53 6212 1662 6181.06 1677.47Z" fill="#00B0F0"/><path d="M5512 2268.84 6186.22 2268.84 6186.22 2279.16 5512 2279.16ZM6181.06 2258.53 6212 2274 6181.06 2289.47Z" fill="#00B0F0"/><path d="M4225.78 3930.84 6186.72 3930.84 6186.72 3941.16 4225.78 3941.16ZM4230.94 3951.47 4200 3936 4230.94 3920.53ZM6181.56 3920.53 6212.5 3936 6181.56 3951.47Z" fill="#00B0F0"/><path d="M5538.78 1831.84 5775.5 1831.84 5775.5 1842.16 5538.78 1842.16ZM5543.94 1852.47 5513 1837 5543.94 1821.53Z" fill="#00B0F0"/><path d="M4200 4193.84 6186.72 4193.84 6186.72 4204.16 4200 4204.16ZM6181.56 4183.53 6212.5 4199 6181.56 4214.47Z" fill="#00B0F0"/><path d="M5537.78 2531.84 5687 2531.84 5687 2542.16 5537.78 2542.16ZM5542.94 2552.47 5512 2537 5542.94 2521.53Z" fill="#00B0F0"/><path d="M5780.16 1837 5780.16 4697.75 5769.84 4697.75 5769.84 1837ZM5790.47 4692.59 5775 4723.53 5759.53 4692.59Z" fill="#00B0F0"/><path d="M5692.16 2537 5692.16 4697.98 5681.84 4697.98 5681.84 2537ZM5702.47 4692.83 5687 4723.76 5671.53 4692.83Z" fill="#00B0F0"/><path d="M1654 2006.84 2511.55 2006.84 2511.55 2017.16 1654 2017.16ZM2506.4 1996.53 2537.33 2012 2506.4 2027.47Z" fill="#00B0F0"/><path d="M0 0 4900 0.000360892" stroke="#00B0F0" stroke-width="10.3125" stroke-miterlimit="8" fill="none" fill-rule="evenodd" transform="matrix(-1 0 0 1 6650 875)"/><path d="M6213.5 3573.5 6442.5 3573.5 6442.5 3689.33 6419.33 3712.5 6213.5 3712.5Z" fill="#6D6DFF" fill-rule="evenodd"/><path d="M6419.33 3712.5 6423.97 3693.97 6442.5 3689.33Z" fill="#5858CD" fill-rule="evenodd"/><path d="M6419.33 3712.5 6423.97 3693.97 6442.5 3689.33 6419.33 3712.5 6213.5 3712.5 6213.5 3573.5 6442.5 3573.5 6442.5 3689.33" stroke="#00B050" stroke-width="6.875" stroke-miterlimit="8" fill="none" fill-rule="evenodd"/><g><text fill="#FFFFFF" font-family="Calibri,Calibri_MSFontService,sans-serif" font-weight="400" font-size="50" transform="matrix(1 0 0 1 6289.95 3649)">jpeg</text></g><path d="M6241.5 3600.5 6470.5 3600.5 6470.5 3716.33 6447.33 3739.5 6241.5 3739.5Z" fill="#6D6DFF" fill-rule="evenodd"/><path d="M6447.33 3739.5 6451.97 3720.97 6470.5 3716.33Z" fill="#5858CD" fill-rule="evenodd"/><path d="M6447.33 3739.5 6451.97 3720.97 6470.5 3716.33 6447.33 3739.5 6241.5 3739.5 6241.5 3600.5 6470.5 3600.5 6470.5 3716.33" stroke="#00B050" stroke-width="6.875" stroke-miterlimit="8" fill="none" fill-rule="evenodd"/><g><text fill="#FFFFFF" font-family="Calibri,Calibri_MSFontService,sans-serif" font-weight="400" font-size="50" transform="matrix(1 0 0 1 6318.27 3675)">jpeg</text></g><path d="M6269.5 3630.5 6498.5 3630.5 6498.5 3746.33 6475.33 3769.5 6269.5 3769.5Z" fill="#6D6DFF" fill-rule="evenodd"/><path d="M6475.33 3769.5 6479.97 3750.97 6498.5 3746.33Z" fill="#5858CD" fill-rule="evenodd"/><path d="M6475.33 3769.5 6479.97 3750.97 6498.5 3746.33 6475.33 3769.5 6269.5 3769.5 6269.5 3630.5 6498.5 3630.5 6498.5 3746.33" stroke="#00B050" stroke-width="6.875" stroke-miterlimit="8" fill="none" fill-rule="evenodd"/><g><text fill="#FFFFFF" font-family="Calibri,Calibri_MSFontService,sans-serif" font-weight="400" font-size="50" transform="matrix(1 0 0 1 6346.6 3705)">jpeg</text></g><path d="M6297.5 3658.5 6527.5 3658.5 6527.5 3774.33 6504.33 3797.5 6297.5 3797.5Z" fill="#6D6DFF" fill-rule="evenodd"/><path d="M6504.33 3797.5 6508.97 3778.97 6527.5 3774.33Z" fill="#5858CD" fill-rule="evenodd"/><path d="M6504.33 3797.5 6508.97 3778.97 6527.5 3774.33 6504.33 3797.5 6297.5 3797.5 6297.5 3658.5 6527.5 3658.5 6527.5 3774.33" stroke="#00B050" stroke-width="6.875" stroke-miterlimit="8" fill="none" fill-rule="evenodd"/><g><text fill="#FFFFFF" font-family="Calibri,Calibri_MSFontService,sans-serif" font-weight="400" font-size="50" transform="matrix(1 0 0 1 6374.92 3733)">jpeg</text></g><path d="M6213.5 3849.5 6442.5 3849.5 6442.5 3964.5 6419.5 3987.5 6213.5 3987.5Z" fill="#3737FF" fill-rule="evenodd"/><path d="M6419.5 3987.5 6424.1 3969.1 6442.5 3964.5Z" fill="#2C2CCD" fill-rule="evenodd"/><path d="M6419.5 3987.5 6424.1 3969.1 6442.5 3964.5 6419.5 3987.5 6213.5 3987.5 6213.5 3849.5 6442.5 3849.5 6442.5 3964.5" stroke="#00B050" stroke-width="6.875" stroke-miterlimit="8" fill="none" fill-rule="evenodd"/><g><text fill="#FFFFFF" font-family="Calibri,Calibri_MSFontService,sans-serif" font-weight="400" font-size="50" transform="matrix(1 0 0 1 6289.95 3924)">jpeg</text></g><path d="M6241.5 3877.5 6470.5 3877.5 6470.5 3992.5 6447.5 4015.5 6241.5 4015.5Z" fill="#3737FF" fill-rule="evenodd"/><path d="M6447.5 4015.5 6452.1 3997.1 6470.5 3992.5Z" fill="#2C2CCD" fill-rule="evenodd"/><path d="M6447.5 4015.5 6452.1 3997.1 6470.5 3992.5 6447.5 4015.5 6241.5 4015.5 6241.5 3877.5 6470.5 3877.5 6470.5 3992.5" stroke="#00B050" stroke-width="6.875" stroke-miterlimit="8" fill="none" fill-rule="evenodd"/><g><text fill="#FFFFFF" font-family="Calibri,Calibri_MSFontService,sans-serif" font-weight="400" font-size="50" transform="matrix(1 0 0 1 6318.27 3952)">jpeg</text></g><path d="M6269.5 3906.5 6498.5 3906.5 6498.5 4020.67 6475.67 4043.5 6269.5 4043.5Z" fill="#3737FF" fill-rule="evenodd"/><path d="M6475.67 4043.5 6480.23 4025.23 6498.5 4020.67Z" fill="#2C2CCD" fill-rule="evenodd"/><path d="M6475.67 4043.5 6480.23 4025.23 6498.5 4020.67 6475.67 4043.5 6269.5 4043.5 6269.5 3906.5 6498.5 3906.5 6498.5 4020.67" stroke="#00B050" stroke-width="6.875" stroke-miterlimit="8" fill="none" fill-rule="evenodd"/><g><text fill="#FFFFFF" font-family="Calibri,Calibri_MSFontService,sans-serif" font-weight="400" font-size="50" transform="matrix(1 0 0 1 6346.6 3980)">jpeg</text></g><path d="M6297.5 3934.5 6527.5 3934.5 6527.5 4049.5 6504.5 4072.5 6297.5 4072.5Z" fill="#3737FF" fill-rule="evenodd"/><path d="M6504.5 4072.5 6509.1 4054.1 6527.5 4049.5Z" fill="#2C2CCD" fill-rule="evenodd"/><path d="M6504.5 4072.5 6509.1 4054.1 6527.5 4049.5 6504.5 4072.5 6297.5 4072.5 6297.5 3934.5 6527.5 3934.5 6527.5 4049.5" stroke="#00B050" stroke-width="6.875" stroke-miterlimit="8" fill="none" fill-rule="evenodd"/><g><text fill="#FFFFFF" font-family="Calibri,Calibri_MSFontService,sans-serif" font-weight="400" font-size="50" transform="matrix(1 0 0 1 6374.92 4009)">jpeg</text></g><path d="M0 0 5075 0.000360892" stroke="#00B0F0" stroke-width="10.3125" stroke-miterlimit="8" fill="none" fill-rule="evenodd" transform="matrix(-1 0 0 1 6737 788)"/><path d="M1750 875 1750 1924.65" stroke="#00B0F0" stroke-width="10.3125" stroke-miterlimit="8" fill="none" fill-rule="evenodd"/><path d="M1662 788 1662 2012.59" stroke="#00B0F0" stroke-width="10.3125" stroke-miterlimit="8" fill="none" fill-rule="evenodd"/><path d="M1487 1398.85 1901.58 1398.85 1901.58 1401.15 1487 1401.15ZM1897 1386.25 1924.5 1400 1897 1413.75Z" fill="#FFFFFF"/><path d="M6563 1662 6650.5 1662" stroke="#00B0F0" stroke-width="10.3125" stroke-miterlimit="8" fill="none" fill-rule="evenodd"/><path d="M6563 2187 6738 2187" stroke="#00B0F0" stroke-width="10.3125" stroke-miterlimit="8" fill="none" fill-rule="evenodd"/><path d="M6650 875 6650 1662.23" stroke="#00B0F0" stroke-width="10.3125" stroke-miterlimit="8" fill="none" fill-rule="evenodd"/><path d="M6738 788 6738 2188.3" stroke="#00B0F0" stroke-width="10.3125" stroke-miterlimit="8" fill="none" fill-rule="evenodd"/><path d="M6255 2086 6601 2086 6601 2378.33 6543.33 2436 6255 2436Z" fill="#A9D18E" fill-rule="evenodd"/><path d="M6543.33 2436 6554.87 2389.87 6601 2378.33Z" fill="#88A872" fill-rule="evenodd"/><path d="M6543.33 2436 6554.87 2389.87 6601 2378.33 6543.33 2436 6255 2436 6255 2086 6601 2086 6601 2378.33" stroke="#385723" stroke-width="10.3125" stroke-miterlimit="8" fill="none" fill-rule="evenodd"/><text fill="#FFFFFF" font-family="Calibri,Calibri_MSFontService,sans-serif" font-weight="400" font-size="50" transform="matrix(1 0 0 1 6402.77 2250)">csv</text><path d="M6311 2156 6657 2156 6657 2448.33 6599.33 2506 6311 2506Z" fill="#A9D18E" fill-rule="evenodd"/><path d="M6599.33 2506 6610.87 2459.87 6657 2448.33Z" fill="#88A872" fill-rule="evenodd"/><path d="M6599.33 2506 6610.87 2459.87 6657 2448.33 6599.33 2506 6311 2506 6311 2156 6657 2156 6657 2448.33" stroke="#385723" stroke-width="10.3125" stroke-miterlimit="8" fill="none" fill-rule="evenodd"/><text fill="#FFFFFF" font-family="Calibri,Calibri_MSFontService,sans-serif" font-weight="400" font-size="50" transform="matrix(1 0 0 1 6458.4 2320)">csv</text><path d="M4432 2135.42C4432 2116.41 4447.41 2101 4466.42 2101L5534.58 2101C5553.59 2101 5569 2116.41 5569 2135.42L5569 2677.58C5569 2696.59 5553.59 2712 5534.58 2712L4466.42 2712C4447.41 2712 4432 2696.59 4432 2677.58Z" stroke="#000000" stroke-width="10.3125" stroke-miterlimit="8" fill="#2E75B6" fill-rule="evenodd"/><g><text fill="#FFFFFF" font-family="BIZ UDGothic,BIZ UDGothic_MSFontService,sans-serif" font-weight="400" font-size="50" transform="matrix(1 0 0 1 4461.23 2169)">MPU6050</text></g><g><text fill="#FFFFFF" font-family="BIZ UDGothic,BIZ UDGothic_MSFontService,sans-serif" font-weight="400" font-size="50" transform="matrix(1 0 0 1 4637.69 2169)">名</text></g><g><text fill="#FFFFFF" font-family="BIZ UDGothic,BIZ UDGothic_MSFontService,sans-serif" font-weight="400" font-size="50" transform="matrix(1 0 0 1 4688.11 2169)">Impl</text></g><g><text fill="#FFFFFF" font-family="BIZ UDGothic,BIZ UDGothic_MSFontService,sans-serif" font-weight="400" font-size="50" transform="matrix(1 0 0 1 4788.94 2169)">クラス</text></g><path d="M4519.5 2192.48C4519.5 2189.73 4521.73 2187.5 4524.48 2187.5L5477.52 2187.5C5480.27 2187.5 5482.5 2189.73 5482.5 2192.48L5482.5 2611.52C5482.5 2614.27 5480.27 2616.5 5477.52 2616.5L4524.48 2616.5C4521.73 2616.5 4519.5 2614.27 4519.5 2611.52Z" stroke="#5B9BD5" stroke-width="4.58333" stroke-miterlimit="8" stroke-dasharray="18.3333 13.75" fill="#203864" fill-rule="evenodd"/><g><text fill="#C198E0" font-family="BIZ UDGothic,BIZ UDGothic_MSFontService,sans-serif" font-weight="400" font-size="50" transform="matrix(1 0 0 1 4540.11 2247)">doGPIO</text></g><g><text fill="#C198E0" font-family="BIZ UDGothic,BIZ UDGothic_MSFontService,sans-serif" font-weight="400" font-size="50" transform="matrix(1 0 0 1 4691.36 2247)">センサ名</text></g><g><text fill="#C198E0" font-family="BIZ UDGothic,BIZ UDGothic_MSFontService,sans-serif" font-weight="400" font-size="50" transform="matrix(1 0 0 1 4893.03 2247)">Impl</text></g><g><text fill="#C198E0" font-family="BIZ UDGothic,BIZ UDGothic_MSFontService,sans-serif" font-weight="400" font-size="50" transform="matrix(1 0 0 1 4993.86 2247)">関数</text></g><path d="M4607.5 2290.17C4607.5 2282.07 4614.07 2275.5 4622.17 2275.5L5379.83 2275.5C5387.93 2275.5 5394.5 2282.07 5394.5 2290.17L5394.5 2348.83C5394.5 2356.93 5387.93 2363.5 5379.83 2363.5L4622.17 2363.5C4614.07 2363.5 4607.5 2356.93 4607.5 2348.83Z" stroke="#5B9BD5" stroke-width="4.58333" stroke-miterlimit="8" stroke-dasharray="18.3333 13.75" fill="#203864" fill-rule="evenodd"/><g><text fill="#C198E0" font-family="BIZ UDGothic,BIZ UDGothic_MSFontService,sans-serif" font-weight="400" font-size="50" transform="matrix(1 0 0 1 4630.49 2341)">__read_sensor</text></g><g><text fill="#C198E0" font-family="BIZ UDGothic,BIZ UDGothic_MSFontService,sans-serif" font-weight="400" font-size="50" transform="matrix(1 0 0 1 4958.2 2341)">関数</text></g><path d="M4607.5 2464.33C4607.5 2456.14 4614.14 2449.5 4622.33 2449.5L5379.67 2449.5C5387.86 2449.5 5394.5 2456.14 5394.5 2464.33L5394.5 2523.67C5394.5 2531.86 5387.86 2538.5 5379.67 2538.5L4622.33 2538.5C4614.14 2538.5 4607.5 2531.86 4607.5 2523.67Z" stroke="#5B9BD5" stroke-width="4.58333" stroke-miterlimit="8" stroke-dasharray="18.3333 13.75" fill="#203864" fill-rule="evenodd"/><g><text fill="#C198E0" font-family="BIZ UDGothic,BIZ UDGothic_MSFontService,sans-serif" font-weight="400" font-size="50" transform="matrix(1 0 0 1 4630.49 2516)">__output_csv</text></g><g><text fill="#C198E0" font-family="BIZ UDGothic,BIZ UDGothic_MSFontService,sans-serif" font-weight="400" font-size="50" transform="matrix(1 0 0 1 4932.99 2516)">関数</text></g><path d="M4486 2222.42C4486 2203.41 4501.41 2188 4520.42 2188L5588.58 2188C5607.59 2188 5623 2203.41 5623 2222.42L5623 2764.58C5623 2783.59 5607.59 2799 5588.58 2799L4520.42 2799C4501.41 2799 4486 2783.59 4486 2764.58Z" stroke="#000000" stroke-width="10.3125" stroke-miterlimit="8" fill="#2E75B6" fill-rule="evenodd"/><g><text fill="#FFFFFF" font-family="BIZ UDGothic,BIZ UDGothic_MSFontService,sans-serif" font-weight="400" font-size="50" transform="matrix(1 0 0 1 4515.25 2257)">BME280Impl</text></g><g><text fill="#FFFFFF" font-family="BIZ UDGothic,BIZ UDGothic_MSFontService,sans-serif" font-weight="400" font-size="50" transform="matrix(1 0 0 1 4767.33 2257)">クラス</text></g><path d="M4573.5 2280.47C4573.5 2277.72 4575.72 2275.5 4578.47 2275.5L5531.53 2275.5C5534.28 2275.5 5536.5 2277.72 5536.5 2280.47L5536.5 2698.53C5536.5 2701.28 5534.28 2703.5 5531.53 2703.5L4578.47 2703.5C4575.72 2703.5 4573.5 2701.28 4573.5 2698.53Z" stroke="#5B9BD5" stroke-width="4.58333" stroke-miterlimit="8" stroke-dasharray="18.3333 13.75" fill="#203864" fill-rule="evenodd"/><g><text fill="#C198E0" font-family="BIZ UDGothic,BIZ UDGothic_MSFontService,sans-serif" font-weight="400" font-size="50" transform="matrix(1 0 0 1 4594.13 2334)">doGPIO</text></g><g><text fill="#C198E0" font-family="BIZ UDGothic,BIZ UDGothic_MSFontService,sans-serif" font-weight="400" font-size="50" transform="matrix(1 0 0 1 4745.38 2334)">センサ名</text></g><g><text fill="#C198E0" font-family="BIZ UDGothic,BIZ UDGothic_MSFontService,sans-serif" font-weight="400" font-size="50" transform="matrix(1 0 0 1 4947.04 2334)">Impl</text></g><g><text fill="#C198E0" font-family="BIZ UDGothic,BIZ UDGothic_MSFontService,sans-serif" font-weight="400" font-size="50" transform="matrix(1 0 0 1 5047.88 2334)">関数</text></g><path d="M4661.5 2377.33C4661.5 2369.14 4668.14 2362.5 4676.33 2362.5L5433.67 2362.5C5441.86 2362.5 5448.5 2369.14 5448.5 2377.33L5448.5 2436.67C5448.5 2444.86 5441.86 2451.5 5433.67 2451.5L4676.33 2451.5C4668.14 2451.5 4661.5 2444.86 4661.5 2436.67Z" stroke="#5B9BD5" stroke-width="4.58333" stroke-miterlimit="8" stroke-dasharray="18.3333 13.75" fill="#203864" fill-rule="evenodd"/><g><text fill="#C198E0" font-family="BIZ UDGothic,BIZ UDGothic_MSFontService,sans-serif" font-weight="400" font-size="50" transform="matrix(1 0 0 1 4684.5 2429)">__read_sensor</text></g><g><text fill="#C198E0" font-family="BIZ UDGothic,BIZ UDGothic_MSFontService,sans-serif" font-weight="400" font-size="50" transform="matrix(1 0 0 1 5012.21 2429)">関数</text></g><path d="M4661.5 2552.33C4661.5 2544.14 4668.14 2537.5 4676.33 2537.5L5433.67 2537.5C5441.86 2537.5 5448.5 2544.14 5448.5 2552.33L5448.5 2611.67C5448.5 2619.86 5441.86 2626.5 5433.67 2626.5L4676.33 2626.5C4668.14 2626.5 4661.5 2619.86 4661.5 2611.67Z" stroke="#5B9BD5" stroke-width="4.58333" stroke-miterlimit="8" stroke-dasharray="18.3333 13.75" fill="#203864" fill-rule="evenodd"/><g><text fill="#C198E0" font-family="BIZ UDGothic,BIZ UDGothic_MSFontService,sans-serif" font-weight="400" font-size="50" transform="matrix(1 0 0 1 4684.5 2604)">__output_csv</text></g><g><text fill="#C198E0" font-family="BIZ UDGothic,BIZ UDGothic_MSFontService,sans-serif" font-weight="400" font-size="50" transform="matrix(1 0 0 1 4987 2604)">関数</text></g><path d="M4289 1427.54C4289 1406.81 4305.81 1390 4326.54 1390L5818.46 1390C5839.19 1390 5856 1406.81 5856 1427.54L5856 2850.46C5856 2871.19 5839.19 2888 5818.46 2888L4326.54 2888C4305.81 2888 4289 2871.19 4289 2850.46Z" fill="#000000" fill-rule="evenodd" fill-opacity="0.698039"/><path d="M1464 1355.75 1825.5 1355.75 1825.5 1310 1917 1401.5 1825.5 1493 1825.5 1447.25 1464 1447.25Z" fill="#FF0000" fill-rule="evenodd" fill-opacity="0.6"/><path d="M2246 1347.25 2387.5 1347.25 2387.5 1302 2478 1392.5 2387.5 1483 2387.5 1437.75 2246 1437.75Z" fill="#FF0000" fill-rule="evenodd" fill-opacity="0.6"/><path d="M2464 1748.25 2603.5 1748.25 2603.5 1703 2694 1793.5 2603.5 1884 2603.5 1838.75 2464 1838.75Z" fill="#FF0000" fill-rule="evenodd" fill-opacity="0.6"/><path d="M4182 3704 4260 3626 4260 3665 6170 3665 6170 3626 6248 3704 6170 3782 6170 3743 4260 3743 4260 3782Z" fill="#FF0000" fill-rule="evenodd" fill-opacity="0.6"/><path d="M4182 3973 4260 3895 4260 3934 6170 3934 6170 3895 6248 3973 6170 4051 6170 4012 4260 4012 4260 4051Z" fill="#FF0000" fill-rule="evenodd" fill-opacity="0.6"/><path d="M4182 4243 4260 4165 4260 4204 6170 4204 6170 4165 6248 4243 6170 4321 6170 4282 4260 4282 4260 4321Z" fill="#FF0000" fill-rule="evenodd" fill-opacity="0.6"/><path d="M5376 4688.4C5376 4681.55 5381.55 4676 5388.4 4676L6038.6 4676C6045.45 4676 6051 4681.55 6051 4688.4L6051 5158.6C6051 5165.45 6045.45 5171 6038.6 5171L5388.4 5171C5381.55 5171 5376 5165.45 5376 5158.6Z" fill="#000000" fill-rule="evenodd" fill-opacity="0.698039"/></g></svg>