<svg width="5696" height="4467" xmlns="http://www.w3.org/2000/svg" xmlns:xlink="http://www.w3.org/1999/xlink" xml:space="preserve" overflow="hidden"><g transform="translate(-1135 -695)"><path d="M1837.5 1032.92C1837.5 994.581 1868.58 963.5 1906.92 963.5L6056.08 963.5C6094.42 963.5 6125.5 994.581 6125.5 1032.92L6125.5 4569.08C6125.5 4607.42 6094.42 4638.5 6056.08 4638.5L1906.92 4638.5C1868.58 4638.5 1837.5 4607.42 1837.5 4569.08Z" stroke="#F2F2F2" stroke-width="4.58333" stroke-miterlimit="8" fill="none" fill-rule="evenodd"/><g><text fill="#FFFFFF" font-family="BIZ UDGothic,BIZ UDGothic_MSFontService,sans-serif" font-weight="400" font-size="50" transform="matrix(1 0 0 1 1877.32 1041)">space_balloon.py</text></g><path d="M2373 1076.39C2373 1061.82 2384.81 1050 2399.39 1050L6011.61 1050C6026.19 1050 6038 1061.82 6038 1076.39L6038 4523.61C6038 4538.18 6026.19 4550 6011.61 4550L2399.39 4550C2384.81 4550 2373 4538.18 2373 4523.61Z" stroke="#000000" stroke-width="10.3125" stroke-miterlimit="8" fill="#2F5597" fill-rule="evenodd"/><g><text fill="#FFFFFF" font-family="BIZ UDGothic,BIZ UDGothic_MSFontService,sans-serif" font-weight="400" font-size="50" transform="matrix(1 0 0 1 2400.22 1116)">SensorWrapper</text></g><g><text fill="#FFFFFF" font-family="BIZ UDGothic,BIZ UDGothic_MSFontService,sans-serif" font-weight="400" font-size="50" transform="matrix(1 0 0 1 2727.93 1116)">クラス</text></g><path d="M2449.5 1152C2449.5 1143.99 2455.99 1137.5 2464 1137.5L3048 1137.5C3056.01 1137.5 3062.5 1143.99 3062.5 1152L3062.5 1210C3062.5 1218.01 3056.01 1224.5 3048 1224.5L2464 1224.5C2455.99 1224.5 2449.5 1218.01 2449.5 1210Z" stroke="#ED7D31" stroke-width="4.58333" stroke-miterlimit="8" stroke-dasharray="18.3333 13.75" fill="#ED7D31" fill-rule="evenodd"/><g><text fill="#FFFFFF" font-family="BIZ UDGothic,BIZ UDGothic_MSFontService,sans-serif" font-weight="400" font-size="50" transform="matrix(1 0 0 1 2472.66 1200)">パラメータ群</text></g><path d="M2445.5 1315.67C2445.5 1302.32 2456.32 1291.5 2469.67 1291.5L5926.33 1291.5C5939.68 1291.5 5950.5 1302.32 5950.5 1315.67L5950.5 4439.33C5950.5 4452.68 5939.68 4463.5 5926.33 4463.5L2469.67 4463.5C2456.32 4463.5 2445.5 4452.68 2445.5 4439.33Z" stroke="#5B9BD5" stroke-width="4.58333" stroke-miterlimit="8" stroke-dasharray="18.3333 13.75" fill="#203864" fill-rule="evenodd"/><g><text fill="#C198E0" font-family="BIZ UDGothic,BIZ UDGothic_MSFontService,sans-serif" font-weight="400" font-size="50" transform="matrix(1 0 0 1 2471.42 1356)">doSensorWrapper</text></g><g><text fill="#C198E0" font-family="BIZ UDGothic,BIZ UDGothic_MSFontService,sans-serif" font-weight="400" font-size="50" transform="matrix(1 0 0 1 2849.55 1356)">関数</text></g><path d="M1925.5 1324.66C1925.5 1319.6 1929.6 1315.5 1934.66 1315.5L2266.34 1315.5C2271.4 1315.5 2275.5 1319.6 2275.5 1324.66L2275.5 1478.34C2275.5 1483.4 2271.4 1487.5 2266.34 1487.5L1934.66 1487.5C1929.6 1487.5 1925.5 1483.4 1925.5 1478.34Z" stroke="#5B9BD5" stroke-width="4.58333" stroke-miterlimit="8" stroke-dasharray="18.3333 13.75" fill="#203864" fill-rule="evenodd"/><g><text fill="#C198E0" font-family="BIZ UDGothic,BIZ UDGothic_MSFontService,sans-serif" font-weight="400" font-size="50" transform="matrix(1 0 0 1 1947.18 1424)">main</text></g><text fill="#C198E0" font-family="BIZ UDGothic,BIZ UDGothic_MSFontService,sans-serif" font-weight="400" font-size="50" transform="matrix(1 0 0 1 2048.01 1424)">関数</text><path d="M2275 1398.85 2427.08 1398.85 2427.08 1401.15 2275 1401.15ZM2422.5 1386.25 2450 1400 2422.5 1413.75Z" fill="#FFFFFF"/><rect x="5425" y="4725" width="525" height="350" stroke="#FF0000" stroke-width="10.3125" stroke-miterlimit="8" fill="#ED7D31"/><g><text fill="#FFFFFF" font-family="BIZ UDGothic,BIZ UDGothic_MSFontService,sans-serif" font-weight="400" font-size="50" transform="matrix(1 0 0 1 5444.49 4783)">センサー群</text></g><g><text fill="#FFFFFF" font-family="BIZ UDGothic,BIZ UDGothic_MSFontService,sans-serif" font-weight="400" font-size="50" transform="matrix(1 0 0 1 5444.49 4848)">・</text></g><text fill="#FFFFFF" font-family="BIZ UDGothic,BIZ UDGothic_MSFontService,sans-serif" font-weight="400" font-size="50" transform="matrix(1 0 0 1 5494.9 4848)">Camera Module</text><g><text fill="#FFFFFF" font-family="BIZ UDGothic,BIZ UDGothic_MSFontService,sans-serif" font-weight="400" font-size="50" transform="matrix(1 0 0 1 5444.49 4914)">・</text></g><text fill="#FFFFFF" font-family="BIZ UDGothic,BIZ UDGothic_MSFontService,sans-serif" font-weight="400" font-size="50" transform="matrix(1 0 0 1 5494.9 4914)">BME280</text><g><text fill="#FFFFFF" font-family="BIZ UDGothic,BIZ UDGothic_MSFontService,sans-serif" font-weight="400" font-size="50" transform="matrix(1 0 0 1 5444.49 4980)">・</text></g><text fill="#FFFFFF" font-family="BIZ UDGothic,BIZ UDGothic_MSFontService,sans-serif" font-weight="400" font-size="50" transform="matrix(1 0 0 1 5494.9 4980)">MPU6050</text><path d="M6213 2713 6561 2713 6561 3004 6503 3062 6213 3062Z" fill="#A9D18E" fill-rule="evenodd"/><path d="M6503 3062 6514.6 3015.6 6561 3004Z" fill="#88A872" fill-rule="evenodd"/><path d="M6503 3062 6514.6 3015.6 6561 3004 6503 3062 6213 3062 6213 2713 6561 2713 6561 3004" stroke="#385723" stroke-width="10.3125" stroke-miterlimit="8" fill="none" fill-rule="evenodd"/><text fill="#FFFFFF" font-family="Calibri,Calibri_MSFontService,sans-serif" font-weight="400" font-size="50" transform="matrix(1 0 0 1 6361.58 2876)">csv</text><path d="M6213 2012 6559 2012 6559 2304.33 6501.33 2362 6213 2362Z" fill="#A9D18E" fill-rule="evenodd"/><path d="M6501.33 2362 6512.87 2315.87 6559 2304.33Z" fill="#88A872" fill-rule="evenodd"/><path d="M6501.33 2362 6512.87 2315.87 6559 2304.33 6501.33 2362 6213 2362 6213 2012 6559 2012 6559 2304.33" stroke="#385723" stroke-width="10.3125" stroke-miterlimit="8" fill="none" fill-rule="evenodd"/><text fill="#FFFFFF" font-family="Calibri,Calibri_MSFontService,sans-serif" font-weight="400" font-size="50" transform="matrix(1 0 0 1 6360.29 2176)">csv</text><path d="M6213 4113 6548 4113 6548 4331.33 6504.33 4375 6213 4375Z" fill="#0000FF" fill-rule="evenodd"/><path d="M6504.33 4375 6513.07 4340.07 6548 4331.33Z" fill="#0000CD" fill-rule="evenodd"/><path d="M6504.33 4375 6513.07 4340.07 6548 4331.33 6504.33 4375 6213 4375 6213 4113 6548 4113 6548 4331.33" stroke="#00B050" stroke-width="10.3125" stroke-miterlimit="8" fill="none" fill-rule="evenodd"/><text fill="#FFFFFF" font-family="Calibri,Calibri_MSFontService,sans-serif" font-weight="400" font-size="50" transform="matrix(1 0 0 1 6257.3 4178)">H.264 movie</text><text fill="#FFFFFF" font-family="Calibri,Calibri_MSFontService,sans-serif" font-weight="400" font-size="50" transform="matrix(1 0 0 1 6364.46 4240)">or</text><g><text fill="#FFFFFF" font-family="Calibri,Calibri_MSFontService,sans-serif" font-weight="400" font-size="50" transform="matrix(1 0 0 1 6290.46 4301)">MP4 ovie</text></g><path d="M6213.5 1487.5 6563.5 1487.5 6563.5 1779.17 6505.17 1837.5 6213.5 1837.5Z" fill="#0000FF" fill-rule="evenodd"/><path d="M6505.17 1837.5 6516.83 1790.83 6563.5 1779.17Z" fill="#0000CD" fill-rule="evenodd"/><path d="M6505.17 1837.5 6516.83 1790.83 6563.5 1779.17 6505.17 1837.5 6213.5 1837.5 6213.5 1487.5 6563.5 1487.5 6563.5 1779.17" stroke="#0000FF" stroke-width="4.58333" stroke-miterlimit="8" fill="none" fill-rule="evenodd"/><text fill="#FFFFFF" font-family="Calibri,Calibri_MSFontService,sans-serif" font-weight="400" font-size="50" transform="matrix(1 0 0 1 6264.76 1651)">H.264 movie</text><path d="M1758 1919.84 2511.48 1919.84 2511.48 1930.16 1758 1930.16ZM2506.33 1909.53 2537.27 1925 2506.33 1940.47Z" fill="#00B0F0"/><path d="M1137.5 1312.5 1487.5 1312.5 1487.5 1470.83 1455.83 1502.5 1137.5 1502.5Z" fill="#ED7D31" fill-rule="evenodd"/><path d="M1455.83 1502.5 1462.17 1477.17 1487.5 1470.83Z" fill="#BF6427" fill-rule="evenodd"/><path d="M1455.83 1502.5 1462.17 1477.17 1487.5 1470.83 1455.83 1502.5 1137.5 1502.5 1137.5 1312.5 1487.5 1312.5 1487.5 1470.83" stroke="#FFFFFF" stroke-width="4.58333" stroke-miterlimit="8" fill="none" fill-rule="evenodd"/><g><text fill="#FFFFFF" font-family="Yu Gothic,Yu Gothic_MSFontService,sans-serif" font-weight="400" font-size="50" transform="matrix(1 0 0 1 1150.49 1372)">オプション</text></g><path d="M2536.5 1502C2536.5 1493.99 2542.99 1487.5 2551 1487.5L3138 1487.5C3146.01 1487.5 3152.5 1493.99 3152.5 1502L3152.5 1560C3152.5 1568.01 3146.01 1574.5 3138 1574.5L2551 1574.5C2542.99 1574.5 2536.5 1568.01 2536.5 1560Z" stroke="#5B9BD5" stroke-width="4.58333" stroke-miterlimit="8" stroke-dasharray="18.3333 13.75" fill="#203864" fill-rule="evenodd"/><g><text fill="#C198E0" font-family="BIZ UDGothic,BIZ UDGothic_MSFontService,sans-serif" font-weight="400" font-size="50" transform="matrix(1 0 0 1 2560.16 1553)">__read_args</text></g><g><text fill="#C198E0" font-family="BIZ UDGothic,BIZ UDGothic_MSFontService,sans-serif" font-weight="400" font-size="50" transform="matrix(1 0 0 1 2837.45 1553)">関数</text></g><path d="M4286.5 1427.2C4286.5 1413.01 4298.01 1401.5 4312.2 1401.5L5837.8 1401.5C5851.99 1401.5 5863.5 1413.01 5863.5 1427.2L5863.5 3562.8C5863.5 3576.99 5851.99 3588.5 5837.8 3588.5L4312.2 3588.5C4298.01 3588.5 4286.5 3576.99 4286.5 3562.8Z" stroke="#5B9BD5" stroke-width="4.58333" stroke-miterlimit="8" stroke-dasharray="18.3333 13.75" fill="#203864" fill-rule="evenodd"/><g><text fill="#C198E0" font-family="BIZ UDGothic,BIZ UDGothic_MSFontService,sans-serif" font-weight="400" font-size="50" transform="matrix(1 0 0 1 4312.95 1467)">__setup_sensors</text></g><g><text fill="#C198E0" font-family="BIZ UDGothic,BIZ UDGothic_MSFontService,sans-serif" font-weight="400" font-size="50" transform="matrix(1 0 0 1 4691.08 1467)">関数</text></g><path d="M3500.5 1509.5C3500.5 1501.77 3506.77 1495.5 3514.5 1495.5L4102.5 1495.5C4110.23 1495.5 4116.5 1501.77 4116.5 1509.5L4116.5 1565.5C4116.5 1573.23 4110.23 1579.5 4102.5 1579.5L3514.5 1579.5C3506.77 1579.5 3500.5 1573.23 3500.5 1565.5Z" stroke="#5B9BD5" stroke-width="4.58333" stroke-miterlimit="8" stroke-dasharray="18.3333 13.75" fill="#203864" fill-rule="evenodd"/><g><text fill="#C198E0" font-family="BIZ UDGothic,BIZ UDGothic_MSFontService,sans-serif" font-weight="400" font-size="50" transform="matrix(1 0 0 1 3523.59 1559)">その他関数</text></g><path d="M4375 1502.52C4375 1493.95 4381.95 1487 4390.52 1487L5497.48 1487C5506.05 1487 5513 1493.95 5513 1502.52L5513 1910.48C5513 1919.05 5506.05 1926 5497.48 1926L4390.52 1926C4381.95 1926 4375 1919.05 4375 1910.48Z" stroke="#000000" stroke-width="10.3125" stroke-miterlimit="8" fill="#2E75B6" fill-rule="evenodd"/><g><text fill="#FFFFFF" font-family="BIZ UDGothic,BIZ UDGothic_MSFontService,sans-serif" font-weight="400" font-size="50" transform="matrix(1 0 0 1 4399.03 1551)">CameraModuleImpl</text></g><g><text fill="#FFFFFF" font-family="BIZ UDGothic,BIZ UDGothic_MSFontService,sans-serif" font-weight="400" font-size="50" transform="matrix(1 0 0 1 4802.36 1551)">クラス</text></g><path d="M4463.5 1596.66C4463.5 1584.97 4472.97 1575.5 4484.66 1575.5L5404.34 1575.5C5416.03 1575.5 5425.5 1584.97 5425.5 1596.66L5425.5 1817.34C5425.5 1829.03 5416.03 1838.5 5404.34 1838.5L4484.66 1838.5C4472.97 1838.5 4463.5 1829.03 4463.5 1817.34Z" stroke="#5B9BD5" stroke-width="4.58333" stroke-miterlimit="8" stroke-dasharray="18.3333 13.75" fill="#203864" fill-rule="evenodd"/><g><text fill="#C198E0" font-family="BIZ UDGothic,BIZ UDGothic_MSFontService,sans-serif" font-weight="400" font-size="50" transform="matrix(1 0 0 1 4488.19 1640)">doCameraModuleImpl</text></g><g><text fill="#C198E0" font-family="BIZ UDGothic,BIZ UDGothic_MSFontService,sans-serif" font-weight="400" font-size="50" transform="matrix(1 0 0 1 4941.94 1640)">関数</text></g><path d="M4553.5 1677.5C4553.5 1669.77 4559.77 1663.5 4567.5 1663.5L5324.5 1663.5C5332.23 1663.5 5338.5 1669.77 5338.5 1677.5L5338.5 1733.5C5338.5 1741.23 5332.23 1747.5 5324.5 1747.5L4567.5 1747.5C4559.77 1747.5 4553.5 1741.23 4553.5 1733.5Z" stroke="#5B9BD5" stroke-width="4.58333" stroke-miterlimit="8" stroke-dasharray="18.3333 13.75" fill="#203864" fill-rule="evenodd"/><g><text fill="#C198E0" font-family="BIZ UDGothic,BIZ UDGothic_MSFontService,sans-serif" font-weight="400" font-size="50" transform="matrix(1 0 0 1 4576.33 1727)">__start_camera_module</text></g><g><text fill="#C198E0" font-family="BIZ UDGothic,BIZ UDGothic_MSFontService,sans-serif" font-weight="400" font-size="50" transform="matrix(1 0 0 1 5105.71 1727)">関数</text></g><path d="M4375 2048.42C4375 2029.41 4390.41 2014 4409.42 2014L5478.58 2014C5497.59 2014 5513 2029.41 5513 2048.42L5513 2590.58C5513 2609.59 5497.59 2625 5478.58 2625L4409.42 2625C4390.41 2625 4375 2609.59 4375 2590.58Z" stroke="#000000" stroke-width="10.3125" stroke-miterlimit="8" fill="#2E75B6" fill-rule="evenodd"/><g><text fill="#FFFFFF" font-family="BIZ UDGothic,BIZ UDGothic_MSFontService,sans-serif" font-weight="400" font-size="50" transform="matrix(1 0 0 1 4404.57 2082)">BME280Impl</text></g><g><text fill="#FFFFFF" font-family="BIZ UDGothic,BIZ UDGothic_MSFontService,sans-serif" font-weight="400" font-size="50" transform="matrix(1 0 0 1 4656.65 2082)">クラス</text></g><path d="M4463.5 2105.48C4463.5 2102.73 4465.73 2100.5 4468.48 2100.5L5420.52 2100.5C5423.27 2100.5 5425.5 2102.73 5425.5 2105.48L5425.5 2524.52C5425.5 2527.27 5423.27 2529.5 5420.52 2529.5L4468.48 2529.5C4465.73 2529.5 4463.5 2527.27 4463.5 2524.52Z" stroke="#5B9BD5" stroke-width="4.58333" stroke-miterlimit="8" stroke-dasharray="18.3333 13.75" fill="#203864" fill-rule="evenodd"/><g><text fill="#C198E0" font-family="BIZ UDGothic,BIZ UDGothic_MSFontService,sans-serif" font-weight="400" font-size="50" transform="matrix(1 0 0 1 4483.45 2160)">doBME280Impl</text></g><g><text fill="#C198E0" font-family="BIZ UDGothic,BIZ UDGothic_MSFontService,sans-serif" font-weight="400" font-size="50" transform="matrix(1 0 0 1 4785.95 2160)">関数</text></g><path d="M4550.5 2202.33C4550.5 2194.14 4557.14 2187.5 4565.33 2187.5L5323.67 2187.5C5331.86 2187.5 5338.5 2194.14 5338.5 2202.33L5338.5 2261.67C5338.5 2269.86 5331.86 2276.5 5323.67 2276.5L4565.33 2276.5C4557.14 2276.5 4550.5 2269.86 4550.5 2261.67Z" stroke="#5B9BD5" stroke-width="4.58333" stroke-miterlimit="8" stroke-dasharray="18.3333 13.75" fill="#203864" fill-rule="evenodd"/><g><text fill="#C198E0" font-family="BIZ UDGothic,BIZ UDGothic_MSFontService,sans-serif" font-weight="400" font-size="50" transform="matrix(1 0 0 1 4573.82 2254)">__read_sensor</text></g><g><text fill="#C198E0" font-family="BIZ UDGothic,BIZ UDGothic_MSFontService,sans-serif" font-weight="400" font-size="50" transform="matrix(1 0 0 1 4901.53 2254)">関数</text></g><path d="M4550.5 2377.33C4550.5 2369.14 4557.14 2362.5 4565.33 2362.5L5323.67 2362.5C5331.86 2362.5 5338.5 2369.14 5338.5 2377.33L5338.5 2436.67C5338.5 2444.86 5331.86 2451.5 5323.67 2451.5L4565.33 2451.5C4557.14 2451.5 4550.5 2444.86 4550.5 2436.67Z" stroke="#5B9BD5" stroke-width="4.58333" stroke-miterlimit="8" stroke-dasharray="18.3333 13.75" fill="#203864" fill-rule="evenodd"/><g><text fill="#C198E0" font-family="BIZ UDGothic,BIZ UDGothic_MSFontService,sans-serif" font-weight="400" font-size="50" transform="matrix(1 0 0 1 4573.82 2429)">__output_csv</text></g><g><text fill="#C198E0" font-family="BIZ UDGothic,BIZ UDGothic_MSFontService,sans-serif" font-weight="400" font-size="50" transform="matrix(1 0 0 1 4876.32 2429)">関数</text></g><path d="M4375 2747.68C4375 2728.53 4390.53 2713 4409.68 2713L5477.32 2713C5496.47 2713 5512 2728.53 5512 2747.68L5512 3465.32C5512 3484.47 5496.47 3500 5477.32 3500L4409.68 3500C4390.53 3500 4375 3484.47 4375 3465.32Z" stroke="#000000" stroke-width="10.3125" stroke-miterlimit="8" fill="#2E75B6" fill-rule="evenodd"/><g><text fill="#FFFFFF" font-family="BIZ UDGothic,BIZ UDGothic_MSFontService,sans-serif" font-weight="400" font-size="50" transform="matrix(1 0 0 1 4404.65 2781)">MPU6050Impl</text></g><g><text fill="#FFFFFF" font-family="BIZ UDGothic,BIZ UDGothic_MSFontService,sans-serif" font-weight="400" font-size="50" transform="matrix(1 0 0 1 4681.94 2781)">クラス</text></g><path d="M4461.5 2811.46C4461.5 2805.41 4466.41 2800.5 4472.46 2800.5L5414.54 2800.5C5420.59 2800.5 5425.5 2805.41 5425.5 2811.46L5425.5 3428.54C5425.5 3434.59 5420.59 3439.5 5414.54 3439.5L4472.46 3439.5C4466.41 3439.5 4461.5 3434.59 4461.5 3428.54Z" stroke="#5B9BD5" stroke-width="4.58333" stroke-miterlimit="8" stroke-dasharray="18.3333 13.75" fill="#203864" fill-rule="evenodd"/><g><text fill="#C198E0" font-family="BIZ UDGothic,BIZ UDGothic_MSFontService,sans-serif" font-weight="400" font-size="50" transform="matrix(1 0 0 1 4484.13 2862)">doMPU6050Impl</text></g><g><text fill="#C198E0" font-family="BIZ UDGothic,BIZ UDGothic_MSFontService,sans-serif" font-weight="400" font-size="50" transform="matrix(1 0 0 1 4811.84 2862)">関数</text></g><path d="M4550.5 3252.33C4550.5 3244.14 4557.14 3237.5 4565.33 3237.5L5323.67 3237.5C5331.86 3237.5 5338.5 3244.14 5338.5 3252.33L5338.5 3311.67C5338.5 3319.86 5331.86 3326.5 5323.67 3326.5L4565.33 3326.5C4557.14 3326.5 4550.5 3319.86 4550.5 3311.67Z" stroke="#5B9BD5" stroke-width="4.58333" stroke-miterlimit="8" stroke-dasharray="18.3333 13.75" fill="#203864" fill-rule="evenodd"/><g><text fill="#C198E0" font-family="BIZ UDGothic,BIZ UDGothic_MSFontService,sans-serif" font-weight="400" font-size="50" transform="matrix(1 0 0 1 4573.82 3304)">__output_csv</text></g><g><text fill="#C198E0" font-family="BIZ UDGothic,BIZ UDGothic_MSFontService,sans-serif" font-weight="400" font-size="50" transform="matrix(1 0 0 1 4876.32 3304)">関数</text></g><path d="M4550.5 2912C4550.5 2899.57 4560.57 2889.5 4573 2889.5L5316 2889.5C5328.43 2889.5 5338.5 2899.57 5338.5 2912L5338.5 3129C5338.5 3141.43 5328.43 3151.5 5316 3151.5L4573 3151.5C4560.57 3151.5 4550.5 3141.43 4550.5 3129Z" stroke="#5B9BD5" stroke-width="4.58333" stroke-miterlimit="8" stroke-dasharray="18.3333 13.75" fill="#203864" fill-rule="evenodd"/><g><text fill="#C198E0" font-family="BIZ UDGothic,BIZ UDGothic_MSFontService,sans-serif" font-weight="400" font-size="50" transform="matrix(1 0 0 1 4576.09 2954)">__read_sensor</text></g><g><text fill="#C198E0" font-family="BIZ UDGothic,BIZ UDGothic_MSFontService,sans-serif" font-weight="400" font-size="50" transform="matrix(1 0 0 1 4903.8 2954)">関数</text></g><path d="M4638.5 2990.33C4638.5 2982.14 4645.14 2975.5 4653.33 2975.5L5148.67 2975.5C5156.86 2975.5 5163.5 2982.14 5163.5 2990.33L5163.5 3049.67C5163.5 3057.86 5156.86 3064.5 5148.67 3064.5L4653.33 3064.5C4645.14 3064.5 4638.5 3057.86 4638.5 3049.67Z" stroke="#5B9BD5" stroke-width="4.58333" stroke-miterlimit="8" stroke-dasharray="18.3333 13.75" fill="#203864" fill-rule="evenodd"/><g><text fill="#C198E0" font-family="BIZ UDGothic,BIZ UDGothic_MSFontService,sans-serif" font-weight="400" font-size="50" transform="matrix(1 0 0 1 4661.32 3042)">__read_word</text></g><g><text fill="#C198E0" font-family="BIZ UDGothic,BIZ UDGothic_MSFontService,sans-serif" font-weight="400" font-size="50" transform="matrix(1 0 0 1 4938.62 3042)">関数</text></g><path d="M2538 1703.65C2538 1680.65 2556.65 1662 2579.65 1662L4158.35 1662C4181.35 1662 4200 1680.65 4200 1703.65L4200 4333.35C4200 4356.35 4181.35 4375 4158.35 4375L2579.65 4375C2556.65 4375 2538 4356.35 2538 4333.35Z" stroke="#000000" stroke-width="10.3125" stroke-miterlimit="8" fill="#1F4E79" fill-rule="evenodd"/><g><text fill="#FFFFFF" font-family="BIZ UDGothic,BIZ UDGothic_MSFontService,sans-serif" font-weight="400" font-size="50" transform="matrix(1 0 0 1 2569.19 1733)">SensorAnalyzerImpl</text></g><g><text fill="#FFFFFF" font-family="BIZ UDGothic,BIZ UDGothic_MSFontService,sans-serif" font-weight="400" font-size="50" transform="matrix(1 0 0 1 3022.94 1733)">クラス</text></g><path d="M2625.5 1880.21C2625.5 1857.17 2644.17 1838.5 2667.21 1838.5L4071.79 1838.5C4094.83 1838.5 4113.5 1857.17 4113.5 1880.21L4113.5 4246.79C4113.5 4269.83 4094.83 4288.5 4071.79 4288.5L2667.21 4288.5C2644.17 4288.5 2625.5 4269.83 2625.5 4246.79Z" stroke="#5B9BD5" stroke-width="4.58333" stroke-miterlimit="8" stroke-dasharray="18.3333 13.75" fill="#203864" fill-rule="evenodd"/><g><text fill="#C198E0" font-family="BIZ UDGothic,BIZ UDGothic_MSFontService,sans-serif" font-weight="400" font-size="50" transform="matrix(1 0 0 1 2656.7 1908)">doSensorAnalyzerImplImpl</text></g><g><text fill="#C198E0" font-family="BIZ UDGothic,BIZ UDGothic_MSFontService,sans-serif" font-weight="400" font-size="50" transform="matrix(1 0 0 1 3261.7 1908)">関数</text></g><path d="M2707.5 3777.33C2707.5 3769.14 2714.14 3762.5 2722.33 3762.5L3924.67 3762.5C3932.86 3762.5 3939.5 3769.14 3939.5 3777.33L3939.5 3836.67C3939.5 3844.86 3932.86 3851.5 3924.67 3851.5L2722.33 3851.5C2714.14 3851.5 2707.5 3844.86 2707.5 3836.67Z" stroke="#5B9BD5" stroke-width="4.58333" stroke-miterlimit="8" stroke-dasharray="18.3333 13.75" fill="#203864" fill-rule="evenodd"/><g><text fill="#C198E0" font-family="BIZ UDGothic,BIZ UDGothic_MSFontService,sans-serif" font-weight="400" font-size="50" transform="matrix(1 0 0 1 2731.26 3829)">__output_to_excel</text></g><g><text fill="#C198E0" font-family="BIZ UDGothic,BIZ UDGothic_MSFontService,sans-serif" font-weight="400" font-size="50" transform="matrix(1 0 0 1 3159.8 3829)">関数</text></g><path d="M2713.5 2017.37C2713.5 2014.68 2715.68 2012.5 2718.37 2012.5L3933.63 2012.5C3936.32 2012.5 3938.5 2014.68 3938.5 2017.37L3938.5 2620.63C3938.5 2623.32 3936.32 2625.5 3933.63 2625.5L2718.37 2625.5C2715.68 2625.5 2713.5 2623.32 2713.5 2620.63Z" stroke="#5B9BD5" stroke-width="4.58333" stroke-miterlimit="8" stroke-dasharray="18.3333 13.75" fill="#203864" fill-rule="evenodd"/><g><text fill="#C198E0" font-family="BIZ UDGothic,BIZ UDGothic_MSFontService,sans-serif" font-weight="400" font-size="50" transform="matrix(1 0 0 1 2733.41 2072)">__generate_alititude_csv</text></g><g><text fill="#C198E0" font-family="BIZ UDGothic,BIZ UDGothic_MSFontService,sans-serif" font-weight="400" font-size="50" transform="matrix(1 0 0 1 3338.41 2072)">関数</text></g><path d="M2800.5 2206.06C2800.5 2195.81 2808.81 2187.5 2819.06 2187.5L3831.94 2187.5C3842.19 2187.5 3850.5 2195.81 3850.5 2206.06L3850.5 2518.94C3850.5 2529.19 3842.19 2537.5 3831.94 2537.5L2819.06 2537.5C2808.81 2537.5 2800.5 2529.19 2800.5 2518.94Z" stroke="#5B9BD5" stroke-width="4.58333" stroke-miterlimit="8" stroke-dasharray="18.3333 13.75" fill="#203864" fill-rule="evenodd"/><g><text fill="#C198E0" font-family="BIZ UDGothic,BIZ UDGothic_MSFontService,sans-serif" font-weight="400" font-size="50" transform="matrix(1 0 0 1 2824.92 2251)">__calculate_altitude</text></g><g><text fill="#C198E0" font-family="BIZ UDGothic,BIZ UDGothic_MSFontService,sans-serif" font-weight="400" font-size="50" transform="matrix(1 0 0 1 3329.09 2251)">関数</text></g><path d="M2891.5 2376.33C2891.5 2368.14 2898.14 2361.5 2906.33 2361.5L3748.67 2361.5C3756.86 2361.5 3763.5 2368.14 3763.5 2376.33L3763.5 2435.67C3763.5 2443.86 3756.86 2450.5 3748.67 2450.5L2906.33 2450.5C2898.14 2450.5 2891.5 2443.86 2891.5 2435.67Z" stroke="#5B9BD5" stroke-width="4.58333" stroke-miterlimit="8" stroke-dasharray="18.3333 13.75" fill="#203864" fill-rule="evenodd"/><g><text fill="#C198E0" font-family="BIZ UDGothic,BIZ UDGothic_MSFontService,sans-serif" font-weight="400" font-size="50" transform="matrix(1 0 0 1 2914.72 2428)">__virtual_temperature</text></g><g><text fill="#C198E0" font-family="BIZ UDGothic,BIZ UDGothic_MSFontService,sans-serif" font-weight="400" font-size="50" transform="matrix(1 0 0 1 3444.1 2428)">関数</text></g><path d="M2707.5 3953.17C2707.5 3945.07 2714.07 3938.5 2722.17 3938.5L3923.83 3938.5C3931.93 3938.5 3938.5 3945.07 3938.5 3953.17L3938.5 4011.83C3938.5 4019.93 3931.93 4026.5 3923.83 4026.5L2722.17 4026.5C2714.07 4026.5 2707.5 4019.93 2707.5 4011.83Z" stroke="#5B9BD5" stroke-width="4.58333" stroke-miterlimit="8" stroke-dasharray="18.3333 13.75" fill="#203864" fill-rule="evenodd"/><g><text fill="#C198E0" font-family="BIZ UDGothic,BIZ UDGothic_MSFontService,sans-serif" font-weight="400" font-size="50" transform="matrix(1 0 0 1 2731.26 4004)">__conver_h264_to_mp4</text></g><g><text fill="#C198E0" font-family="BIZ UDGothic,BIZ UDGothic_MSFontService,sans-serif" font-weight="400" font-size="50" transform="matrix(1 0 0 1 3235.43 4004)">関数</text></g><path d="M2713.5 2728C2713.5 2719.44 2720.44 2712.5 2729 2712.5L3923 2712.5C3931.56 2712.5 3938.5 2719.44 3938.5 2728L3938.5 3660C3938.5 3668.56 3931.56 3675.5 3923 3675.5L2729 3675.5C2720.44 3675.5 2713.5 3668.56 2713.5 3660Z" stroke="#5B9BD5" stroke-width="4.58333" stroke-miterlimit="8" stroke-dasharray="18.3333 13.75" fill="#203864" fill-rule="evenodd"/><g><text fill="#C198E0" font-family="BIZ UDGothic,BIZ UDGothic_MSFontService,sans-serif" font-weight="400" font-size="50" transform="matrix(1 0 0 1 2736.53 2776)">__analyse_frame_sync</text></g><g><text fill="#C198E0" font-family="BIZ UDGothic,BIZ UDGothic_MSFontService,sans-serif" font-weight="400" font-size="50" transform="matrix(1 0 0 1 3240.69 2776)">関数</text></g><path d="M2797.5 2908.78C2797.5 2897.58 2806.58 2888.5 2817.78 2888.5L3830.22 2888.5C3841.42 2888.5 3850.5 2897.58 3850.5 2908.78L3850.5 3568.22C3850.5 3579.42 3841.42 3588.5 3830.22 3588.5L2817.78 3588.5C2806.58 3588.5 2797.5 3579.42 2797.5 3568.22Z" stroke="#5B9BD5" stroke-width="4.58333" stroke-miterlimit="8" stroke-dasharray="18.3333 13.75" fill="#203864" fill-rule="evenodd"/><g><text fill="#C198E0" font-family="BIZ UDGothic,BIZ UDGothic_MSFontService,sans-serif" font-weight="400" font-size="50" transform="matrix(1 0 0 1 2822.02 2952)">__movie_gen</text></g><g><text fill="#C198E0" font-family="BIZ UDGothic,BIZ UDGothic_MSFontService,sans-serif" font-weight="400" font-size="50" transform="matrix(1 0 0 1 3099.32 2952)">関数</text></g><path d="M2888.5 3078.17C2888.5 3070.07 2895.07 3063.5 2903.17 3063.5L3750.83 3063.5C3758.93 3063.5 3765.5 3070.07 3765.5 3078.17L3765.5 3136.83C3765.5 3144.93 3758.93 3151.5 3750.83 3151.5L2903.17 3151.5C2895.07 3151.5 2888.5 3144.93 2888.5 3136.83Z" stroke="#5B9BD5" stroke-width="4.58333" stroke-miterlimit="8" stroke-dasharray="18.3333 13.75" fill="#203864" fill-rule="evenodd"/><g><text fill="#C198E0" font-family="BIZ UDGothic,BIZ UDGothic_MSFontService,sans-serif" font-weight="400" font-size="50" transform="matrix(1 0 0 1 2911.31 3129)">__separation_h264_to_jpeg</text></g><g><text fill="#C198E0" font-family="BIZ UDGothic,BIZ UDGothic_MSFontService,sans-serif" font-weight="400" font-size="50" transform="matrix(1 0 0 1 3541.52 3129)">関数</text></g><path d="M2888.5 3251.17C2888.5 3243.07 2895.07 3236.5 2903.17 3236.5L3750.83 3236.5C3758.93 3236.5 3765.5 3243.07 3765.5 3251.17L3765.5 3309.83C3765.5 3317.93 3758.93 3324.5 3750.83 3324.5L2903.17 3324.5C2895.07 3324.5 2888.5 3317.93 2888.5 3309.83Z" stroke="#5B9BD5" stroke-width="4.58333" stroke-miterlimit="8" stroke-dasharray="18.3333 13.75" fill="#203864" fill-rule="evenodd"/><g><text fill="#C198E0" font-family="BIZ UDGothic,BIZ UDGothic_MSFontService,sans-serif" font-weight="400" font-size="50" transform="matrix(1 0 0 1 2911.31 3302)">__add_sensor_frame</text></g><g><text fill="#C198E0" font-family="BIZ UDGothic,BIZ UDGothic_MSFontService,sans-serif" font-weight="400" font-size="50" transform="matrix(1 0 0 1 3365.06 3302)">関数</text></g><path d="M2888.5 3426.33C2888.5 3418.14 2895.14 3411.5 2903.33 3411.5L3750.67 3411.5C3758.86 3411.5 3765.5 3418.14 3765.5 3426.33L3765.5 3485.67C3765.5 3493.86 3758.86 3500.5 3750.67 3500.5L2903.33 3500.5C2895.14 3500.5 2888.5 3493.86 2888.5 3485.67Z" stroke="#5B9BD5" stroke-width="4.58333" stroke-miterlimit="8" stroke-dasharray="18.3333 13.75" fill="#203864" fill-rule="evenodd"/><g><text fill="#C198E0" font-family="BIZ UDGothic,BIZ UDGothic_MSFontService,sans-serif" font-weight="400" font-size="50" transform="matrix(1 0 0 1 2911.31 3478)">__merge_jpeg_to_h264</text></g><g><text fill="#C198E0" font-family="BIZ UDGothic,BIZ UDGothic_MSFontService,sans-serif" font-weight="400" font-size="50" transform="matrix(1 0 0 1 3415.47 3478)">関数</text></g><path d="M2713.5 4125.67C2713.5 4117.29 2720.29 4110.5 2728.67 4110.5L3923.33 4110.5C3931.71 4110.5 3938.5 4117.29 3938.5 4125.67L3938.5 4186.33C3938.5 4194.71 3931.71 4201.5 3923.33 4201.5L2728.67 4201.5C2720.29 4201.5 2713.5 4194.71 2713.5 4186.33Z" stroke="#5B9BD5" stroke-width="4.58333" stroke-miterlimit="8" stroke-dasharray="18.3333 13.75" fill="#203864" fill-rule="evenodd"/><g><text fill="#C198E0" font-family="BIZ UDGothic,BIZ UDGothic_MSFontService,sans-serif" font-weight="400" font-size="50" transform="matrix(1 0 0 1 2736.44 4178)">その他関数</text></g><path d="M4225.78 3669.84 6186.72 3669.84 6186.72 3680.16 4225.78 3680.16ZM4230.94 3690.47 4200 3675 4230.94 3659.53ZM6181.56 3659.53 6212.5 3675 6181.56 3690.47Z" fill="#00B0F0"/><path d="M5513 1656.84 6187.22 1656.84 6187.22 1667.16 5513 1667.16ZM6182.06 1646.53 6213 1662 6182.06 1677.47Z" fill="#00B0F0"/><path d="M5513 2182.84 6187.22 2182.84 6187.22 2193.16 5513 2193.16ZM6182.06 2172.53 6213 2188 6182.06 2203.47Z" fill="#00B0F0"/><path d="M5513 2882.84 6187.22 2882.84 6187.22 2893.16 5513 2893.16ZM6182.06 2872.53 6213 2888 6182.06 2903.47Z" fill="#00B0F0"/><path d="M4225.78 3932.84 6186.72 3932.84 6186.72 3943.16 4225.78 3943.16ZM4230.94 3953.47 4200 3938 4230.94 3922.53ZM6181.56 3922.53 6212.5 3938 6181.56 3953.47Z" fill="#00B0F0"/><path d="M5538.78 1831.84 5775.5 1831.84 5775.5 1842.16 5538.78 1842.16ZM5543.94 1852.47 5513 1837 5543.94 1821.53Z" fill="#00B0F0"/><path d="M4200 4194.84 6186.72 4194.84 6186.72 4205.16 4200 4205.16ZM6181.56 4184.53 6212.5 4200 6181.56 4215.47Z" fill="#00B0F0"/><path d="M5538.78 2532.84 5688 2532.84 5688 2543.16 5538.78 2543.16ZM5543.94 2553.47 5513 2538 5543.94 2522.53Z" fill="#00B0F0"/><path d="M5538.78 3406.84 5600.5 3406.84 5600.5 3417.16 5538.78 3417.16ZM5543.94 3427.47 5513 3412 5543.94 3396.53Z" fill="#00B0F0"/><path d="M5605.16 3412 5605.16 4698.72 5594.84 4698.72 5594.84 3412ZM5615.47 4693.56 5600 4724.5 5584.53 4693.56Z" fill="#00B0F0"/><path d="M5780.16 1837 5780.16 4698.72 5769.84 4698.72 5769.84 1837ZM5790.47 4693.56 5775 4724.5 5759.53 4693.56Z" fill="#00B0F0"/><path d="M5693.16 2538 5693.16 4699.72 5682.84 4699.72 5682.84 2538ZM5703.47 4694.56 5688 4725.5 5672.53 4694.56Z" fill="#00B0F0"/><path d="M1653 2006.84 2511.48 2006.84 2511.48 2017.16 1653 2017.16ZM2506.33 1996.53 2537.26 2012 2506.33 2027.47Z" fill="#00B0F0"/><path d="M1575 2094.84 2511.72 2094.84 2511.72 2105.16 1575 2105.16ZM2506.56 2084.53 2537.5 2100 2506.56 2115.47Z" fill="#00B0F0"/><path d="M0 0 4900 0.000360892" stroke="#00B0F0" stroke-width="10.3125" stroke-miterlimit="8" fill="none" fill-rule="evenodd" transform="matrix(-1 0 0 1 6650 875)"/><path d="M6213.5 3573.5 6441.5 3573.5 6441.5 3690.17 6418.17 3713.5 6213.5 3713.5Z" fill="#6D6DFF" fill-rule="evenodd"/><path d="M6418.17 3713.5 6422.83 3694.83 6441.5 3690.17Z" fill="#5858CD" fill-rule="evenodd"/><path d="M6418.17 3713.5 6422.83 3694.83 6441.5 3690.17 6418.17 3713.5 6213.5 3713.5 6213.5 3573.5 6441.5 3573.5 6441.5 3690.17" stroke="#00B050" stroke-width="6.875" stroke-miterlimit="8" fill="none" fill-rule="evenodd"/><g><text fill="#FFFFFF" font-family="Calibri,Calibri_MSFontService,sans-serif" font-weight="400" font-size="50" transform="matrix(1 0 0 1 6289.73 3649)">jpeg</text></g><path d="M6241.5 3600.5 6470.5 3600.5 6470.5 3716.33 6447.33 3739.5 6241.5 3739.5Z" fill="#6D6DFF" fill-rule="evenodd"/><path d="M6447.33 3739.5 6451.97 3720.97 6470.5 3716.33Z" fill="#5858CD" fill-rule="evenodd"/><path d="M6447.33 3739.5 6451.97 3720.97 6470.5 3716.33 6447.33 3739.5 6241.5 3739.5 6241.5 3600.5 6470.5 3600.5 6470.5 3716.33" stroke="#00B050" stroke-width="6.875" stroke-miterlimit="8" fill="none" fill-rule="evenodd"/><g><text fill="#FFFFFF" font-family="Calibri,Calibri_MSFontService,sans-serif" font-weight="400" font-size="50" transform="matrix(1 0 0 1 6318 3675)">jpeg</text></g><path d="M6269.5 3630.5 6498.5 3630.5 6498.5 3746.33 6475.33 3769.5 6269.5 3769.5Z" fill="#6D6DFF" fill-rule="evenodd"/><path d="M6475.33 3769.5 6479.97 3750.97 6498.5 3746.33Z" fill="#5858CD" fill-rule="evenodd"/><path d="M6475.33 3769.5 6479.97 3750.97 6498.5 3746.33 6475.33 3769.5 6269.5 3769.5 6269.5 3630.5 6498.5 3630.5 6498.5 3746.33" stroke="#00B050" stroke-width="6.875" stroke-miterlimit="8" fill="none" fill-rule="evenodd"/><g><text fill="#FFFFFF" font-family="Calibri,Calibri_MSFontService,sans-serif" font-weight="400" font-size="50" transform="matrix(1 0 0 1 6346.27 3705)">jpeg</text></g><path d="M6297.5 3658.5 6526.5 3658.5 6526.5 3775.17 6503.17 3798.5 6297.5 3798.5Z" fill="#6D6DFF" fill-rule="evenodd"/><path d="M6503.17 3798.5 6507.83 3779.83 6526.5 3775.17Z" fill="#5858CD" fill-rule="evenodd"/><path d="M6503.17 3798.5 6507.83 3779.83 6526.5 3775.17 6503.17 3798.5 6297.5 3798.5 6297.5 3658.5 6526.5 3658.5 6526.5 3775.17" stroke="#00B050" stroke-width="6.875" stroke-miterlimit="8" fill="none" fill-rule="evenodd"/><g><text fill="#FFFFFF" font-family="Calibri,Calibri_MSFontService,sans-serif" font-weight="400" font-size="50" transform="matrix(1 0 0 1 6374.54 3734)">jpeg</text></g><path d="M6213.5 3850.5 6441.5 3850.5 6441.5 3964.67 6418.67 3987.5 6213.5 3987.5Z" fill="#3737FF" fill-rule="evenodd"/><path d="M6418.67 3987.5 6423.23 3969.23 6441.5 3964.67Z" fill="#2C2CCD" fill-rule="evenodd"/><path d="M6418.67 3987.5 6423.23 3969.23 6441.5 3964.67 6418.67 3987.5 6213.5 3987.5 6213.5 3850.5 6441.5 3850.5 6441.5 3964.67" stroke="#00B050" stroke-width="6.875" stroke-miterlimit="8" fill="none" fill-rule="evenodd"/><g><text fill="#FFFFFF" font-family="Calibri,Calibri_MSFontService,sans-serif" font-weight="400" font-size="50" transform="matrix(1 0 0 1 6289.73 3924)">jpeg</text></g><path d="M6241.5 3878.5 6470.5 3878.5 6470.5 3993.5 6447.5 4016.5 6241.5 4016.5Z" fill="#3737FF" fill-rule="evenodd"/><path d="M6447.5 4016.5 6452.1 3998.1 6470.5 3993.5Z" fill="#2C2CCD" fill-rule="evenodd"/><path d="M6447.5 4016.5 6452.1 3998.1 6470.5 3993.5 6447.5 4016.5 6241.5 4016.5 6241.5 3878.5 6470.5 3878.5 6470.5 3993.5" stroke="#00B050" stroke-width="6.875" stroke-miterlimit="8" fill="none" fill-rule="evenodd"/><g><text fill="#FFFFFF" font-family="Calibri,Calibri_MSFontService,sans-serif" font-weight="400" font-size="50" transform="matrix(1 0 0 1 6318 3953)">jpeg</text></g><path d="M6269.5 3907.5 6498.5 3907.5 6498.5 4021.67 6475.67 4044.5 6269.5 4044.5Z" fill="#3737FF" fill-rule="evenodd"/><path d="M6475.67 4044.5 6480.23 4026.23 6498.5 4021.67Z" fill="#2C2CCD" fill-rule="evenodd"/><path d="M6475.67 4044.5 6480.23 4026.23 6498.5 4021.67 6475.67 4044.5 6269.5 4044.5 6269.5 3907.5 6498.5 3907.5 6498.5 4021.67" stroke="#00B050" stroke-width="6.875" stroke-miterlimit="8" fill="none" fill-rule="evenodd"/><g><text fill="#FFFFFF" font-family="Calibri,Calibri_MSFontService,sans-serif" font-weight="400" font-size="50" transform="matrix(1 0 0 1 6346.27 3981)">jpeg</text></g><path d="M6297.5 3935.5 6526.5 3935.5 6526.5 4049.67 6503.67 4072.5 6297.5 4072.5Z" fill="#3737FF" fill-rule="evenodd"/><path d="M6503.67 4072.5 6508.23 4054.23 6526.5 4049.67Z" fill="#2C2CCD" fill-rule="evenodd"/><path d="M6503.67 4072.5 6508.23 4054.23 6526.5 4049.67 6503.67 4072.5 6297.5 4072.5 6297.5 3935.5 6526.5 3935.5 6526.5 4049.67" stroke="#00B050" stroke-width="6.875" stroke-miterlimit="8" fill="none" fill-rule="evenodd"/><g><text fill="#FFFFFF" font-family="Calibri,Calibri_MSFontService,sans-serif" font-weight="400" font-size="50" transform="matrix(1 0 0 1 6374.54 4009)">jpeg</text></g><path d="M0 0 5075 0.000360892" stroke="#00B0F0" stroke-width="10.3125" stroke-miterlimit="8" fill="none" fill-rule="evenodd" transform="matrix(-1 0 0 1 6737 788)"/><path d="M0 0 5250 0.000360892" stroke="#00B0F0" stroke-width="10.3125" stroke-miterlimit="8" fill="none" fill-rule="evenodd" transform="matrix(-1 0 0 1 6825 700)"/><path d="M1750 875 1750 1925" stroke="#00B0F0" stroke-width="10.3125" stroke-miterlimit="8" fill="none" fill-rule="evenodd"/><path d="M1662 788 1662 2013" stroke="#00B0F0" stroke-width="10.3125" stroke-miterlimit="8" fill="none" fill-rule="evenodd"/><path d="M1575 700 1575 2100" stroke="#00B0F0" stroke-width="10.3125" stroke-miterlimit="8" fill="none" fill-rule="evenodd"/><path d="M1487 1398.85 1900.55 1398.85 1900.55 1401.15 1487 1401.15ZM1895.97 1386.25 1923.47 1400 1895.97 1413.75Z" fill="#FFFFFF"/><path d="M6563 1662 6650.5 1662" stroke="#00B0F0" stroke-width="10.3125" stroke-miterlimit="8" fill="none" fill-rule="evenodd"/><path d="M6563 2188 6738 2188" stroke="#00B0F0" stroke-width="10.3125" stroke-miterlimit="8" fill="none" fill-rule="evenodd"/><path d="M6563 2888 6825.5 2888" stroke="#00B0F0" stroke-width="10.3125" stroke-miterlimit="8" fill="none" fill-rule="evenodd"/><path d="M6650 875 6650 1662.5" stroke="#00B0F0" stroke-width="10.3125" stroke-miterlimit="8" fill="none" fill-rule="evenodd"/><path d="M6738 788 6738 2188.76" stroke="#00B0F0" stroke-width="10.3125" stroke-miterlimit="8" fill="none" fill-rule="evenodd"/><path d="M6825 700 6825 2887.5" stroke="#00B0F0" stroke-width="10.3125" stroke-miterlimit="8" fill="none" fill-rule="evenodd"/><path d="M4286 1440.6C4286 1418.73 4303.73 1401 4325.6 1401L5826.4 1401C5848.27 1401 5866 1418.73 5866 1440.6L5866 3558.4C5866 3580.27 5848.27 3598 5826.4 3598L4325.6 3598C4303.73 3598 4286 3580.27 4286 3558.4Z" fill="#000000" fill-rule="evenodd" fill-opacity="0.698039"/><path d="M1480 1366.5 1836 1366.5 1836 1322 1925 1411 1836 1500 1836 1455.5 1480 1455.5Z" fill="#FF0000" fill-rule="evenodd" fill-opacity="0.6"/><path d="M2260 1358.5 2399 1358.5 2399 1314 2488 1403 2399 1492 2399 1447.5 2260 1447.5Z" fill="#FF0000" fill-rule="evenodd" fill-opacity="0.6"/><path d="M2490 1751.5 2629 1751.5 2629 1707 2718 1796 2629 1885 2629 1840.5 2490 1840.5Z" fill="#FF0000" fill-rule="evenodd" fill-opacity="0.6"/><path d="M4179 3672 4255 3596 4255 3634 6131 3634 6131 3596 6207 3672 6131 3748 6131 3710 4255 3710 4255 3748Z" fill="#FF0000" fill-rule="evenodd" fill-opacity="0.6"/><path d="M4179 3937 4255 3861 4255 3899 6131 3899 6131 3861 6207 3937 6131 4013 6131 3975 4255 3975 4255 4013Z" fill="#FF0000" fill-rule="evenodd" fill-opacity="0.6"/><path d="M4179 4201.5 4255.5 4125 4255.5 4163.25 6130.5 4163.25 6130.5 4125 6207 4201.5 6130.5 4278 6130.5 4239.75 4255.5 4239.75 4255.5 4278Z" fill="#FF0000" fill-rule="evenodd" fill-opacity="0.6"/><path d="M5363 4688.18C5363 4681.45 5368.45 4676 5375.18 4676L6012.82 4676C6019.55 4676 6025 4681.45 6025 4688.18L6025 5149.82C6025 5156.55 6019.55 5162 6012.82 5162L5375.18 5162C5368.45 5162 5363 5156.55 5363 5149.82Z" fill="#000000" fill-rule="evenodd" fill-opacity="0.698039"/></g></svg>