<svg width="5442" height="4220" xmlns="http://www.w3.org/2000/svg" xmlns:xlink="http://www.w3.org/1999/xlink" xml:space="preserve" overflow="hidden"><g transform="translate(-1102 -759)"><path d="M1783.5 1001.88C1783.5 964.668 1813.67 934.5 1850.88 934.5L5878.12 934.5C5915.33 934.5 5945.5 964.668 5945.5 1001.88L5945.5 4434.12C5945.5 4471.33 5915.33 4501.5 5878.12 4501.5L1850.88 4501.5C1813.67 4501.5 1783.5 4471.33 1783.5 4434.12Z" stroke="#F2F2F2" stroke-width="4.58333" stroke-miterlimit="8" fill="none" fill-rule="evenodd"/><g><text fill="#FFFFFF" font-family="BIZ UDGothic,BIZ UDGothic_MSFontService,sans-serif" font-weight="400" font-size="50" transform="matrix(1 0 0 1 1822.68 1012)">space_balloon.py</text></g><path d="M2303 1045.61C2303 1031.46 2314.47 1020 2328.61 1020L5834.39 1020C5848.54 1020 5860 1031.46 5860 1045.61L5860 4390.39C5860 4404.53 5848.54 4416 5834.39 4416L2328.61 4416C2314.47 4416 2303 4404.53 2303 4390.39Z" stroke="#000000" stroke-width="10.3125" stroke-miterlimit="8" fill="#2F5597" fill-rule="evenodd"/><g><text fill="#FFFFFF" font-family="BIZ UDGothic,BIZ UDGothic_MSFontService,sans-serif" font-weight="400" font-size="50" transform="matrix(1 0 0 1 2330.31 1086)">SensorWrapper</text></g><g><text fill="#FFFFFF" font-family="BIZ UDGothic,BIZ UDGothic_MSFontService,sans-serif" font-weight="400" font-size="50" transform="matrix(1 0 0 1 2658.02 1086)">クラス</text></g><path d="M2378.5 1118.67C2378.5 1110.84 2384.84 1104.5 2392.67 1104.5L2958.33 1104.5C2966.16 1104.5 2972.5 1110.84 2972.5 1118.67L2972.5 1175.33C2972.5 1183.16 2966.16 1189.5 2958.33 1189.5L2392.67 1189.5C2384.84 1189.5 2378.5 1183.16 2378.5 1175.33Z" stroke="#ED7D31" stroke-width="4.58333" stroke-miterlimit="8" stroke-dasharray="18.3333 13.75" fill="#ED7D31" fill-rule="evenodd"/><g><text fill="#FFFFFF" font-family="BIZ UDGothic,BIZ UDGothic_MSFontService,sans-serif" font-weight="400" font-size="50" transform="matrix(1 0 0 1 2401.55 1167)">パラメータ群</text></g><path d="M2374.5 1277.95C2374.5 1265 2385 1254.5 2397.95 1254.5L5752.05 1254.5C5765 1254.5 5775.5 1265 5775.5 1277.95L5775.5 4308.05C5775.5 4321 5765 4331.5 5752.05 4331.5L2397.95 4331.5C2385 4331.5 2374.5 4321 2374.5 4308.05Z" stroke="#5B9BD5" stroke-width="4.58333" stroke-miterlimit="8" stroke-dasharray="18.3333 13.75" fill="#203864" fill-rule="evenodd"/><g><text fill="#C198E0" font-family="BIZ UDGothic,BIZ UDGothic_MSFontService,sans-serif" font-weight="400" font-size="50" transform="matrix(1 0 0 1 2400.25 1319)">doSensorWrapper</text></g><g><text fill="#C198E0" font-family="BIZ UDGothic,BIZ UDGothic_MSFontService,sans-serif" font-weight="400" font-size="50" transform="matrix(1 0 0 1 2778.38 1319)">関数</text></g><path d="M1868.5 1285.45C1868.5 1280.51 1872.51 1276.5 1877.45 1276.5L2199.55 1276.5C2204.49 1276.5 2208.5 1280.51 2208.5 1285.45L2208.5 1435.55C2208.5 1440.49 2204.49 1444.5 2199.55 1444.5L1877.45 1444.5C1872.51 1444.5 1868.5 1440.49 1868.5 1435.55Z" stroke="#5B9BD5" stroke-width="4.58333" stroke-miterlimit="8" stroke-dasharray="18.3333 13.75" fill="#203864" fill-rule="evenodd"/><g><text fill="#C198E0" font-family="BIZ UDGothic,BIZ UDGothic_MSFontService,sans-serif" font-weight="400" font-size="50" transform="matrix(1 0 0 1 1890.48 1383)">main</text></g><text fill="#C198E0" font-family="BIZ UDGothic,BIZ UDGothic_MSFontService,sans-serif" font-weight="400" font-size="50" transform="matrix(1 0 0 1 1991.32 1383)">関数</text><path d="M2208 1357.85 2354.94 1357.85 2354.94 1360.15 2208 1360.15ZM2350.35 1345.25 2377.85 1359 2350.35 1372.75Z" fill="#FFFFFF"/><rect x="5265" y="4586" width="510" height="388" stroke="#FF0000" stroke-width="10.3125" stroke-miterlimit="8" fill="#ED7D31"/><g><text fill="#FFFFFF" font-family="BIZ UDGothic,BIZ UDGothic_MSFontService,sans-serif" font-weight="400" font-size="50" transform="matrix(1 0 0 1 5284.93 4645)">センサー群</text></g><g><text fill="#FFFFFF" font-family="BIZ UDGothic,BIZ UDGothic_MSFontService,sans-serif" font-weight="400" font-size="50" transform="matrix(1 0 0 1 5284.93 4710)">・</text></g><text fill="#FFFFFF" font-family="BIZ UDGothic,BIZ UDGothic_MSFontService,sans-serif" font-weight="400" font-size="50" transform="matrix(1 0 0 1 5335.35 4710)">Camera Module</text><g><text fill="#FFFFFF" font-family="BIZ UDGothic,BIZ UDGothic_MSFontService,sans-serif" font-weight="400" font-size="50" transform="matrix(1 0 0 1 5284.93 4776)">・</text></g><text fill="#FFFFFF" font-family="BIZ UDGothic,BIZ UDGothic_MSFontService,sans-serif" font-weight="400" font-size="50" transform="matrix(1 0 0 1 5335.35 4776)">BME280</text><g><text fill="#FFFFFF" font-family="BIZ UDGothic,BIZ UDGothic_MSFontService,sans-serif" font-weight="400" font-size="50" transform="matrix(1 0 0 1 5284.93 4842)">・</text></g><text fill="#FFFFFF" font-family="BIZ UDGothic,BIZ UDGothic_MSFontService,sans-serif" font-weight="400" font-size="50" transform="matrix(1 0 0 1 5335.35 4842)">MPU6050</text><g><text fill="#FFFFFF" font-family="BIZ UDGothic,BIZ UDGothic_MSFontService,sans-serif" font-weight="400" font-size="50" transform="matrix(1 0 0 1 5284.93 4907)">・</text></g><text fill="#FFFFFF" font-family="BIZ UDGothic,BIZ UDGothic_MSFontService,sans-serif" font-weight="400" font-size="50" transform="matrix(1 0 0 1 5335.35 4907)">ICM</text><text fill="#FFFFFF" font-family="BIZ UDGothic,BIZ UDGothic_MSFontService,sans-serif" font-weight="400" font-size="50" transform="matrix(1 0 0 1 5410.97 4907)">-</text><text fill="#FFFFFF" font-family="BIZ UDGothic,BIZ UDGothic_MSFontService,sans-serif" font-weight="400" font-size="50" transform="matrix(1 0 0 1 5436.18 4907)">29048</text><path d="M6030 1953 6367 1953 6367 2236.83 6310.83 2293 6030 2293Z" fill="#A9D18E" fill-rule="evenodd"/><path d="M6310.83 2293 6322.07 2248.07 6367 2236.83Z" fill="#88A872" fill-rule="evenodd"/><path d="M6310.83 2293 6322.07 2248.07 6367 2236.83 6310.83 2293 6030 2293 6030 1953 6367 1953 6367 2236.83" stroke="#385723" stroke-width="10.3125" stroke-miterlimit="8" fill="none" fill-rule="evenodd"/><text fill="#FFFFFF" font-family="Calibri,Calibri_MSFontService,sans-serif" font-weight="400" font-size="50" transform="matrix(1 0 0 1 6172.96 2112)">csv</text><path d="M6030 3992 6356 3992 6356 4203.67 6313.67 4246 6030 4246Z" fill="#0000FF" fill-rule="evenodd"/><path d="M6313.67 4246 6322.13 4212.13 6356 4203.67Z" fill="#0000CD" fill-rule="evenodd"/><path d="M6313.67 4246 6322.13 4212.13 6356 4203.67 6313.67 4246 6030 4246 6030 3992 6356 3992 6356 4203.67" stroke="#00B050" stroke-width="10.3125" stroke-miterlimit="8" fill="none" fill-rule="evenodd"/><g><text fill="#FFFFFF" font-family="Calibri,Calibri_MSFontService,sans-serif" font-weight="400" font-size="50" transform="matrix(1 0 0 1 6070.07 4053)">H.264 movie</text></g><text fill="#FFFFFF" font-family="Calibri,Calibri_MSFontService,sans-serif" font-weight="400" font-size="50" transform="matrix(1 0 0 1 6177.23 4115)">or</text><g><text fill="#FFFFFF" font-family="Calibri,Calibri_MSFontService,sans-serif" font-weight="400" font-size="50" transform="matrix(1 0 0 1 6103.26 4176)">MP4 ovie</text></g><path d="M6030.5 1444.5 6369.5 1444.5 6369.5 1727 6313 1783.5 6030.5 1783.5Z" fill="#0000FF" fill-rule="evenodd"/><path d="M6313 1783.5 6324.3 1738.3 6369.5 1727Z" fill="#0000CD" fill-rule="evenodd"/><path d="M6313 1783.5 6324.3 1738.3 6369.5 1727 6313 1783.5 6030.5 1783.5 6030.5 1444.5 6369.5 1444.5 6369.5 1727" stroke="#0000FF" stroke-width="4.58333" stroke-miterlimit="8" fill="none" fill-rule="evenodd"/><text fill="#FFFFFF" font-family="Calibri,Calibri_MSFontService,sans-serif" font-weight="400" font-size="50" transform="matrix(1 0 0 1 6076.89 1603)">H.264 movie</text><path d="M1707 1862.84 2437.47 1862.84 2437.47 1873.16 1707 1873.16ZM2432.31 1852.53 2463.25 1868 2432.31 1883.47Z" fill="#00B0F0"/><path d="M1104.5 1274.5 1444.5 1274.5 1444.5 1427.83 1413.83 1458.5 1104.5 1458.5Z" fill="#ED7D31" fill-rule="evenodd"/><path d="M1413.83 1458.5 1419.97 1433.97 1444.5 1427.83Z" fill="#BF6427" fill-rule="evenodd"/><path d="M1413.83 1458.5 1419.97 1433.97 1444.5 1427.83 1413.83 1458.5 1104.5 1458.5 1104.5 1274.5 1444.5 1274.5 1444.5 1427.83" stroke="#FFFFFF" stroke-width="4.58333" stroke-miterlimit="8" fill="none" fill-rule="evenodd"/><g><text fill="#FFFFFF" font-family="Yu Gothic,Yu Gothic_MSFontService,sans-serif" font-weight="400" font-size="50" transform="matrix(1 0 0 1 1117.04 1333)">オプション</text></g><path d="M2463.5 1458.67C2463.5 1450.84 2469.84 1444.5 2477.67 1444.5L3046.33 1444.5C3054.16 1444.5 3060.5 1450.84 3060.5 1458.67L3060.5 1515.33C3060.5 1523.16 3054.16 1529.5 3046.33 1529.5L2477.67 1529.5C2469.84 1529.5 2463.5 1523.16 2463.5 1515.33Z" stroke="#5B9BD5" stroke-width="4.58333" stroke-miterlimit="8" stroke-dasharray="18.3333 13.75" fill="#203864" fill-rule="evenodd"/><g><text fill="#C198E0" font-family="BIZ UDGothic,BIZ UDGothic_MSFontService,sans-serif" font-weight="400" font-size="50" transform="matrix(1 0 0 1 2486.48 1509)">__read_args</text></g><g><text fill="#C198E0" font-family="BIZ UDGothic,BIZ UDGothic_MSFontService,sans-serif" font-weight="400" font-size="50" transform="matrix(1 0 0 1 2763.77 1509)">関数</text></g><path d="M4162.5 1383.04C4162.5 1370.04 4173.04 1359.5 4186.04 1359.5L5666.96 1359.5C5679.96 1359.5 5690.5 1370.04 5690.5 1383.04L5690.5 2779.96C5690.5 2792.96 5679.96 2803.5 5666.96 2803.5L4186.04 2803.5C4173.04 2803.5 4162.5 2792.96 4162.5 2779.96Z" stroke="#5B9BD5" stroke-width="4.58333" stroke-miterlimit="8" stroke-dasharray="18.3333 13.75" fill="#203864" fill-rule="evenodd"/><g><text fill="#C198E0" font-family="BIZ UDGothic,BIZ UDGothic_MSFontService,sans-serif" font-weight="400" font-size="50" transform="matrix(1 0 0 1 4188.79 1424)">__setup_sensors</text></g><g><text fill="#C198E0" font-family="BIZ UDGothic,BIZ UDGothic_MSFontService,sans-serif" font-weight="400" font-size="50" transform="matrix(1 0 0 1 4566.91 1424)">関数</text></g><path d="M3397.5 1465C3397.5 1457.54 3403.54 1451.5 3411 1451.5L3982 1451.5C3989.46 1451.5 3995.5 1457.54 3995.5 1465L3995.5 1519C3995.5 1526.46 3989.46 1532.5 3982 1532.5L3411 1532.5C3403.54 1532.5 3397.5 1526.46 3397.5 1519Z" stroke="#5B9BD5" stroke-width="4.58333" stroke-miterlimit="8" stroke-dasharray="18.3333 13.75" fill="#203864" fill-rule="evenodd"/><g><text fill="#C198E0" font-family="BIZ UDGothic,BIZ UDGothic_MSFontService,sans-serif" font-weight="400" font-size="50" transform="matrix(1 0 0 1 3420.52 1514)">その他関数</text></g><path d="M4246 1459.03C4246 1450.73 4252.73 1444 4261.03 1444L5334.97 1444C5343.27 1444 5350 1450.73 5350 1459.03L5350 1853.97C5350 1862.27 5343.27 1869 5334.97 1869L4261.03 1869C4252.73 1869 4246 1862.27 4246 1853.97Z" stroke="#000000" stroke-width="10.3125" stroke-miterlimit="8" fill="#2E75B6" fill-rule="evenodd"/><g><text fill="#FFFFFF" font-family="BIZ UDGothic,BIZ UDGothic_MSFontService,sans-serif" font-weight="400" font-size="50" transform="matrix(1 0 0 1 4270.22 1507)">CameraModuleImpl</text></g><g><text fill="#FFFFFF" font-family="BIZ UDGothic,BIZ UDGothic_MSFontService,sans-serif" font-weight="400" font-size="50" transform="matrix(1 0 0 1 4673.55 1507)">クラス</text></g><path d="M4331.5 1550.02C4331.5 1538.69 4340.69 1529.5 4352.02 1529.5L5244.98 1529.5C5256.31 1529.5 5265.5 1538.69 5265.5 1550.02L5265.5 1763.98C5265.5 1775.31 5256.31 1784.5 5244.98 1784.5L4352.02 1784.5C4340.69 1784.5 4331.5 1775.31 4331.5 1763.98Z" stroke="#5B9BD5" stroke-width="4.58333" stroke-miterlimit="8" stroke-dasharray="18.3333 13.75" fill="#203864" fill-rule="evenodd"/><g><text fill="#C198E0" font-family="BIZ UDGothic,BIZ UDGothic_MSFontService,sans-serif" font-weight="400" font-size="50" transform="matrix(1 0 0 1 4356.75 1593)">doCameraModuleImpl</text></g><g><text fill="#C198E0" font-family="BIZ UDGothic,BIZ UDGothic_MSFontService,sans-serif" font-weight="400" font-size="50" transform="matrix(1 0 0 1 4810.5 1593)">関数</text></g><path d="M4419.5 1628C4419.5 1620.54 4425.54 1614.5 4433 1614.5L5168 1614.5C5175.46 1614.5 5181.5 1620.54 5181.5 1628L5181.5 1682C5181.5 1689.46 5175.46 1695.5 5168 1695.5L4433 1695.5C4425.54 1695.5 4419.5 1689.46 4419.5 1682Z" stroke="#5B9BD5" stroke-width="4.58333" stroke-miterlimit="8" stroke-dasharray="18.3333 13.75" fill="#203864" fill-rule="evenodd"/><g><text fill="#C198E0" font-family="BIZ UDGothic,BIZ UDGothic_MSFontService,sans-serif" font-weight="400" font-size="50" transform="matrix(1 0 0 1 4442.31 1677)">__start_camera_module</text></g><g><text fill="#C198E0" font-family="BIZ UDGothic,BIZ UDGothic_MSFontService,sans-serif" font-weight="400" font-size="50" transform="matrix(1 0 0 1 4971.68 1677)">関数</text></g><path d="M4246 1988.4C4246 1969.96 4260.96 1955 4279.4 1955L5316.6 1955C5335.04 1955 5350 1969.96 5350 1988.4L5350 2514.6C5350 2533.04 5335.04 2548 5316.6 2548L4279.4 2548C4260.96 2548 4246 2533.04 4246 2514.6Z" stroke="#000000" stroke-width="10.3125" stroke-miterlimit="8" fill="#2E75B6" fill-rule="evenodd"/><g><text fill="#FFFFFF" font-family="BIZ UDGothic,BIZ UDGothic_MSFontService,sans-serif" font-weight="400" font-size="50" transform="matrix(1 0 0 1 4275.6 2023)">ICM29048Impl</text></g><g><text fill="#FFFFFF" font-family="BIZ UDGothic,BIZ UDGothic_MSFontService,sans-serif" font-weight="400" font-size="50" transform="matrix(1 0 0 1 4578.1 2023)">クラス</text></g><path d="M4331.5 2043.33C4331.5 2040.66 4333.66 2038.5 4336.33 2038.5L5260.67 2038.5C5263.34 2038.5 5265.5 2040.66 5265.5 2043.33L5265.5 2449.67C5265.5 2452.34 5263.34 2454.5 5260.67 2454.5L4336.33 2454.5C4333.66 2454.5 4331.5 2452.34 4331.5 2449.67Z" stroke="#5B9BD5" stroke-width="4.58333" stroke-miterlimit="8" stroke-dasharray="18.3333 13.75" fill="#203864" fill-rule="evenodd"/><g><text fill="#C198E0" font-family="BIZ UDGothic,BIZ UDGothic_MSFontService,sans-serif" font-weight="400" font-size="50" transform="matrix(1 0 0 1 4352.15 2098)">doGPIO</text></g><g><text fill="#C198E0" font-family="BIZ UDGothic,BIZ UDGothic_MSFontService,sans-serif" font-weight="400" font-size="50" transform="matrix(1 0 0 1 4503.4 2098)">センサ名</text></g><g><text fill="#C198E0" font-family="BIZ UDGothic,BIZ UDGothic_MSFontService,sans-serif" font-weight="400" font-size="50" transform="matrix(1 0 0 1 4705.07 2098)">Impl</text></g><g><text fill="#C198E0" font-family="BIZ UDGothic,BIZ UDGothic_MSFontService,sans-serif" font-weight="400" font-size="50" transform="matrix(1 0 0 1 4805.9 2098)">関数</text></g><path d="M4416.5 2137.83C4416.5 2129.92 4422.92 2123.5 4430.83 2123.5L5167.17 2123.5C5175.08 2123.5 5181.5 2129.92 5181.5 2137.83L5181.5 2195.17C5181.5 2203.08 5175.08 2209.5 5167.17 2209.5L4430.83 2209.5C4422.92 2209.5 4416.5 2203.08 4416.5 2195.17Z" stroke="#5B9BD5" stroke-width="4.58333" stroke-miterlimit="8" stroke-dasharray="18.3333 13.75" fill="#203864" fill-rule="evenodd"/><g><text fill="#C198E0" font-family="BIZ UDGothic,BIZ UDGothic_MSFontService,sans-serif" font-weight="400" font-size="50" transform="matrix(1 0 0 1 4439.87 2189)">__read_sensor</text></g><g><text fill="#C198E0" font-family="BIZ UDGothic,BIZ UDGothic_MSFontService,sans-serif" font-weight="400" font-size="50" transform="matrix(1 0 0 1 4767.58 2189)">関数</text></g><path d="M4416.5 2307.83C4416.5 2299.92 4422.92 2293.5 4430.83 2293.5L5167.17 2293.5C5175.08 2293.5 5181.5 2299.92 5181.5 2307.83L5181.5 2365.17C5181.5 2373.08 5175.08 2379.5 5167.17 2379.5L4430.83 2379.5C4422.92 2379.5 4416.5 2373.08 4416.5 2365.17Z" stroke="#5B9BD5" stroke-width="4.58333" stroke-miterlimit="8" stroke-dasharray="18.3333 13.75" fill="#203864" fill-rule="evenodd"/><g><text fill="#C198E0" font-family="BIZ UDGothic,BIZ UDGothic_MSFontService,sans-serif" font-weight="400" font-size="50" transform="matrix(1 0 0 1 4439.87 2359)">__output_csv</text></g><g><text fill="#C198E0" font-family="BIZ UDGothic,BIZ UDGothic_MSFontService,sans-serif" font-weight="400" font-size="50" transform="matrix(1 0 0 1 4742.37 2359)">関数</text></g><path d="M2463 1654.42C2463 1632.1 2481.1 1614 2503.42 1614L4035.58 1614C4057.9 1614 4076 1632.1 4076 1654.42L4076 4205.58C4076 4227.9 4057.9 4246 4035.58 4246L2503.42 4246C2481.1 4246 2463 4227.9 2463 4205.58Z" stroke="#000000" stroke-width="10.3125" stroke-miterlimit="8" fill="#1F4E79" fill-rule="evenodd"/><g><text fill="#FFFFFF" font-family="BIZ UDGothic,BIZ UDGothic_MSFontService,sans-serif" font-weight="400" font-size="50" transform="matrix(1 0 0 1 2494.2 1684)">SensorAnalyzerImpl</text></g><g><text fill="#FFFFFF" font-family="BIZ UDGothic,BIZ UDGothic_MSFontService,sans-serif" font-weight="400" font-size="50" transform="matrix(1 0 0 1 2947.95 1684)">クラス</text></g><path d="M2548.5 1823.98C2548.5 1801.62 2566.62 1783.5 2588.98 1783.5L3952.02 1783.5C3974.38 1783.5 3992.5 1801.62 3992.5 1823.98L3992.5 4121.02C3992.5 4143.38 3974.38 4161.5 3952.02 4161.5L2588.98 4161.5C2566.62 4161.5 2548.5 4143.38 2548.5 4121.02Z" stroke="#5B9BD5" stroke-width="4.58333" stroke-miterlimit="8" stroke-dasharray="18.3333 13.75" fill="#203864" fill-rule="evenodd"/><g><text fill="#C198E0" font-family="BIZ UDGothic,BIZ UDGothic_MSFontService,sans-serif" font-weight="400" font-size="50" transform="matrix(1 0 0 1 2579.14 1854)">doSensorAnalyzerImplImpl</text></g><g><text fill="#C198E0" font-family="BIZ UDGothic,BIZ UDGothic_MSFontService,sans-serif" font-weight="400" font-size="50" transform="matrix(1 0 0 1 3184.14 1854)">関数</text></g><path d="M2630.5 3666.83C2630.5 3658.92 2636.92 3652.5 2644.83 3652.5L3809.17 3652.5C3817.08 3652.5 3823.5 3658.92 3823.5 3666.83L3823.5 3724.17C3823.5 3732.08 3817.08 3738.5 3809.17 3738.5L2644.83 3738.5C2636.92 3738.5 2630.5 3732.08 2630.5 3724.17Z" stroke="#5B9BD5" stroke-width="4.58333" stroke-miterlimit="8" stroke-dasharray="18.3333 13.75" fill="#203864" fill-rule="evenodd"/><g><text fill="#C198E0" font-family="BIZ UDGothic,BIZ UDGothic_MSFontService,sans-serif" font-weight="400" font-size="50" transform="matrix(1 0 0 1 2653.93 3717)">__output_to_excel</text></g><g><text fill="#C198E0" font-family="BIZ UDGothic,BIZ UDGothic_MSFontService,sans-serif" font-weight="400" font-size="50" transform="matrix(1 0 0 1 3082.47 3717)">関数</text></g><path d="M2633.5 1958.22C2633.5 1955.61 2635.61 1953.5 2638.22 1953.5L3817.78 1953.5C3820.39 1953.5 3822.5 1955.61 3822.5 1958.22L3822.5 2543.78C3822.5 2546.39 3820.39 2548.5 3817.78 2548.5L2638.22 2548.5C2635.61 2548.5 2633.5 2546.39 2633.5 2543.78Z" stroke="#5B9BD5" stroke-width="4.58333" stroke-miterlimit="8" stroke-dasharray="18.3333 13.75" fill="#203864" fill-rule="evenodd"/><g><text fill="#C198E0" font-family="BIZ UDGothic,BIZ UDGothic_MSFontService,sans-serif" font-weight="400" font-size="50" transform="matrix(1 0 0 1 2653.59 2013)">__generate_alititude_csv</text></g><g><text fill="#C198E0" font-family="BIZ UDGothic,BIZ UDGothic_MSFontService,sans-serif" font-weight="400" font-size="50" transform="matrix(1 0 0 1 3258.59 2013)">関数</text></g><path d="M2718.5 2141.53C2718.5 2131.57 2726.57 2123.5 2736.53 2123.5L3719.47 2123.5C3729.43 2123.5 3737.5 2131.57 3737.5 2141.53L3737.5 2445.47C3737.5 2455.43 3729.43 2463.5 3719.47 2463.5L2736.53 2463.5C2726.57 2463.5 2718.5 2455.43 2718.5 2445.47Z" stroke="#5B9BD5" stroke-width="4.58333" stroke-miterlimit="8" stroke-dasharray="18.3333 13.75" fill="#203864" fill-rule="evenodd"/><g><text fill="#C198E0" font-family="BIZ UDGothic,BIZ UDGothic_MSFontService,sans-serif" font-weight="400" font-size="50" transform="matrix(1 0 0 1 2742.41 2187)">__calculate_altitude</text></g><g><text fill="#C198E0" font-family="BIZ UDGothic,BIZ UDGothic_MSFontService,sans-serif" font-weight="400" font-size="50" transform="matrix(1 0 0 1 3246.58 2187)">関数</text></g><path d="M2806.5 2306.83C2806.5 2298.92 2812.92 2292.5 2820.83 2292.5L3638.17 2292.5C3646.08 2292.5 3652.5 2298.92 3652.5 2306.83L3652.5 2364.17C3652.5 2372.08 3646.08 2378.5 3638.17 2378.5L2820.83 2378.5C2812.92 2378.5 2806.5 2372.08 2806.5 2364.17Z" stroke="#5B9BD5" stroke-width="4.58333" stroke-miterlimit="8" stroke-dasharray="18.3333 13.75" fill="#203864" fill-rule="evenodd"/><g><text fill="#C198E0" font-family="BIZ UDGothic,BIZ UDGothic_MSFontService,sans-serif" font-weight="400" font-size="50" transform="matrix(1 0 0 1 2829.57 2357)">__virtual_temperature</text></g><g><text fill="#C198E0" font-family="BIZ UDGothic,BIZ UDGothic_MSFontService,sans-serif" font-weight="400" font-size="50" transform="matrix(1 0 0 1 3358.95 2357)">関数</text></g><path d="M2630.5 3836.83C2630.5 3828.92 2636.92 3822.5 2644.83 3822.5L3808.17 3822.5C3816.08 3822.5 3822.5 3828.92 3822.5 3836.83L3822.5 3894.17C3822.5 3902.08 3816.08 3908.5 3808.17 3908.5L2644.83 3908.5C2636.92 3908.5 2630.5 3902.08 2630.5 3894.17Z" stroke="#5B9BD5" stroke-width="4.58333" stroke-miterlimit="8" stroke-dasharray="18.3333 13.75" fill="#203864" fill-rule="evenodd"/><g><text fill="#C198E0" font-family="BIZ UDGothic,BIZ UDGothic_MSFontService,sans-serif" font-weight="400" font-size="50" transform="matrix(1 0 0 1 2653.93 3887)">__conver_h264_to_mp4</text></g><g><text fill="#C198E0" font-family="BIZ UDGothic,BIZ UDGothic_MSFontService,sans-serif" font-weight="400" font-size="50" transform="matrix(1 0 0 1 3158.09 3887)">関数</text></g><path d="M2633.5 2648.55C2633.5 2640.24 2640.24 2633.5 2648.55 2633.5L3807.45 2633.5C3815.76 2633.5 3822.5 2640.24 3822.5 2648.55L3822.5 3553.45C3822.5 3561.76 3815.76 3568.5 3807.45 3568.5L2648.55 3568.5C2640.24 3568.5 2633.5 3561.76 2633.5 3553.45Z" stroke="#5B9BD5" stroke-width="4.58333" stroke-miterlimit="8" stroke-dasharray="18.3333 13.75" fill="#203864" fill-rule="evenodd"/><g><text fill="#C198E0" font-family="BIZ UDGothic,BIZ UDGothic_MSFontService,sans-serif" font-weight="400" font-size="50" transform="matrix(1 0 0 1 2656.62 2696)">__analyse_frame_sync</text></g><g><text fill="#C198E0" font-family="BIZ UDGothic,BIZ UDGothic_MSFontService,sans-serif" font-weight="400" font-size="50" transform="matrix(1 0 0 1 3160.79 2696)">関数</text></g><path d="M2714.5 2823.2C2714.5 2812.32 2723.32 2803.5 2734.2 2803.5L3717.8 2803.5C3728.68 2803.5 3737.5 2812.32 3737.5 2823.2L3737.5 3463.8C3737.5 3474.68 3728.68 3483.5 3717.8 3483.5L2734.2 3483.5C2723.32 3483.5 2714.5 3474.68 2714.5 3463.8Z" stroke="#5B9BD5" stroke-width="4.58333" stroke-miterlimit="8" stroke-dasharray="18.3333 13.75" fill="#203864" fill-rule="evenodd"/><g><text fill="#C198E0" font-family="BIZ UDGothic,BIZ UDGothic_MSFontService,sans-serif" font-weight="400" font-size="50" transform="matrix(1 0 0 1 2739.61 2867)">__movie_gen</text></g><g><text fill="#C198E0" font-family="BIZ UDGothic,BIZ UDGothic_MSFontService,sans-serif" font-weight="400" font-size="50" transform="matrix(1 0 0 1 3016.9 2867)">関数</text></g><path d="M2803.5 2987.83C2803.5 2979.92 2809.92 2973.5 2817.83 2973.5L3640.17 2973.5C3648.08 2973.5 3654.5 2979.92 3654.5 2987.83L3654.5 3045.17C3654.5 3053.08 3648.08 3059.5 3640.17 3059.5L2817.83 3059.5C2809.92 3059.5 2803.5 3053.08 2803.5 3045.17Z" stroke="#5B9BD5" stroke-width="4.58333" stroke-miterlimit="8" stroke-dasharray="18.3333 13.75" fill="#203864" fill-rule="evenodd"/><g><text fill="#C198E0" font-family="BIZ UDGothic,BIZ UDGothic_MSFontService,sans-serif" font-weight="400" font-size="50" transform="matrix(1 0 0 1 2826.26 3038)">__separation_h264_to_jpeg</text></g><g><text fill="#C198E0" font-family="BIZ UDGothic,BIZ UDGothic_MSFontService,sans-serif" font-weight="400" font-size="50" transform="matrix(1 0 0 1 3456.47 3038)">関数</text></g><path d="M2803.5 3155.83C2803.5 3147.92 2809.92 3141.5 2817.83 3141.5L3640.17 3141.5C3648.08 3141.5 3654.5 3147.92 3654.5 3155.83L3654.5 3213.17C3654.5 3221.08 3648.08 3227.5 3640.17 3227.5L2817.83 3227.5C2809.92 3227.5 2803.5 3221.08 2803.5 3213.17Z" stroke="#5B9BD5" stroke-width="4.58333" stroke-miterlimit="8" stroke-dasharray="18.3333 13.75" fill="#203864" fill-rule="evenodd"/><g><text fill="#C198E0" font-family="BIZ UDGothic,BIZ UDGothic_MSFontService,sans-serif" font-weight="400" font-size="50" transform="matrix(1 0 0 1 2826.26 3207)">__add_sensor_frame</text></g><g><text fill="#C198E0" font-family="BIZ UDGothic,BIZ UDGothic_MSFontService,sans-serif" font-weight="400" font-size="50" transform="matrix(1 0 0 1 3280.01 3207)">関数</text></g><path d="M2803.5 3326.83C2803.5 3318.92 2809.92 3312.5 2817.83 3312.5L3640.17 3312.5C3648.08 3312.5 3654.5 3318.92 3654.5 3326.83L3654.5 3384.17C3654.5 3392.08 3648.08 3398.5 3640.17 3398.5L2817.83 3398.5C2809.92 3398.5 2803.5 3392.08 2803.5 3384.17Z" stroke="#5B9BD5" stroke-width="4.58333" stroke-miterlimit="8" stroke-dasharray="18.3333 13.75" fill="#203864" fill-rule="evenodd"/><g><text fill="#C198E0" font-family="BIZ UDGothic,BIZ UDGothic_MSFontService,sans-serif" font-weight="400" font-size="50" transform="matrix(1 0 0 1 2826.26 3378)">__merge_jpeg_to_h264</text></g><g><text fill="#C198E0" font-family="BIZ UDGothic,BIZ UDGothic_MSFontService,sans-serif" font-weight="400" font-size="50" transform="matrix(1 0 0 1 3330.43 3378)">関数</text></g><path d="M2633.5 4006.83C2633.5 3998.92 2639.92 3992.5 2647.83 3992.5L3808.17 3992.5C3816.08 3992.5 3822.5 3998.92 3822.5 4006.83L3822.5 4064.17C3822.5 4072.08 3816.08 4078.5 3808.17 4078.5L2647.83 4078.5C2639.92 4078.5 2633.5 4072.08 2633.5 4064.17Z" stroke="#5B9BD5" stroke-width="4.58333" stroke-miterlimit="8" stroke-dasharray="18.3333 13.75" fill="#203864" fill-rule="evenodd"/><g><text fill="#C198E0" font-family="BIZ UDGothic,BIZ UDGothic_MSFontService,sans-serif" font-weight="400" font-size="50" transform="matrix(1 0 0 1 2656.41 4057)">その他関数</text></g><path d="M4101.78 3561.84 6003.53 3561.84 6003.53 3572.16 4101.78 3572.16ZM4106.94 3582.47 4076 3567 4106.94 3551.53ZM5998.37 3551.53 6029.31 3567 5998.37 3582.47Z" fill="#00B0F0"/><path d="M5350 1608.84 6003.63 1608.84 6003.63 1619.16 5350 1619.16ZM5998.47 1598.53 6029.41 1614 5998.47 1629.47Z" fill="#00B0F0"/><path d="M5350 2202.84 6003.63 2202.84 6003.63 2213.16 5350 2213.16ZM5998.47 2192.53 6029.41 2208 5998.47 2223.47Z" fill="#00B0F0"/><path d="M4101.78 3816.84 6003.53 3816.84 6003.53 3827.16 4101.78 3827.16ZM4106.94 3837.47 4076 3822 4106.94 3806.53ZM5998.37 3806.53 6029.31 3822 5998.37 3837.47Z" fill="#00B0F0"/><path d="M5375.78 1777.84 5604.78 1777.84 5604.78 1788.16 5375.78 1788.16ZM5380.94 1798.47 5350 1783 5380.94 1767.53Z" fill="#00B0F0"/><path d="M4076 4070.84 6003.53 4070.84 6003.53 4081.16 4076 4081.16ZM5998.37 4060.53 6029.31 4076 5998.37 4091.47Z" fill="#00B0F0"/><path d="M5375.78 2457.84 5519.85 2457.84 5519.85 2468.16 5375.78 2468.16ZM5380.94 2478.47 5350 2463 5380.94 2447.53Z" fill="#00B0F0"/><path d="M5610.16 1783 5610.16 4559.79 5599.84 4559.79 5599.84 1783ZM5620.47 4554.64 5605 4585.57 5589.53 4554.64Z" fill="#00B0F0"/><path d="M5525.16 2463 5525.16 4560.38 5514.84 4560.38 5514.84 2463ZM5535.47 4555.22 5520 4586.16 5504.53 4555.22Z" fill="#00B0F0"/><path d="M1606 1947.84 2437.57 1947.84 2437.57 1958.16 1606 1958.16ZM2432.42 1937.53 2463.35 1953 2432.42 1968.47Z" fill="#00B0F0"/><path d="M0 0 4755.88 0.000360892" stroke="#00B0F0" stroke-width="10.3125" stroke-miterlimit="8" fill="none" fill-rule="evenodd" transform="matrix(-1 0 0 1 6454.88 849)"/><path d="M6030.5 3469.5 6252.5 3469.5 6252.5 3582 6230 3604.5 6030.5 3604.5Z" fill="#6D6DFF" fill-rule="evenodd"/><path d="M6230 3604.5 6234.5 3586.5 6252.5 3582Z" fill="#5858CD" fill-rule="evenodd"/><path d="M6230 3604.5 6234.5 3586.5 6252.5 3582 6230 3604.5 6030.5 3604.5 6030.5 3469.5 6252.5 3469.5 6252.5 3582" stroke="#00B050" stroke-width="6.875" stroke-miterlimit="8" fill="none" fill-rule="evenodd"/><g><text fill="#FFFFFF" font-family="Calibri,Calibri_MSFontService,sans-serif" font-weight="400" font-size="50" transform="matrix(1 0 0 1 6103.86 3543)">jpeg</text></g><path d="M6057.5 3495.5 6280.5 3495.5 6280.5 3608 6258 3630.5 6057.5 3630.5Z" fill="#6D6DFF" fill-rule="evenodd"/><path d="M6258 3630.5 6262.5 3612.5 6280.5 3608Z" fill="#5858CD" fill-rule="evenodd"/><path d="M6258 3630.5 6262.5 3612.5 6280.5 3608 6258 3630.5 6057.5 3630.5 6057.5 3495.5 6280.5 3495.5 6280.5 3608" stroke="#00B050" stroke-width="6.875" stroke-miterlimit="8" fill="none" fill-rule="evenodd"/><g><text fill="#FFFFFF" font-family="Calibri,Calibri_MSFontService,sans-serif" font-weight="400" font-size="50" transform="matrix(1 0 0 1 6131.35 3568)">jpeg</text></g><path d="M6085.5 3524.5 6307.5 3524.5 6307.5 3637 6285 3659.5 6085.5 3659.5Z" fill="#6D6DFF" fill-rule="evenodd"/><path d="M6285 3659.5 6289.5 3641.5 6307.5 3637Z" fill="#5858CD" fill-rule="evenodd"/><path d="M6285 3659.5 6289.5 3641.5 6307.5 3637 6285 3659.5 6085.5 3659.5 6085.5 3524.5 6307.5 3524.5 6307.5 3637" stroke="#00B050" stroke-width="6.875" stroke-miterlimit="8" fill="none" fill-rule="evenodd"/><g><text fill="#FFFFFF" font-family="Calibri,Calibri_MSFontService,sans-serif" font-weight="400" font-size="50" transform="matrix(1 0 0 1 6158.84 3597)">jpeg</text></g><path d="M6112.5 3551.5 6335.5 3551.5 6335.5 3664 6313 3686.5 6112.5 3686.5Z" fill="#6D6DFF" fill-rule="evenodd"/><path d="M6313 3686.5 6317.5 3668.5 6335.5 3664Z" fill="#5858CD" fill-rule="evenodd"/><path d="M6313 3686.5 6317.5 3668.5 6335.5 3664 6313 3686.5 6112.5 3686.5 6112.5 3551.5 6335.5 3551.5 6335.5 3664" stroke="#00B050" stroke-width="6.875" stroke-miterlimit="8" fill="none" fill-rule="evenodd"/><g><text fill="#FFFFFF" font-family="Calibri,Calibri_MSFontService,sans-serif" font-weight="400" font-size="50" transform="matrix(1 0 0 1 6186.33 3625)">jpeg</text></g><path d="M6030.5 3737.5 6252.5 3737.5 6252.5 3848.33 6230.33 3870.5 6030.5 3870.5Z" fill="#3737FF" fill-rule="evenodd"/><path d="M6230.33 3870.5 6234.77 3852.77 6252.5 3848.33Z" fill="#2C2CCD" fill-rule="evenodd"/><path d="M6230.33 3870.5 6234.77 3852.77 6252.5 3848.33 6230.33 3870.5 6030.5 3870.5 6030.5 3737.5 6252.5 3737.5 6252.5 3848.33" stroke="#00B050" stroke-width="6.875" stroke-miterlimit="8" fill="none" fill-rule="evenodd"/><g><text fill="#FFFFFF" font-family="Calibri,Calibri_MSFontService,sans-serif" font-weight="400" font-size="50" transform="matrix(1 0 0 1 6103.86 3810)">jpeg</text></g><path d="M6057.5 3764.5 6280.5 3764.5 6280.5 3876.17 6258.17 3898.5 6057.5 3898.5Z" fill="#3737FF" fill-rule="evenodd"/><path d="M6258.17 3898.5 6262.63 3880.63 6280.5 3876.17Z" fill="#2C2CCD" fill-rule="evenodd"/><path d="M6258.17 3898.5 6262.63 3880.63 6280.5 3876.17 6258.17 3898.5 6057.5 3898.5 6057.5 3764.5 6280.5 3764.5 6280.5 3876.17" stroke="#00B050" stroke-width="6.875" stroke-miterlimit="8" fill="none" fill-rule="evenodd"/><g><text fill="#FFFFFF" font-family="Calibri,Calibri_MSFontService,sans-serif" font-weight="400" font-size="50" transform="matrix(1 0 0 1 6131.35 3837)">jpeg</text></g><path d="M6085.5 3792.5 6307.5 3792.5 6307.5 3903.33 6285.33 3925.5 6085.5 3925.5Z" fill="#3737FF" fill-rule="evenodd"/><path d="M6285.33 3925.5 6289.77 3907.77 6307.5 3903.33Z" fill="#2C2CCD" fill-rule="evenodd"/><path d="M6285.33 3925.5 6289.77 3907.77 6307.5 3903.33 6285.33 3925.5 6085.5 3925.5 6085.5 3792.5 6307.5 3792.5 6307.5 3903.33" stroke="#00B050" stroke-width="6.875" stroke-miterlimit="8" fill="none" fill-rule="evenodd"/><g><text fill="#FFFFFF" font-family="Calibri,Calibri_MSFontService,sans-serif" font-weight="400" font-size="50" transform="matrix(1 0 0 1 6158.84 3865)">jpeg</text></g><path d="M6112.5 3819.5 6335.5 3819.5 6335.5 3931.17 6313.17 3953.5 6112.5 3953.5Z" fill="#3737FF" fill-rule="evenodd"/><path d="M6313.17 3953.5 6317.63 3935.63 6335.5 3931.17Z" fill="#2C2CCD" fill-rule="evenodd"/><path d="M6313.17 3953.5 6317.63 3935.63 6335.5 3931.17 6313.17 3953.5 6112.5 3953.5 6112.5 3819.5 6335.5 3819.5 6335.5 3931.17" stroke="#00B050" stroke-width="6.875" stroke-miterlimit="8" fill="none" fill-rule="evenodd"/><g><text fill="#FFFFFF" font-family="Calibri,Calibri_MSFontService,sans-serif" font-weight="400" font-size="50" transform="matrix(1 0 0 1 6186.33 3892)">jpeg</text></g><path d="M0 0 4925.74 0.000360892" stroke="#00B0F0" stroke-width="10.3125" stroke-miterlimit="8" fill="none" fill-rule="evenodd" transform="matrix(-1 0 0 1 6539.74 764)"/><path d="M1699 849 1699 1868.12" stroke="#00B0F0" stroke-width="10.3125" stroke-miterlimit="8" fill="none" fill-rule="evenodd"/><path d="M1614 764 1614 1952.97" stroke="#00B0F0" stroke-width="10.3125" stroke-miterlimit="8" fill="none" fill-rule="evenodd"/><path d="M1444 1357.85 1845.72 1357.85 1845.72 1360.15 1444 1360.15ZM1841.13 1345.25 1868.63 1359 1841.13 1372.75Z" fill="#FFFFFF"/><path d="M6369 1614 6453.93 1614" stroke="#00B0F0" stroke-width="10.3125" stroke-miterlimit="8" fill="none" fill-rule="evenodd"/><path d="M6369 2123 6538.85 2123" stroke="#00B0F0" stroke-width="10.3125" stroke-miterlimit="8" fill="none" fill-rule="evenodd"/><path d="M6454 849 6454 1613.34" stroke="#00B0F0" stroke-width="10.3125" stroke-miterlimit="8" fill="none" fill-rule="evenodd"/><path d="M6539 764 6539 2123.57" stroke="#00B0F0" stroke-width="10.3125" stroke-miterlimit="8" fill="none" fill-rule="evenodd"/><path d="M6071 2025 6407 2025 6407 2309 6351 2365 6071 2365Z" fill="#A9D18E" fill-rule="evenodd"/><path d="M6351 2365 6362.2 2320.2 6407 2309Z" fill="#88A872" fill-rule="evenodd"/><path d="M6351 2365 6362.2 2320.2 6407 2309 6351 2365 6071 2365 6071 2025 6407 2025 6407 2309" stroke="#385723" stroke-width="10.3125" stroke-miterlimit="8" fill="none" fill-rule="evenodd"/><text fill="#FFFFFF" font-family="Calibri,Calibri_MSFontService,sans-serif" font-weight="400" font-size="50" transform="matrix(1 0 0 1 6213.71 2185)">csv</text><path d="M6125 2093 6461 2093 6461 2377 6405 2433 6125 2433Z" fill="#A9D18E" fill-rule="evenodd"/><path d="M6405 2433 6416.2 2388.2 6461 2377Z" fill="#88A872" fill-rule="evenodd"/><path d="M6405 2433 6416.2 2388.2 6461 2377 6405 2433 6125 2433 6125 2093 6461 2093 6461 2377" stroke="#385723" stroke-width="10.3125" stroke-miterlimit="8" fill="none" fill-rule="evenodd"/><text fill="#FFFFFF" font-family="Calibri,Calibri_MSFontService,sans-serif" font-weight="400" font-size="50" transform="matrix(1 0 0 1 6267.69 2252)">csv</text><path d="M4301 2073.4C4301 2054.96 4315.96 2040 4334.4 2040L5371.6 2040C5390.04 2040 5405 2054.96 5405 2073.4L5405 2599.6C5405 2618.04 5390.04 2633 5371.6 2633L4334.4 2633C4315.96 2633 4301 2618.04 4301 2599.6Z" stroke="#000000" stroke-width="10.3125" stroke-miterlimit="8" fill="#2E75B6" fill-rule="evenodd"/><g><text fill="#FFFFFF" font-family="BIZ UDGothic,BIZ UDGothic_MSFontService,sans-serif" font-weight="400" font-size="50" transform="matrix(1 0 0 1 4330.6 2108)">MPU6050</text></g><g><text fill="#FFFFFF" font-family="BIZ UDGothic,BIZ UDGothic_MSFontService,sans-serif" font-weight="400" font-size="50" transform="matrix(1 0 0 1 4507.06 2108)">名</text></g><g><text fill="#FFFFFF" font-family="BIZ UDGothic,BIZ UDGothic_MSFontService,sans-serif" font-weight="400" font-size="50" transform="matrix(1 0 0 1 4557.47 2108)">Impl</text></g><g><text fill="#FFFFFF" font-family="BIZ UDGothic,BIZ UDGothic_MSFontService,sans-serif" font-weight="400" font-size="50" transform="matrix(1 0 0 1 4658.31 2108)">クラス</text></g><path d="M4386.5 2128.33C4386.5 2125.66 4388.66 2123.5 4391.33 2123.5L5315.67 2123.5C5318.34 2123.5 5320.5 2125.66 5320.5 2128.33L5320.5 2534.67C5320.5 2537.34 5318.34 2539.5 5315.67 2539.5L4391.33 2539.5C4388.66 2539.5 4386.5 2537.34 4386.5 2534.67Z" stroke="#5B9BD5" stroke-width="4.58333" stroke-miterlimit="8" stroke-dasharray="18.3333 13.75" fill="#203864" fill-rule="evenodd"/><g><text fill="#C198E0" font-family="BIZ UDGothic,BIZ UDGothic_MSFontService,sans-serif" font-weight="400" font-size="50" transform="matrix(1 0 0 1 4407.15 2183)">doGPIO</text></g><g><text fill="#C198E0" font-family="BIZ UDGothic,BIZ UDGothic_MSFontService,sans-serif" font-weight="400" font-size="50" transform="matrix(1 0 0 1 4558.4 2183)">センサ名</text></g><g><text fill="#C198E0" font-family="BIZ UDGothic,BIZ UDGothic_MSFontService,sans-serif" font-weight="400" font-size="50" transform="matrix(1 0 0 1 4760.07 2183)">Impl</text></g><g><text fill="#C198E0" font-family="BIZ UDGothic,BIZ UDGothic_MSFontService,sans-serif" font-weight="400" font-size="50" transform="matrix(1 0 0 1 4860.9 2183)">関数</text></g><path d="M4471.5 2222.83C4471.5 2214.92 4477.92 2208.5 4485.83 2208.5L5222.17 2208.5C5230.08 2208.5 5236.5 2214.92 5236.5 2222.83L5236.5 2280.17C5236.5 2288.08 5230.08 2294.5 5222.17 2294.5L4485.83 2294.5C4477.92 2294.5 4471.5 2288.08 4471.5 2280.17Z" stroke="#5B9BD5" stroke-width="4.58333" stroke-miterlimit="8" stroke-dasharray="18.3333 13.75" fill="#203864" fill-rule="evenodd"/><g><text fill="#C198E0" font-family="BIZ UDGothic,BIZ UDGothic_MSFontService,sans-serif" font-weight="400" font-size="50" transform="matrix(1 0 0 1 4494.87 2274)">__read_sensor</text></g><g><text fill="#C198E0" font-family="BIZ UDGothic,BIZ UDGothic_MSFontService,sans-serif" font-weight="400" font-size="50" transform="matrix(1 0 0 1 4822.58 2274)">関数</text></g><path d="M4471.5 2392.83C4471.5 2384.92 4477.92 2378.5 4485.83 2378.5L5222.17 2378.5C5230.08 2378.5 5236.5 2384.92 5236.5 2392.83L5236.5 2450.17C5236.5 2458.08 5230.08 2464.5 5222.17 2464.5L4485.83 2464.5C4477.92 2464.5 4471.5 2458.08 4471.5 2450.17Z" stroke="#5B9BD5" stroke-width="4.58333" stroke-miterlimit="8" stroke-dasharray="18.3333 13.75" fill="#203864" fill-rule="evenodd"/><g><text fill="#C198E0" font-family="BIZ UDGothic,BIZ UDGothic_MSFontService,sans-serif" font-weight="400" font-size="50" transform="matrix(1 0 0 1 4494.87 2444)">__output_csv</text></g><g><text fill="#C198E0" font-family="BIZ UDGothic,BIZ UDGothic_MSFontService,sans-serif" font-weight="400" font-size="50" transform="matrix(1 0 0 1 4797.37 2444)">関数</text></g><path d="M4354 2157.46C4354 2138.98 4368.98 2124 4387.46 2124L5424.54 2124C5443.02 2124 5458 2138.98 5458 2157.46L5458 2684.54C5458 2703.02 5443.02 2718 5424.54 2718L4387.46 2718C4368.98 2718 4354 2703.02 4354 2684.54Z" stroke="#000000" stroke-width="10.3125" stroke-miterlimit="8" fill="#2E75B6" fill-rule="evenodd"/><g><text fill="#FFFFFF" font-family="BIZ UDGothic,BIZ UDGothic_MSFontService,sans-serif" font-weight="400" font-size="50" transform="matrix(1 0 0 1 4383.02 2193)">BME280Impl</text></g><g><text fill="#FFFFFF" font-family="BIZ UDGothic,BIZ UDGothic_MSFontService,sans-serif" font-weight="400" font-size="50" transform="matrix(1 0 0 1 4635.11 2193)">クラス</text></g><path d="M4439.5 2213.33C4439.5 2210.66 4441.66 2208.5 4444.33 2208.5L5368.67 2208.5C5371.34 2208.5 5373.5 2210.66 5373.5 2213.33L5373.5 2619.67C5373.5 2622.34 5371.34 2624.5 5368.67 2624.5L4444.33 2624.5C4441.66 2624.5 4439.5 2622.34 4439.5 2619.67Z" stroke="#5B9BD5" stroke-width="4.58333" stroke-miterlimit="8" stroke-dasharray="18.3333 13.75" fill="#203864" fill-rule="evenodd"/><g><text fill="#C198E0" font-family="BIZ UDGothic,BIZ UDGothic_MSFontService,sans-serif" font-weight="400" font-size="50" transform="matrix(1 0 0 1 4459.58 2268)">doGPIO</text></g><g><text fill="#C198E0" font-family="BIZ UDGothic,BIZ UDGothic_MSFontService,sans-serif" font-weight="400" font-size="50" transform="matrix(1 0 0 1 4610.83 2268)">センサ名</text></g><g><text fill="#C198E0" font-family="BIZ UDGothic,BIZ UDGothic_MSFontService,sans-serif" font-weight="400" font-size="50" transform="matrix(1 0 0 1 4812.5 2268)">Impl</text></g><g><text fill="#C198E0" font-family="BIZ UDGothic,BIZ UDGothic_MSFontService,sans-serif" font-weight="400" font-size="50" transform="matrix(1 0 0 1 4913.33 2268)">関数</text></g><path d="M4524.5 2307.83C4524.5 2299.92 4530.92 2293.5 4538.83 2293.5L5274.17 2293.5C5282.08 2293.5 5288.5 2299.92 5288.5 2307.83L5288.5 2365.17C5288.5 2373.08 5282.08 2379.5 5274.17 2379.5L4538.83 2379.5C4530.92 2379.5 4524.5 2373.08 4524.5 2365.17Z" stroke="#5B9BD5" stroke-width="4.58333" stroke-miterlimit="8" stroke-dasharray="18.3333 13.75" fill="#203864" fill-rule="evenodd"/><g><text fill="#C198E0" font-family="BIZ UDGothic,BIZ UDGothic_MSFontService,sans-serif" font-weight="400" font-size="50" transform="matrix(1 0 0 1 4547.3 2359)">__read_sensor</text></g><g><text fill="#C198E0" font-family="BIZ UDGothic,BIZ UDGothic_MSFontService,sans-serif" font-weight="400" font-size="50" transform="matrix(1 0 0 1 4875.01 2359)">関数</text></g><path d="M4524.5 2477.83C4524.5 2469.92 4530.92 2463.5 4538.83 2463.5L5274.17 2463.5C5282.08 2463.5 5288.5 2469.92 5288.5 2477.83L5288.5 2535.17C5288.5 2543.08 5282.08 2549.5 5274.17 2549.5L4538.83 2549.5C4530.92 2549.5 4524.5 2543.08 4524.5 2535.17Z" stroke="#5B9BD5" stroke-width="4.58333" stroke-miterlimit="8" stroke-dasharray="18.3333 13.75" fill="#203864" fill-rule="evenodd"/><g><text fill="#C198E0" font-family="BIZ UDGothic,BIZ UDGothic_MSFontService,sans-serif" font-weight="400" font-size="50" transform="matrix(1 0 0 1 4547.3 2528)">__output_csv</text></g><g><text fill="#C198E0" font-family="BIZ UDGothic,BIZ UDGothic_MSFontService,sans-serif" font-weight="400" font-size="50" transform="matrix(1 0 0 1 4849.8 2528)">関数</text></g><path d="M2463 1654.42C2463 1632.1 2481.1 1614 2503.42 1614L4035.58 1614C4057.9 1614 4076 1632.1 4076 1654.42L4076 4207.58C4076 4229.9 4057.9 4248 4035.58 4248L2503.42 4248C2481.1 4248 2463 4229.9 2463 4207.58Z" fill="#000000" fill-rule="evenodd" fill-opacity="0.698039"/><path d="M1434 1316.75 1782.5 1316.75 1782.5 1274 1868 1359.5 1782.5 1445 1782.5 1402.25 1434 1402.25Z" fill="#FF0000" fill-rule="evenodd" fill-opacity="0.6"/><path d="M2203 1321.5 2318 1321.5 2318 1279 2403 1364 2318 1449 2318 1406.5 2203 1406.5Z" fill="#FF0000" fill-rule="evenodd" fill-opacity="0.6"/><path d="M4045 1486.5 4162 1486.5 4162 1444 4247 1529 4162 1614 4162 1571.5 4045 1571.5Z" fill="#FF0000" fill-rule="evenodd" fill-opacity="0.6"/><path d="M5303 1573.5 5955 1573.5 5955 1531 6040 1616 5955 1701 5955 1658.5 5303 1658.5Z" fill="#FF0000" fill-rule="evenodd" fill-opacity="0.6"/><path d="M5303 2081.5 5955 2081.5 5955 2039 6040 2124 5955 2209 5955 2166.5 5303 2166.5Z" fill="#FF0000" fill-rule="evenodd" fill-opacity="0.6"/><path d="M0 2790 97.0008 2693 97.0008 2755.87 256.872 2755.87 256.872 97.0005 194.002 97.0005 290.999 0 388 97.0005 325.129 97.0005 325.129 2824.13 97.0008 2824.13 97.0008 2887Z" fill="#FF0000" fill-rule="evenodd" fill-opacity="0.6" transform="matrix(1 0 0 -1 5315 4586)"/><path d="M0 42.5001 209 42.5001 209 0 294 85.0002 209 170 209 127.5 0 127.5Z" fill="#FF0000" fill-rule="evenodd" fill-opacity="0.6" transform="matrix(-1 0 0 1 5573 2384)"/><path d="M5993 3383.22C5993 3377.58 5997.58 3373 6003.22 3373L6390.78 3373C6396.42 3373 6401 3377.58 6401 3383.22L6401 4294.78C6401 4300.42 6396.42 4305 6390.78 4305L6003.22 4305C5997.58 4305 5993 4300.42 5993 4294.78Z" fill="#000000" fill-rule="evenodd" fill-opacity="0.698039"/></g></svg>