<svg width="5696" height="4385" xmlns="http://www.w3.org/2000/svg" xmlns:xlink="http://www.w3.org/1999/xlink" xml:space="preserve" overflow="hidden"><g transform="translate(-1135 -695)"><path d="M1837.5 1032.92C1837.5 994.581 1868.58 963.5 1906.92 963.5L6056.08 963.5C6094.42 963.5 6125.5 994.581 6125.5 1032.92L6125.5 4569.08C6125.5 4607.42 6094.42 4638.5 6056.08 4638.5L1906.92 4638.5C1868.58 4638.5 1837.5 4607.42 1837.5 4569.08Z" stroke="#F2F2F2" stroke-width="4.58333" stroke-miterlimit="8" fill="none" fill-rule="evenodd"/><g><text fill="#FFFFFF" font-family="BIZ UDGothic,BIZ UDGothic_MSFontService,sans-serif" font-weight="400" font-size="50" transform="matrix(1 0 0 1 1877.32 1041)">space_balloon.py</text></g><path d="M2373 1073.41C2373 1058.83 2384.83 1047 2399.41 1047L6011.59 1047C6026.17 1047 6038 1058.83 6038 1073.41L6038 4523.59C6038 4538.17 6026.17 4550 6011.59 4550L2399.41 4550C2384.83 4550 2373 4538.17 2373 4523.59Z" stroke="#000000" stroke-width="10.3125" stroke-miterlimit="8" fill="#2F5597" fill-rule="evenodd"/><g><text fill="#FFFFFF" font-family="BIZ UDGothic,BIZ UDGothic_MSFontService,sans-serif" font-weight="400" font-size="50" transform="matrix(1 0 0 1 2400.33 1114)">SensorWrapper</text></g><g><text fill="#FFFFFF" font-family="BIZ UDGothic,BIZ UDGothic_MSFontService,sans-serif" font-weight="400" font-size="50" transform="matrix(1 0 0 1 2728.04 1114)">クラス</text></g><path d="M2450.5 1153C2450.5 1144.99 2456.99 1138.5 2465 1138.5L3048 1138.5C3056.01 1138.5 3062.5 1144.99 3062.5 1153L3062.5 1211C3062.5 1219.01 3056.01 1225.5 3048 1225.5L2465 1225.5C2456.99 1225.5 2450.5 1219.01 2450.5 1211Z" stroke="#ED7D31" stroke-width="4.58333" stroke-miterlimit="8" stroke-dasharray="18.3333 13.75" fill="#ED7D31" fill-rule="evenodd"/><g><text fill="#FFFFFF" font-family="BIZ UDGothic,BIZ UDGothic_MSFontService,sans-serif" font-weight="400" font-size="50" transform="matrix(1 0 0 1 2473.58 1200)">パラメータ群</text></g><path d="M2446.5 1316.66C2446.5 1303.32 2457.32 1292.5 2470.66 1292.5L5926.33 1292.5C5939.68 1292.5 5950.5 1303.32 5950.5 1316.66L5950.5 4439.34C5950.5 4452.68 5939.68 4463.5 5926.33 4463.5L2470.66 4463.5C2457.32 4463.5 2446.5 4452.68 2446.5 4439.34Z" stroke="#5B9BD5" stroke-width="4.58333" stroke-miterlimit="8" stroke-dasharray="18.3333 13.75" fill="#203864" fill-rule="evenodd"/><g><text fill="#C198E0" font-family="BIZ UDGothic,BIZ UDGothic_MSFontService,sans-serif" font-weight="400" font-size="50" transform="matrix(1 0 0 1 2472.26 1357)">doSensorWrapper</text></g><g><text fill="#C198E0" font-family="BIZ UDGothic,BIZ UDGothic_MSFontService,sans-serif" font-weight="400" font-size="50" transform="matrix(1 0 0 1 2850.38 1357)">関数</text></g><path d="M1925.5 1324.66C1925.5 1319.6 1929.6 1315.5 1934.66 1315.5L2263.34 1315.5C2268.4 1315.5 2272.5 1319.6 2272.5 1324.66L2272.5 1478.34C2272.5 1483.4 2268.4 1487.5 2263.34 1487.5L1934.66 1487.5C1929.6 1487.5 1925.5 1483.4 1925.5 1478.34Z" stroke="#5B9BD5" stroke-width="4.58333" stroke-miterlimit="8" stroke-dasharray="18.3333 13.75" fill="#203864" fill-rule="evenodd"/><g><text fill="#C198E0" font-family="BIZ UDGothic,BIZ UDGothic_MSFontService,sans-serif" font-weight="400" font-size="50" transform="matrix(1 0 0 1 1947.18 1424)">main</text></g><text fill="#C198E0" font-family="BIZ UDGothic,BIZ UDGothic_MSFontService,sans-serif" font-weight="400" font-size="50" transform="matrix(1 0 0 1 2048.01 1424)">関数</text><path d="M2275 1398.85 2427.08 1398.85 2427.08 1401.15 2275 1401.15ZM2422.5 1386.25 2450 1400 2422.5 1413.75Z" fill="#FFFFFF"/><rect x="5425" y="4725" width="525" height="350" stroke="#FF0000" stroke-width="10.3125" stroke-miterlimit="8" fill="#ED7D31"/><g><text fill="#FFFFFF" font-family="BIZ UDGothic,BIZ UDGothic_MSFontService,sans-serif" font-weight="400" font-size="50" transform="matrix(1 0 0 1 5444.49 4783)">センサー群</text></g><g><text fill="#FFFFFF" font-family="BIZ UDGothic,BIZ UDGothic_MSFontService,sans-serif" font-weight="400" font-size="50" transform="matrix(1 0 0 1 5444.49 4848)">・</text></g><text fill="#FFFFFF" font-family="BIZ UDGothic,BIZ UDGothic_MSFontService,sans-serif" font-weight="400" font-size="50" transform="matrix(1 0 0 1 5494.9 4848)">Camera Module</text><g><text fill="#FFFFFF" font-family="BIZ UDGothic,BIZ UDGothic_MSFontService,sans-serif" font-weight="400" font-size="50" transform="matrix(1 0 0 1 5444.49 4914)">・</text></g><text fill="#FFFFFF" font-family="BIZ UDGothic,BIZ UDGothic_MSFontService,sans-serif" font-weight="400" font-size="50" transform="matrix(1 0 0 1 5494.9 4914)">BME280</text><g><text fill="#FFFFFF" font-family="BIZ UDGothic,BIZ UDGothic_MSFontService,sans-serif" font-weight="400" font-size="50" transform="matrix(1 0 0 1 5444.49 4980)">・</text></g><text fill="#FFFFFF" font-family="BIZ UDGothic,BIZ UDGothic_MSFontService,sans-serif" font-weight="400" font-size="50" transform="matrix(1 0 0 1 5494.9 4980)">MPU6050</text><path d="M6213 2713 6562 2713 6562 3003.83 6503.83 3062 6213 3062Z" fill="#A9D18E" fill-rule="evenodd"/><path d="M6503.83 3062 6515.47 3015.47 6562 3003.83Z" fill="#88A872" fill-rule="evenodd"/><path d="M6503.83 3062 6515.47 3015.47 6562 3003.83 6503.83 3062 6213 3062 6213 2713 6562 2713 6562 3003.83" stroke="#385723" stroke-width="10.3125" stroke-miterlimit="8" fill="none" fill-rule="evenodd"/><text fill="#FFFFFF" font-family="Calibri,Calibri_MSFontService,sans-serif" font-weight="400" font-size="50" transform="matrix(1 0 0 1 6362.02 2876)">csv</text><path d="M6213 2013 6560 2013 6560 2305.17 6502.17 2363 6213 2363Z" fill="#A9D18E" fill-rule="evenodd"/><path d="M6502.17 2363 6513.73 2316.73 6560 2305.17Z" fill="#88A872" fill-rule="evenodd"/><path d="M6502.17 2363 6513.73 2316.73 6560 2305.17 6502.17 2363 6213 2363 6213 2013 6560 2013 6560 2305.17" stroke="#385723" stroke-width="10.3125" stroke-miterlimit="8" fill="none" fill-rule="evenodd"/><text fill="#FFFFFF" font-family="Calibri,Calibri_MSFontService,sans-serif" font-weight="400" font-size="50" transform="matrix(1 0 0 1 6360.72 2176)">csv</text><path d="M6213 4113 6548 4113 6548 4331.33 6504.33 4375 6213 4375Z" fill="#0000FF" fill-rule="evenodd"/><path d="M6504.33 4375 6513.07 4340.07 6548 4331.33Z" fill="#0000CD" fill-rule="evenodd"/><path d="M6504.33 4375 6513.07 4340.07 6548 4331.33 6504.33 4375 6213 4375 6213 4113 6548 4113 6548 4331.33" stroke="#00B050" stroke-width="10.3125" stroke-miterlimit="8" fill="none" fill-rule="evenodd"/><text fill="#FFFFFF" font-family="Calibri,Calibri_MSFontService,sans-serif" font-weight="400" font-size="50" transform="matrix(1 0 0 1 6257.67 4178)">H.264 movie</text><text fill="#FFFFFF" font-family="Calibri,Calibri_MSFontService,sans-serif" font-weight="400" font-size="50" transform="matrix(1 0 0 1 6364.83 4240)">or</text><g><text fill="#FFFFFF" font-family="Calibri,Calibri_MSFontService,sans-serif" font-weight="400" font-size="50" transform="matrix(1 0 0 1 6290.86 4301)">MP4 ovie</text></g><path d="M6213.5 1487.5 6563.5 1487.5 6563.5 1779.17 6505.17 1837.5 6213.5 1837.5Z" fill="#0000FF" fill-rule="evenodd"/><path d="M6505.17 1837.5 6516.83 1790.83 6563.5 1779.17Z" fill="#0000CD" fill-rule="evenodd"/><path d="M6505.17 1837.5 6516.83 1790.83 6563.5 1779.17 6505.17 1837.5 6213.5 1837.5 6213.5 1487.5 6563.5 1487.5 6563.5 1779.17" stroke="#0000FF" stroke-width="4.58333" stroke-miterlimit="8" fill="none" fill-rule="evenodd"/><text fill="#FFFFFF" font-family="Calibri,Calibri_MSFontService,sans-serif" font-weight="400" font-size="50" transform="matrix(1 0 0 1 6264.76 1651)">H.264 movie</text><path d="M1758 1919.84 2511.4 1919.84 2511.4 1930.16 1758 1930.16ZM2506.24 1909.53 2537.18 1925 2506.24 1940.47Z" fill="#00B0F0"/><path d="M1137.5 1312.5 1487.5 1312.5 1487.5 1471.67 1455.67 1503.5 1137.5 1503.5Z" fill="#ED7D31" fill-rule="evenodd"/><path d="M1455.67 1503.5 1462.03 1478.03 1487.5 1471.67Z" fill="#BF6427" fill-rule="evenodd"/><path d="M1455.67 1503.5 1462.03 1478.03 1487.5 1471.67 1455.67 1503.5 1137.5 1503.5 1137.5 1312.5 1487.5 1312.5 1487.5 1471.67" stroke="#FFFFFF" stroke-width="4.58333" stroke-miterlimit="8" fill="none" fill-rule="evenodd"/><g><text fill="#FFFFFF" font-family="Yu Gothic,Yu Gothic_MSFontService,sans-serif" font-weight="400" font-size="50" transform="matrix(1 0 0 1 1150.49 1372)">オプション</text></g><path d="M2537.5 1502.17C2537.5 1494.07 2544.07 1487.5 2552.17 1487.5L3137.83 1487.5C3145.93 1487.5 3152.5 1494.07 3152.5 1502.17L3152.5 1560.83C3152.5 1568.93 3145.93 1575.5 3137.83 1575.5L2552.17 1575.5C2544.07 1575.5 2537.5 1568.93 2537.5 1560.83Z" stroke="#5B9BD5" stroke-width="4.58333" stroke-miterlimit="8" stroke-dasharray="18.3333 13.75" fill="#203864" fill-rule="evenodd"/><g><text fill="#C198E0" font-family="BIZ UDGothic,BIZ UDGothic_MSFontService,sans-serif" font-weight="400" font-size="50" transform="matrix(1 0 0 1 2561.09 1554)">__read_args</text></g><g><text fill="#C198E0" font-family="BIZ UDGothic,BIZ UDGothic_MSFontService,sans-serif" font-weight="400" font-size="50" transform="matrix(1 0 0 1 2838.38 1554)">関数</text></g><path d="M4285.5 1426.22C4285.5 1412.02 4297.02 1400.5 4311.22 1400.5L5837.78 1400.5C5851.98 1400.5 5863.5 1412.02 5863.5 1426.22L5863.5 3562.78C5863.5 3576.98 5851.98 3588.5 5837.78 3588.5L4311.22 3588.5C4297.02 3588.5 4285.5 3576.98 4285.5 3562.78Z" stroke="#5B9BD5" stroke-width="4.58333" stroke-miterlimit="8" stroke-dasharray="18.3333 13.75" fill="#203864" fill-rule="evenodd"/><g><text fill="#C198E0" font-family="BIZ UDGothic,BIZ UDGothic_MSFontService,sans-serif" font-weight="400" font-size="50" transform="matrix(1 0 0 1 4311.97 1466)">__setup_sensors</text></g><g><text fill="#C198E0" font-family="BIZ UDGothic,BIZ UDGothic_MSFontService,sans-serif" font-weight="400" font-size="50" transform="matrix(1 0 0 1 4690.1 1466)">関数</text></g><path d="M3500.5 1509.5C3500.5 1501.77 3506.77 1495.5 3514.5 1495.5L4102.5 1495.5C4110.23 1495.5 4116.5 1501.77 4116.5 1509.5L4116.5 1565.5C4116.5 1573.23 4110.23 1579.5 4102.5 1579.5L3514.5 1579.5C3506.77 1579.5 3500.5 1573.23 3500.5 1565.5Z" stroke="#5B9BD5" stroke-width="4.58333" stroke-miterlimit="8" stroke-dasharray="18.3333 13.75" fill="#203864" fill-rule="evenodd"/><g><text fill="#C198E0" font-family="BIZ UDGothic,BIZ UDGothic_MSFontService,sans-serif" font-weight="400" font-size="50" transform="matrix(1 0 0 1 3523.59 1559)">その他関数</text></g><path d="M4375 1502.52C4375 1493.95 4381.95 1487 4390.52 1487L5497.48 1487C5506.05 1487 5513 1493.95 5513 1502.52L5513 1910.48C5513 1919.05 5506.05 1926 5497.48 1926L4390.52 1926C4381.95 1926 4375 1919.05 4375 1910.48Z" stroke="#000000" stroke-width="10.3125" stroke-miterlimit="8" fill="#2E75B6" fill-rule="evenodd"/><g><text fill="#FFFFFF" font-family="BIZ UDGothic,BIZ UDGothic_MSFontService,sans-serif" font-weight="400" font-size="50" transform="matrix(1 0 0 1 4399.03 1551)">CameraModuleImpl</text></g><g><text fill="#FFFFFF" font-family="BIZ UDGothic,BIZ UDGothic_MSFontService,sans-serif" font-weight="400" font-size="50" transform="matrix(1 0 0 1 4802.36 1551)">クラス</text></g><path d="M4462.5 1596.66C4462.5 1584.97 4471.97 1575.5 4483.66 1575.5L5404.34 1575.5C5416.03 1575.5 5425.5 1584.97 5425.5 1596.66L5425.5 1817.34C5425.5 1829.03 5416.03 1838.5 5404.34 1838.5L4483.66 1838.5C4471.97 1838.5 4462.5 1829.03 4462.5 1817.34Z" stroke="#5B9BD5" stroke-width="4.58333" stroke-miterlimit="8" stroke-dasharray="18.3333 13.75" fill="#203864" fill-rule="evenodd"/><g><text fill="#C198E0" font-family="BIZ UDGothic,BIZ UDGothic_MSFontService,sans-serif" font-weight="400" font-size="50" transform="matrix(1 0 0 1 4488.18 1640)">doCameraModuleImpl</text></g><g><text fill="#C198E0" font-family="BIZ UDGothic,BIZ UDGothic_MSFontService,sans-serif" font-weight="400" font-size="50" transform="matrix(1 0 0 1 4941.93 1640)">関数</text></g><path d="M4553.5 1677.5C4553.5 1669.77 4559.77 1663.5 4567.5 1663.5L5324.5 1663.5C5332.23 1663.5 5338.5 1669.77 5338.5 1677.5L5338.5 1733.5C5338.5 1741.23 5332.23 1747.5 5324.5 1747.5L4567.5 1747.5C4559.77 1747.5 4553.5 1741.23 4553.5 1733.5Z" stroke="#5B9BD5" stroke-width="4.58333" stroke-miterlimit="8" stroke-dasharray="18.3333 13.75" fill="#203864" fill-rule="evenodd"/><g><text fill="#C198E0" font-family="BIZ UDGothic,BIZ UDGothic_MSFontService,sans-serif" font-weight="400" font-size="50" transform="matrix(1 0 0 1 4576.33 1727)">__start_camera_module</text></g><g><text fill="#C198E0" font-family="BIZ UDGothic,BIZ UDGothic_MSFontService,sans-serif" font-weight="400" font-size="50" transform="matrix(1 0 0 1 5105.71 1727)">関数</text></g><path d="M4375 2048.42C4375 2029.41 4390.41 2014 4409.42 2014L5478.58 2014C5497.59 2014 5513 2029.41 5513 2048.42L5513 2590.58C5513 2609.59 5497.59 2625 5478.58 2625L4409.42 2625C4390.41 2625 4375 2609.59 4375 2590.58Z" stroke="#000000" stroke-width="10.3125" stroke-miterlimit="8" fill="#2E75B6" fill-rule="evenodd"/><g><text fill="#FFFFFF" font-family="BIZ UDGothic,BIZ UDGothic_MSFontService,sans-serif" font-weight="400" font-size="50" transform="matrix(1 0 0 1 4404.57 2082)">BME280Impl</text></g><g><text fill="#FFFFFF" font-family="BIZ UDGothic,BIZ UDGothic_MSFontService,sans-serif" font-weight="400" font-size="50" transform="matrix(1 0 0 1 4656.65 2082)">クラス</text></g><path d="M4463.5 2105.48C4463.5 2102.73 4465.73 2100.5 4468.48 2100.5L5420.52 2100.5C5423.27 2100.5 5425.5 2102.73 5425.5 2105.48L5425.5 2524.52C5425.5 2527.27 5423.27 2529.5 5420.52 2529.5L4468.48 2529.5C4465.73 2529.5 4463.5 2527.27 4463.5 2524.52Z" stroke="#5B9BD5" stroke-width="4.58333" stroke-miterlimit="8" stroke-dasharray="18.3333 13.75" fill="#203864" fill-rule="evenodd"/><g><text fill="#C198E0" font-family="BIZ UDGothic,BIZ UDGothic_MSFontService,sans-serif" font-weight="400" font-size="50" transform="matrix(1 0 0 1 4483.45 2160)">doBME280Impl</text></g><g><text fill="#C198E0" font-family="BIZ UDGothic,BIZ UDGothic_MSFontService,sans-serif" font-weight="400" font-size="50" transform="matrix(1 0 0 1 4785.95 2160)">関数</text></g><path d="M4550.5 2203.17C4550.5 2195.07 4557.07 2188.5 4565.17 2188.5L5323.83 2188.5C5331.93 2188.5 5338.5 2195.07 5338.5 2203.17L5338.5 2261.83C5338.5 2269.93 5331.93 2276.5 5323.83 2276.5L4565.17 2276.5C4557.07 2276.5 4550.5 2269.93 4550.5 2261.83Z" stroke="#5B9BD5" stroke-width="4.58333" stroke-miterlimit="8" stroke-dasharray="18.3333 13.75" fill="#203864" fill-rule="evenodd"/><g><text fill="#C198E0" font-family="BIZ UDGothic,BIZ UDGothic_MSFontService,sans-serif" font-weight="400" font-size="50" transform="matrix(1 0 0 1 4573.82 2254)">__read_sensor</text></g><g><text fill="#C198E0" font-family="BIZ UDGothic,BIZ UDGothic_MSFontService,sans-serif" font-weight="400" font-size="50" transform="matrix(1 0 0 1 4901.53 2254)">関数</text></g><path d="M4550.5 2378.17C4550.5 2370.07 4557.07 2363.5 4565.17 2363.5L5323.83 2363.5C5331.93 2363.5 5338.5 2370.07 5338.5 2378.17L5338.5 2436.83C5338.5 2444.93 5331.93 2451.5 5323.83 2451.5L4565.17 2451.5C4557.07 2451.5 4550.5 2444.93 4550.5 2436.83Z" stroke="#5B9BD5" stroke-width="4.58333" stroke-miterlimit="8" stroke-dasharray="18.3333 13.75" fill="#203864" fill-rule="evenodd"/><g><text fill="#C198E0" font-family="BIZ UDGothic,BIZ UDGothic_MSFontService,sans-serif" font-weight="400" font-size="50" transform="matrix(1 0 0 1 4573.82 2429)">__output_csv</text></g><g><text fill="#C198E0" font-family="BIZ UDGothic,BIZ UDGothic_MSFontService,sans-serif" font-weight="400" font-size="50" transform="matrix(1 0 0 1 4876.32 2429)">関数</text></g><path d="M4375 2747.68C4375 2728.53 4390.53 2713 4409.68 2713L5478.32 2713C5497.47 2713 5513 2728.53 5513 2747.68L5513 3465.32C5513 3484.47 5497.47 3500 5478.32 3500L4409.68 3500C4390.53 3500 4375 3484.47 4375 3465.32Z" stroke="#000000" stroke-width="10.3125" stroke-miterlimit="8" fill="#2E75B6" fill-rule="evenodd"/><g><text fill="#FFFFFF" font-family="BIZ UDGothic,BIZ UDGothic_MSFontService,sans-serif" font-weight="400" font-size="50" transform="matrix(1 0 0 1 4404.65 2781)">MPU6050Impl</text></g><g><text fill="#FFFFFF" font-family="BIZ UDGothic,BIZ UDGothic_MSFontService,sans-serif" font-weight="400" font-size="50" transform="matrix(1 0 0 1 4681.94 2781)">クラス</text></g><path d="M4461.5 2811.46C4461.5 2805.41 4466.41 2800.5 4472.46 2800.5L5414.54 2800.5C5420.59 2800.5 5425.5 2805.41 5425.5 2811.46L5425.5 3428.54C5425.5 3434.59 5420.59 3439.5 5414.54 3439.5L4472.46 3439.5C4466.41 3439.5 4461.5 3434.59 4461.5 3428.54Z" stroke="#5B9BD5" stroke-width="4.58333" stroke-miterlimit="8" stroke-dasharray="18.3333 13.75" fill="#203864" fill-rule="evenodd"/><g><text fill="#C198E0" font-family="BIZ UDGothic,BIZ UDGothic_MSFontService,sans-serif" font-weight="400" font-size="50" transform="matrix(1 0 0 1 4484.13 2862)">doMPU6050Impl</text></g><g><text fill="#C198E0" font-family="BIZ UDGothic,BIZ UDGothic_MSFontService,sans-serif" font-weight="400" font-size="50" transform="matrix(1 0 0 1 4811.84 2862)">関数</text></g><path d="M4550.5 3253.17C4550.5 3245.07 4557.07 3238.5 4565.17 3238.5L5323.83 3238.5C5331.93 3238.5 5338.5 3245.07 5338.5 3253.17L5338.5 3311.83C5338.5 3319.93 5331.93 3326.5 5323.83 3326.5L4565.17 3326.5C4557.07 3326.5 4550.5 3319.93 4550.5 3311.83Z" stroke="#5B9BD5" stroke-width="4.58333" stroke-miterlimit="8" stroke-dasharray="18.3333 13.75" fill="#203864" fill-rule="evenodd"/><g><text fill="#C198E0" font-family="BIZ UDGothic,BIZ UDGothic_MSFontService,sans-serif" font-weight="400" font-size="50" transform="matrix(1 0 0 1 4573.82 3304)">__output_csv</text></g><g><text fill="#C198E0" font-family="BIZ UDGothic,BIZ UDGothic_MSFontService,sans-serif" font-weight="400" font-size="50" transform="matrix(1 0 0 1 4876.32 3304)">関数</text></g><path d="M4550.5 2912C4550.5 2899.57 4560.57 2889.5 4573 2889.5L5316 2889.5C5328.43 2889.5 5338.5 2899.57 5338.5 2912L5338.5 3129C5338.5 3141.43 5328.43 3151.5 5316 3151.5L4573 3151.5C4560.57 3151.5 4550.5 3141.43 4550.5 3129Z" stroke="#5B9BD5" stroke-width="4.58333" stroke-miterlimit="8" stroke-dasharray="18.3333 13.75" fill="#203864" fill-rule="evenodd"/><g><text fill="#C198E0" font-family="BIZ UDGothic,BIZ UDGothic_MSFontService,sans-serif" font-weight="400" font-size="50" transform="matrix(1 0 0 1 4576.09 2954)">__read_sensor</text></g><g><text fill="#C198E0" font-family="BIZ UDGothic,BIZ UDGothic_MSFontService,sans-serif" font-weight="400" font-size="50" transform="matrix(1 0 0 1 4903.8 2954)">関数</text></g><path d="M4638.5 2990.33C4638.5 2982.14 4645.14 2975.5 4653.33 2975.5L5148.67 2975.5C5156.86 2975.5 5163.5 2982.14 5163.5 2990.33L5163.5 3049.67C5163.5 3057.86 5156.86 3064.5 5148.67 3064.5L4653.33 3064.5C4645.14 3064.5 4638.5 3057.86 4638.5 3049.67Z" stroke="#5B9BD5" stroke-width="4.58333" stroke-miterlimit="8" stroke-dasharray="18.3333 13.75" fill="#203864" fill-rule="evenodd"/><g><text fill="#C198E0" font-family="BIZ UDGothic,BIZ UDGothic_MSFontService,sans-serif" font-weight="400" font-size="50" transform="matrix(1 0 0 1 4661.32 3042)">__read_word</text></g><g><text fill="#C198E0" font-family="BIZ UDGothic,BIZ UDGothic_MSFontService,sans-serif" font-weight="400" font-size="50" transform="matrix(1 0 0 1 4938.62 3042)">関数</text></g><path d="M2537 1703.67C2537 1680.66 2555.66 1662 2578.67 1662L4158.13 1662C4181.15 1662 4199.8 1680.66 4199.8 1703.67L4199.8 4333.33C4199.8 4356.34 4181.15 4375 4158.13 4375L2578.67 4375C2555.66 4375 2537 4356.34 2537 4333.33Z" stroke="#000000" stroke-width="10.3125" stroke-miterlimit="8" fill="#1F4E79" fill-rule="evenodd"/><g><text fill="#FFFFFF" font-family="BIZ UDGothic,BIZ UDGothic_MSFontService,sans-serif" font-weight="400" font-size="50" transform="matrix(1 0 0 1 2569.19 1733)">SensorAnalyzerImpl</text></g><g><text fill="#FFFFFF" font-family="BIZ UDGothic,BIZ UDGothic_MSFontService,sans-serif" font-weight="400" font-size="50" transform="matrix(1 0 0 1 3022.94 1733)">クラス</text></g><path d="M2625.5 1880.18C2625.5 1857.16 2644.16 1838.5 2667.18 1838.5L4070.82 1838.5C4093.84 1838.5 4112.5 1857.16 4112.5 1880.18L4112.5 4246.82C4112.5 4269.84 4093.84 4288.5 4070.82 4288.5L2667.18 4288.5C2644.16 4288.5 2625.5 4269.84 2625.5 4246.82Z" stroke="#5B9BD5" stroke-width="4.58333" stroke-miterlimit="8" stroke-dasharray="18.3333 13.75" fill="#203864" fill-rule="evenodd"/><g><text fill="#C198E0" font-family="BIZ UDGothic,BIZ UDGothic_MSFontService,sans-serif" font-weight="400" font-size="50" transform="matrix(1 0 0 1 2656.7 1908)">doSensorAnalyzerImplImpl</text></g><g><text fill="#C198E0" font-family="BIZ UDGothic,BIZ UDGothic_MSFontService,sans-serif" font-weight="400" font-size="50" transform="matrix(1 0 0 1 3261.7 1908)">関数</text></g><path d="M2707.5 3777.33C2707.5 3769.14 2714.14 3762.5 2722.33 3762.5L3924.67 3762.5C3932.86 3762.5 3939.5 3769.14 3939.5 3777.33L3939.5 3836.67C3939.5 3844.86 3932.86 3851.5 3924.67 3851.5L2722.33 3851.5C2714.14 3851.5 2707.5 3844.86 2707.5 3836.67Z" stroke="#5B9BD5" stroke-width="4.58333" stroke-miterlimit="8" stroke-dasharray="18.3333 13.75" fill="#203864" fill-rule="evenodd"/><g><text fill="#C198E0" font-family="BIZ UDGothic,BIZ UDGothic_MSFontService,sans-serif" font-weight="400" font-size="50" transform="matrix(1 0 0 1 2731.26 3829)">__output_to_excel</text></g><g><text fill="#C198E0" font-family="BIZ UDGothic,BIZ UDGothic_MSFontService,sans-serif" font-weight="400" font-size="50" transform="matrix(1 0 0 1 3159.8 3829)">関数</text></g><path d="M2712.5 2017.37C2712.5 2014.68 2714.68 2012.5 2717.37 2012.5L3933.63 2012.5C3936.32 2012.5 3938.5 2014.68 3938.5 2017.37L3938.5 2620.63C3938.5 2623.32 3936.32 2625.5 3933.63 2625.5L2717.37 2625.5C2714.68 2625.5 2712.5 2623.32 2712.5 2620.63Z" stroke="#5B9BD5" stroke-width="4.58333" stroke-miterlimit="8" stroke-dasharray="18.3333 13.75" fill="#203864" fill-rule="evenodd"/><g><text fill="#C198E0" font-family="BIZ UDGothic,BIZ UDGothic_MSFontService,sans-serif" font-weight="400" font-size="50" transform="matrix(1 0 0 1 2733.41 2072)">__generate_alititude_csv</text></g><g><text fill="#C198E0" font-family="BIZ UDGothic,BIZ UDGothic_MSFontService,sans-serif" font-weight="400" font-size="50" transform="matrix(1 0 0 1 3338.41 2072)">関数</text></g><path d="M2800.5 2206.06C2800.5 2195.81 2808.81 2187.5 2819.06 2187.5L3831.94 2187.5C3842.19 2187.5 3850.5 2195.81 3850.5 2206.06L3850.5 2518.94C3850.5 2529.19 3842.19 2537.5 3831.94 2537.5L2819.06 2537.5C2808.81 2537.5 2800.5 2529.19 2800.5 2518.94Z" stroke="#5B9BD5" stroke-width="4.58333" stroke-miterlimit="8" stroke-dasharray="18.3333 13.75" fill="#203864" fill-rule="evenodd"/><g><text fill="#C198E0" font-family="BIZ UDGothic,BIZ UDGothic_MSFontService,sans-serif" font-weight="400" font-size="50" transform="matrix(1 0 0 1 2824.92 2251)">__calculate_altitude</text></g><g><text fill="#C198E0" font-family="BIZ UDGothic,BIZ UDGothic_MSFontService,sans-serif" font-weight="400" font-size="50" transform="matrix(1 0 0 1 3329.09 2251)">関数</text></g><path d="M2891.5 2376.33C2891.5 2368.14 2898.14 2361.5 2906.33 2361.5L3748.67 2361.5C3756.86 2361.5 3763.5 2368.14 3763.5 2376.33L3763.5 2435.67C3763.5 2443.86 3756.86 2450.5 3748.67 2450.5L2906.33 2450.5C2898.14 2450.5 2891.5 2443.86 2891.5 2435.67Z" stroke="#5B9BD5" stroke-width="4.58333" stroke-miterlimit="8" stroke-dasharray="18.3333 13.75" fill="#203864" fill-rule="evenodd"/><g><text fill="#C198E0" font-family="BIZ UDGothic,BIZ UDGothic_MSFontService,sans-serif" font-weight="400" font-size="50" transform="matrix(1 0 0 1 2914.72 2428)">__virtual_temperature</text></g><g><text fill="#C198E0" font-family="BIZ UDGothic,BIZ UDGothic_MSFontService,sans-serif" font-weight="400" font-size="50" transform="matrix(1 0 0 1 3444.1 2428)">関数</text></g><path d="M2707.5 3953.17C2707.5 3945.07 2714.07 3938.5 2722.17 3938.5L3922.83 3938.5C3930.93 3938.5 3937.5 3945.07 3937.5 3953.17L3937.5 4011.83C3937.5 4019.93 3930.93 4026.5 3922.83 4026.5L2722.17 4026.5C2714.07 4026.5 2707.5 4019.93 2707.5 4011.83Z" stroke="#5B9BD5" stroke-width="4.58333" stroke-miterlimit="8" stroke-dasharray="18.3333 13.75" fill="#203864" fill-rule="evenodd"/><g><text fill="#C198E0" font-family="BIZ UDGothic,BIZ UDGothic_MSFontService,sans-serif" font-weight="400" font-size="50" transform="matrix(1 0 0 1 2731.26 4004)">__conver_h264_to_mp4</text></g><g><text fill="#C198E0" font-family="BIZ UDGothic,BIZ UDGothic_MSFontService,sans-serif" font-weight="400" font-size="50" transform="matrix(1 0 0 1 3235.43 4004)">関数</text></g><path d="M2712.5 2728C2712.5 2719.44 2719.44 2712.5 2728 2712.5L3923 2712.5C3931.56 2712.5 3938.5 2719.44 3938.5 2728L3938.5 3660C3938.5 3668.56 3931.56 3675.5 3923 3675.5L2728 3675.5C2719.44 3675.5 2712.5 3668.56 2712.5 3660Z" stroke="#5B9BD5" stroke-width="4.58333" stroke-miterlimit="8" stroke-dasharray="18.3333 13.75" fill="#203864" fill-rule="evenodd"/><g><text fill="#C198E0" font-family="BIZ UDGothic,BIZ UDGothic_MSFontService,sans-serif" font-weight="400" font-size="50" transform="matrix(1 0 0 1 2736.53 2776)">__analyse_frame_sync</text></g><g><text fill="#C198E0" font-family="BIZ UDGothic,BIZ UDGothic_MSFontService,sans-serif" font-weight="400" font-size="50" transform="matrix(1 0 0 1 3240.69 2776)">関数</text></g><path d="M2797.5 2908.78C2797.5 2897.58 2806.58 2888.5 2817.78 2888.5L3830.22 2888.5C3841.42 2888.5 3850.5 2897.58 3850.5 2908.78L3850.5 3568.22C3850.5 3579.42 3841.42 3588.5 3830.22 3588.5L2817.78 3588.5C2806.58 3588.5 2797.5 3579.42 2797.5 3568.22Z" stroke="#5B9BD5" stroke-width="4.58333" stroke-miterlimit="8" stroke-dasharray="18.3333 13.75" fill="#203864" fill-rule="evenodd"/><g><text fill="#C198E0" font-family="BIZ UDGothic,BIZ UDGothic_MSFontService,sans-serif" font-weight="400" font-size="50" transform="matrix(1 0 0 1 2822.02 2952)">__movie_gen</text></g><g><text fill="#C198E0" font-family="BIZ UDGothic,BIZ UDGothic_MSFontService,sans-serif" font-weight="400" font-size="50" transform="matrix(1 0 0 1 3099.32 2952)">関数</text></g><path d="M2887.5 3078.17C2887.5 3070.07 2894.07 3063.5 2902.17 3063.5L3750.83 3063.5C3758.93 3063.5 3765.5 3070.07 3765.5 3078.17L3765.5 3136.83C3765.5 3144.93 3758.93 3151.5 3750.83 3151.5L2902.17 3151.5C2894.07 3151.5 2887.5 3144.93 2887.5 3136.83Z" stroke="#5B9BD5" stroke-width="4.58333" stroke-miterlimit="8" stroke-dasharray="18.3333 13.75" fill="#203864" fill-rule="evenodd"/><g><text fill="#C198E0" font-family="BIZ UDGothic,BIZ UDGothic_MSFontService,sans-serif" font-weight="400" font-size="50" transform="matrix(1 0 0 1 2911.31 3129)">__separation_h264_to_jpeg</text></g><g><text fill="#C198E0" font-family="BIZ UDGothic,BIZ UDGothic_MSFontService,sans-serif" font-weight="400" font-size="50" transform="matrix(1 0 0 1 3541.52 3129)">関数</text></g><path d="M2887.5 3251.17C2887.5 3243.07 2894.07 3236.5 2902.17 3236.5L3750.83 3236.5C3758.93 3236.5 3765.5 3243.07 3765.5 3251.17L3765.5 3309.83C3765.5 3317.93 3758.93 3324.5 3750.83 3324.5L2902.17 3324.5C2894.07 3324.5 2887.5 3317.93 2887.5 3309.83Z" stroke="#5B9BD5" stroke-width="4.58333" stroke-miterlimit="8" stroke-dasharray="18.3333 13.75" fill="#203864" fill-rule="evenodd"/><g><text fill="#C198E0" font-family="BIZ UDGothic,BIZ UDGothic_MSFontService,sans-serif" font-weight="400" font-size="50" transform="matrix(1 0 0 1 2911.31 3302)">__add_sensor_frame</text></g><g><text fill="#C198E0" font-family="BIZ UDGothic,BIZ UDGothic_MSFontService,sans-serif" font-weight="400" font-size="50" transform="matrix(1 0 0 1 3365.06 3302)">関数</text></g><path d="M2887.5 3426.33C2887.5 3418.14 2894.14 3411.5 2902.33 3411.5L3750.67 3411.5C3758.86 3411.5 3765.5 3418.14 3765.5 3426.33L3765.5 3485.67C3765.5 3493.86 3758.86 3500.5 3750.67 3500.5L2902.33 3500.5C2894.14 3500.5 2887.5 3493.86 2887.5 3485.67Z" stroke="#5B9BD5" stroke-width="4.58333" stroke-miterlimit="8" stroke-dasharray="18.3333 13.75" fill="#203864" fill-rule="evenodd"/><g><text fill="#C198E0" font-family="BIZ UDGothic,BIZ UDGothic_MSFontService,sans-serif" font-weight="400" font-size="50" transform="matrix(1 0 0 1 2911.31 3478)">__merge_jpeg_to_h264</text></g><g><text fill="#C198E0" font-family="BIZ UDGothic,BIZ UDGothic_MSFontService,sans-serif" font-weight="400" font-size="50" transform="matrix(1 0 0 1 3415.47 3478)">関数</text></g><path d="M2712.5 4125.67C2712.5 4117.29 2719.29 4110.5 2727.67 4110.5L3922.33 4110.5C3930.71 4110.5 3937.5 4117.29 3937.5 4125.67L3937.5 4186.33C3937.5 4194.71 3930.71 4201.5 3922.33 4201.5L2727.67 4201.5C2719.29 4201.5 2712.5 4194.71 2712.5 4186.33Z" stroke="#5B9BD5" stroke-width="4.58333" stroke-miterlimit="8" stroke-dasharray="18.3333 13.75" fill="#203864" fill-rule="evenodd"/><g><text fill="#C198E0" font-family="BIZ UDGothic,BIZ UDGothic_MSFontService,sans-serif" font-weight="400" font-size="50" transform="matrix(1 0 0 1 2736.44 4178)">その他関数</text></g><path d="M4225.78 3669.84 6186.72 3669.84 6186.72 3680.16 4225.78 3680.16ZM4230.94 3690.47 4200 3675 4230.94 3659.53ZM6181.56 3659.53 6212.5 3675 6181.56 3690.47Z" fill="#00B0F0"/><path d="M5512 1656.84 6186.22 1656.84 6186.22 1667.16 5512 1667.16ZM6181.06 1646.53 6212 1662 6181.06 1677.47Z" fill="#00B0F0"/><path d="M5512 2182.84 6186.22 2182.84 6186.22 2193.16 5512 2193.16ZM6181.06 2172.53 6212 2188 6181.06 2203.47Z" fill="#00B0F0"/><path d="M5512 2882.84 6186.22 2882.84 6186.22 2893.16 5512 2893.16ZM6181.06 2872.53 6212 2888 6181.06 2903.47Z" fill="#00B0F0"/><path d="M4225.78 3932.84 6186.72 3932.84 6186.72 3943.16 4225.78 3943.16ZM4230.94 3953.47 4200 3938 4230.94 3922.53ZM6181.56 3922.53 6212.5 3938 6181.56 3953.47Z" fill="#00B0F0"/><path d="M5538.78 1831.84 5775.5 1831.84 5775.5 1842.16 5538.78 1842.16ZM5543.94 1852.47 5513 1837 5543.94 1821.53Z" fill="#00B0F0"/><path d="M4200 4194.84 6186.72 4194.84 6186.72 4205.16 4200 4205.16ZM6181.56 4184.53 6212.5 4200 6181.56 4215.47Z" fill="#00B0F0"/><path d="M5537.78 2532.84 5687 2532.84 5687 2543.16 5537.78 2543.16ZM5542.94 2553.47 5512 2538 5542.94 2522.53Z" fill="#00B0F0"/><path d="M5537.78 3406.84 5599.5 3406.84 5599.5 3417.16 5537.78 3417.16ZM5542.94 3427.47 5512 3412 5542.94 3396.53Z" fill="#00B0F0"/><path d="M5605.16 3412 5605.16 4696.17 5594.84 4696.17 5594.84 3412ZM5615.47 4691.02 5600 4721.96 5584.53 4691.02Z" fill="#00B0F0"/><path d="M5780.16 1837 5780.16 4696.17 5769.84 4696.17 5769.84 1837ZM5790.47 4691.02 5775 4721.96 5759.53 4691.02Z" fill="#00B0F0"/><path d="M5692.16 2538 5692.16 4699.72 5681.84 4699.72 5681.84 2538ZM5702.47 4694.56 5687 4725.5 5671.53 4694.56Z" fill="#00B0F0"/><path d="M1654 2007.84 2511.68 2007.84 2511.68 2018.16 1654 2018.16ZM2506.53 1997.53 2537.47 2013 2506.53 2028.47Z" fill="#00B0F0"/><path d="M1575 2094.84 2511.72 2094.84 2511.72 2105.16 1575 2105.16ZM2506.56 2084.53 2537.5 2100 2506.56 2115.47Z" fill="#00B0F0"/><path d="M0 0 4900 0.000360892" stroke="#00B0F0" stroke-width="10.3125" stroke-miterlimit="8" fill="none" fill-rule="evenodd" transform="matrix(-1 0 0 1 6650 875)"/><path d="M6213.5 3574.5 6442.5 3574.5 6442.5 3690.33 6419.33 3713.5 6213.5 3713.5Z" fill="#6D6DFF" fill-rule="evenodd"/><path d="M6419.33 3713.5 6423.97 3694.97 6442.5 3690.33Z" fill="#5858CD" fill-rule="evenodd"/><path d="M6419.33 3713.5 6423.97 3694.97 6442.5 3690.33 6419.33 3713.5 6213.5 3713.5 6213.5 3574.5 6442.5 3574.5 6442.5 3690.33" stroke="#00B050" stroke-width="6.875" stroke-miterlimit="8" fill="none" fill-rule="evenodd"/><g><text fill="#FFFFFF" font-family="Calibri,Calibri_MSFontService,sans-serif" font-weight="400" font-size="50" transform="matrix(1 0 0 1 6289.92 3649)">jpeg</text></g><path d="M6241.5 3601.5 6470.5 3601.5 6470.5 3717.33 6447.33 3740.5 6241.5 3740.5Z" fill="#6D6DFF" fill-rule="evenodd"/><path d="M6447.33 3740.5 6451.97 3721.97 6470.5 3717.33Z" fill="#5858CD" fill-rule="evenodd"/><path d="M6447.33 3740.5 6451.97 3721.97 6470.5 3717.33 6447.33 3740.5 6241.5 3740.5 6241.5 3601.5 6470.5 3601.5 6470.5 3717.33" stroke="#00B050" stroke-width="6.875" stroke-miterlimit="8" fill="none" fill-rule="evenodd"/><g><text fill="#FFFFFF" font-family="Calibri,Calibri_MSFontService,sans-serif" font-weight="400" font-size="50" transform="matrix(1 0 0 1 6318.23 3676)">jpeg</text></g><path d="M6269.5 3631.5 6498.5 3631.5 6498.5 3747.33 6475.33 3770.5 6269.5 3770.5Z" fill="#6D6DFF" fill-rule="evenodd"/><path d="M6475.33 3770.5 6479.97 3751.97 6498.5 3747.33Z" fill="#5858CD" fill-rule="evenodd"/><path d="M6475.33 3770.5 6479.97 3751.97 6498.5 3747.33 6475.33 3770.5 6269.5 3770.5 6269.5 3631.5 6498.5 3631.5 6498.5 3747.33" stroke="#00B050" stroke-width="6.875" stroke-miterlimit="8" fill="none" fill-rule="evenodd"/><g><text fill="#FFFFFF" font-family="Calibri,Calibri_MSFontService,sans-serif" font-weight="400" font-size="50" transform="matrix(1 0 0 1 6346.55 3706)">jpeg</text></g><path d="M6297.5 3659.5 6527.5 3659.5 6527.5 3775.33 6504.33 3798.5 6297.5 3798.5Z" fill="#6D6DFF" fill-rule="evenodd"/><path d="M6504.33 3798.5 6508.97 3779.97 6527.5 3775.33Z" fill="#5858CD" fill-rule="evenodd"/><path d="M6504.33 3798.5 6508.97 3779.97 6527.5 3775.33 6504.33 3798.5 6297.5 3798.5 6297.5 3659.5 6527.5 3659.5 6527.5 3775.33" stroke="#00B050" stroke-width="6.875" stroke-miterlimit="8" fill="none" fill-rule="evenodd"/><g><text fill="#FFFFFF" font-family="Calibri,Calibri_MSFontService,sans-serif" font-weight="400" font-size="50" transform="matrix(1 0 0 1 6374.87 3734)">jpeg</text></g><path d="M6213.5 3850.5 6442.5 3850.5 6442.5 3965.5 6419.5 3988.5 6213.5 3988.5Z" fill="#3737FF" fill-rule="evenodd"/><path d="M6419.5 3988.5 6424.1 3970.1 6442.5 3965.5Z" fill="#2C2CCD" fill-rule="evenodd"/><path d="M6419.5 3988.5 6424.1 3970.1 6442.5 3965.5 6419.5 3988.5 6213.5 3988.5 6213.5 3850.5 6442.5 3850.5 6442.5 3965.5" stroke="#00B050" stroke-width="6.875" stroke-miterlimit="8" fill="none" fill-rule="evenodd"/><g><text fill="#FFFFFF" font-family="Calibri,Calibri_MSFontService,sans-serif" font-weight="400" font-size="50" transform="matrix(1 0 0 1 6289.92 3925)">jpeg</text></g><path d="M6241.5 3878.5 6470.5 3878.5 6470.5 3993.5 6447.5 4016.5 6241.5 4016.5Z" fill="#3737FF" fill-rule="evenodd"/><path d="M6447.5 4016.5 6452.1 3998.1 6470.5 3993.5Z" fill="#2C2CCD" fill-rule="evenodd"/><path d="M6447.5 4016.5 6452.1 3998.1 6470.5 3993.5 6447.5 4016.5 6241.5 4016.5 6241.5 3878.5 6470.5 3878.5 6470.5 3993.5" stroke="#00B050" stroke-width="6.875" stroke-miterlimit="8" fill="none" fill-rule="evenodd"/><g><text fill="#FFFFFF" font-family="Calibri,Calibri_MSFontService,sans-serif" font-weight="400" font-size="50" transform="matrix(1 0 0 1 6318.23 3953)">jpeg</text></g><path d="M6269.5 3907.5 6498.5 3907.5 6498.5 4021.67 6475.67 4044.5 6269.5 4044.5Z" fill="#3737FF" fill-rule="evenodd"/><path d="M6475.67 4044.5 6480.23 4026.23 6498.5 4021.67Z" fill="#2C2CCD" fill-rule="evenodd"/><path d="M6475.67 4044.5 6480.23 4026.23 6498.5 4021.67 6475.67 4044.5 6269.5 4044.5 6269.5 3907.5 6498.5 3907.5 6498.5 4021.67" stroke="#00B050" stroke-width="6.875" stroke-miterlimit="8" fill="none" fill-rule="evenodd"/><g><text fill="#FFFFFF" font-family="Calibri,Calibri_MSFontService,sans-serif" font-weight="400" font-size="50" transform="matrix(1 0 0 1 6346.55 3981)">jpeg</text></g><path d="M6297.5 3935.5 6527.5 3935.5 6527.5 4050.5 6504.5 4073.5 6297.5 4073.5Z" fill="#3737FF" fill-rule="evenodd"/><path d="M6504.5 4073.5 6509.1 4055.1 6527.5 4050.5Z" fill="#2C2CCD" fill-rule="evenodd"/><path d="M6504.5 4073.5 6509.1 4055.1 6527.5 4050.5 6504.5 4073.5 6297.5 4073.5 6297.5 3935.5 6527.5 3935.5 6527.5 4050.5" stroke="#00B050" stroke-width="6.875" stroke-miterlimit="8" fill="none" fill-rule="evenodd"/><g><text fill="#FFFFFF" font-family="Calibri,Calibri_MSFontService,sans-serif" font-weight="400" font-size="50" transform="matrix(1 0 0 1 6374.87 4010)">jpeg</text></g><path d="M0 0 5075 0.000360892" stroke="#00B0F0" stroke-width="10.3125" stroke-miterlimit="8" fill="none" fill-rule="evenodd" transform="matrix(-1 0 0 1 6737 788)"/><path d="M0 0 5250 0.000360892" stroke="#00B0F0" stroke-width="10.3125" stroke-miterlimit="8" fill="none" fill-rule="evenodd" transform="matrix(-1 0 0 1 6825 700)"/><path d="M1750 875 1750 1925" stroke="#00B0F0" stroke-width="10.3125" stroke-miterlimit="8" fill="none" fill-rule="evenodd"/><path d="M1662 788 1662 2013" stroke="#00B0F0" stroke-width="10.3125" stroke-miterlimit="8" fill="none" fill-rule="evenodd"/><path d="M1575 700 1575 2100" stroke="#00B0F0" stroke-width="10.3125" stroke-miterlimit="8" fill="none" fill-rule="evenodd"/><path d="M1487 1398.85 1901.44 1398.85 1901.44 1401.15 1487 1401.15ZM1896.85 1386.25 1924.35 1400 1896.85 1413.75Z" fill="#FFFFFF"/><path d="M6563 1662 6650.5 1662" stroke="#00B0F0" stroke-width="10.3125" stroke-miterlimit="8" fill="none" fill-rule="evenodd"/><path d="M6563 2188 6738 2188" stroke="#00B0F0" stroke-width="10.3125" stroke-miterlimit="8" fill="none" fill-rule="evenodd"/><path d="M6563 2888 6825.5 2888" stroke="#00B0F0" stroke-width="10.3125" stroke-miterlimit="8" fill="none" fill-rule="evenodd"/><path d="M6650 875 6650 1662.5" stroke="#00B0F0" stroke-width="10.3125" stroke-miterlimit="8" fill="none" fill-rule="evenodd"/><path d="M6738 788 6738 2188.77" stroke="#00B0F0" stroke-width="10.3125" stroke-miterlimit="8" fill="none" fill-rule="evenodd"/><path d="M6825 700 6825 2887.5" stroke="#00B0F0" stroke-width="10.3125" stroke-miterlimit="8" fill="none" fill-rule="evenodd"/><path d="M2537 1703.67C2537 1680.66 2555.66 1662 2578.67 1662L4158.13 1662C4181.15 1662 4199.8 1680.66 4199.8 1703.67L4199.8 4333.33C4199.8 4356.34 4181.15 4375 4158.13 4375L2578.67 4375C2555.66 4375 2537 4356.34 2537 4333.33Z" fill="#000000" fill-rule="evenodd" fill-opacity="0.698039"/><path d="M6170 3525.32C6170 3519.62 6174.62 3515 6180.33 3515L6571.67 3515C6577.38 3515 6582 3519.62 6582 3525.32L6582 4447.67C6582 4453.38 6577.38 4458 6571.67 4458L6180.33 4458C6174.62 4458 6170 4453.38 6170 4447.67Z" fill="#000000" fill-rule="evenodd" fill-opacity="0.698039"/><path d="M1487 1355.75 1849.5 1355.75 1849.5 1312 1937 1399.5 1849.5 1487 1849.5 1443.25 1487 1443.25Z" fill="#FF0000" fill-rule="evenodd" fill-opacity="0.6"/><path d="M2280 1360.75 2399.5 1360.75 2399.5 1317 2487 1404.5 2399.5 1492 2399.5 1448.25 2280 1448.25Z" fill="#FF0000" fill-rule="evenodd" fill-opacity="0.6"/><path d="M4179 1528.75 4298.5 1528.75 4298.5 1485 4386 1572.5 4298.5 1660 4298.5 1616.25 4179 1616.25Z" fill="#FF0000" fill-rule="evenodd" fill-opacity="0.6"/><path d="M5475 1620.75 6147.5 1620.75 6147.5 1577 6235 1664.5 6147.5 1752 6147.5 1708.25 5475 1708.25Z" fill="#FF0000" fill-rule="evenodd" fill-opacity="0.6"/><path d="M5475 2144.75 6147.5 2144.75 6147.5 2101 6235 2188.5 6147.5 2276 6147.5 2232.25 5475 2232.25Z" fill="#FF0000" fill-rule="evenodd" fill-opacity="0.6"/><path d="M5475 2849.75 6147.5 2849.75 6147.5 2806 6235 2893.5 6147.5 2981 6147.5 2937.25 5475 2937.25Z" fill="#FF0000" fill-rule="evenodd" fill-opacity="0.6"/><path d="M0 2875 100 2775 100 2839.82 264.817 2839.82 264.817 99.9996 200 99.9996 300 0 400 99.9996 335.184 99.9996 335.184 2910.18 100 2910.18 100 2975Z" fill="#FF0000" fill-rule="evenodd" fill-opacity="0.6" transform="matrix(1 0 0 -1 5487 4725)"/><path d="M0 2183.5 84.4994 2099 84.4994 2153.77 223.769 2153.77 223.769 84.4994 169.001 84.4994 253.501 0 338 84.4994 283.23 84.4994 283.23 2213.23 84.4994 2213.23 84.4994 2268Z" fill="#FF0000" fill-rule="evenodd" fill-opacity="0.6" transform="matrix(1 0 0 -1 5442 4718)"/><path d="M0 1348 86.9996 1261 86.9996 1317.39 230.39 1317.39 230.39 86.9992 174.001 86.9992 261 0 348 86.9992 291.61 86.9992 291.61 1378.61 86.9996 1378.61 86.9996 1435Z" fill="#FF0000" fill-rule="evenodd" fill-opacity="0.6" transform="matrix(1 0 0 -1 5337 4735)"/></g></svg>